%TF.GenerationSoftware,KiCad,Pcbnew,10.0.5*%
%TF.CreationDate,2026-09-21T14:48:14+02:00*%
%TF.ProjectId,PC1500-Pico2W-Dongle,50433135-3030-42d5-9069-636f32572d44,rev?*%
%TF.SameCoordinates,Original*%
%TF.FileFunction,Copper,L3,Inr*%
%TF.FilePolarity,Positive*%
%FSLAX46Y46*%
G04 Gerber Fmt 4.6, Leading zero omitted, Abs format (unit mm)*
G04 Created by KiCad (PCBNEW 10.0.5) date 2026-09-21 14:48:14*
%MOMM*%
%LPD*%
G01*
G04 APERTURE LIST*
%TA.AperFunction,ComponentPad*%
%ADD10C,1.700000*%
%TD*%
%TA.AperFunction,ComponentPad*%
%ADD11R,1.700000X1.700000*%
%TD*%
%TA.AperFunction,ComponentPad*%
%ADD12C,1.524000*%
%TD*%
%TA.AperFunction,ViaPad*%
%ADD13C,0.600000*%
%TD*%
%TA.AperFunction,Conductor*%
%ADD14C,0.200000*%
%TD*%
G04 APERTURE END LIST*
D10*
%TO.N,AD0*%
%TO.C,U1*%
X17110000Y-18250000D03*
%TO.N,AD1*%
X17110000Y-20790000D03*
%TO.N,GND*%
X17110000Y-23330000D03*
%TO.N,AD2*%
X17110000Y-25870000D03*
%TO.N,AD3*%
X17110000Y-28410000D03*
%TO.N,AD4*%
X17110000Y-30950000D03*
%TO.N,AD5*%
X17110000Y-33490000D03*
%TO.N,GND*%
X17110000Y-36030000D03*
%TO.N,AD6*%
X17110000Y-38570000D03*
%TO.N,AD7*%
X17110000Y-41110000D03*
%TO.N,AD8*%
X17110000Y-43650000D03*
%TO.N,AD9*%
X17110000Y-46190000D03*
%TO.N,GND*%
X17110000Y-48730000D03*
%TO.N,AD10*%
X17110000Y-51270000D03*
%TO.N,AD11*%
X17110000Y-53810000D03*
%TO.N,AD12*%
X17110000Y-56350000D03*
%TO.N,D0*%
X17110000Y-58890000D03*
%TO.N,GND*%
X17110000Y-61430000D03*
%TO.N,D1*%
X17110000Y-63970000D03*
%TO.N,D2*%
X17110000Y-66510000D03*
%TO.N,D3*%
X34890000Y-66510000D03*
%TO.N,D4*%
X34890000Y-63970000D03*
%TO.N,GND*%
X34890000Y-61430000D03*
%TO.N,D5*%
X34890000Y-58890000D03*
%TO.N,D6*%
X34890000Y-56350000D03*
%TO.N,D7*%
X34890000Y-53810000D03*
%TO.N,TRIG_RD*%
X34890000Y-51270000D03*
%TO.N,GND*%
X34890000Y-48730000D03*
%TO.N,TRIG_WR*%
X34890000Y-46190000D03*
%TO.N,unconnected-(U1-RUN-Pad30)*%
X34890000Y-43650000D03*
%TO.N,SDA*%
X34890000Y-41110000D03*
%TO.N,SCL*%
X34890000Y-38570000D03*
%TO.N,GND*%
X34890000Y-36030000D03*
%TO.N,GP28*%
X34890000Y-33490000D03*
%TO.N,3V3*%
X34890000Y-30950000D03*
X34890000Y-28410000D03*
%TO.N,unconnected-(U1-3V3_EN-Pad37)*%
X34890000Y-25870000D03*
%TO.N,GND*%
X34890000Y-23330000D03*
%TO.N,VSYS_SW*%
X34890000Y-20790000D03*
%TO.N,VBUS*%
X34890000Y-18250000D03*
%TD*%
D11*
%TO.N,PC1500_SENSE*%
%TO.C,JP3*%
X40605000Y-72595000D03*
D10*
%TO.N,GND*%
X38065000Y-72595000D03*
%TD*%
D11*
%TO.N,~INT*%
%TO.C,J3*%
X53500000Y-9460000D03*
D10*
%TO.N,GP28*%
X53500000Y-12000000D03*
%TO.N,GND*%
X53500000Y-14540000D03*
%TD*%
D12*
%TO.N,AD7*%
%TO.C,J1*%
X50325000Y-61050000D03*
%TO.N,AD6*%
X52230000Y-59780000D03*
%TO.N,AD5*%
X50325000Y-58510000D03*
%TO.N,AD4*%
X52230000Y-57240000D03*
%TO.N,AD3*%
X50325000Y-55970000D03*
%TO.N,AD2*%
X52230000Y-54700000D03*
%TO.N,AD1*%
X50325000Y-53430000D03*
%TO.N,AD0*%
X52230000Y-52160000D03*
%TO.N,PB0*%
X50325000Y-50890000D03*
%TO.N,PC7*%
X52230000Y-49620000D03*
%TO.N,+4V7*%
X50325000Y-48350000D03*
X52230000Y-47080000D03*
%TO.N,NC1*%
X50325000Y-45810000D03*
%TO.N,NC2*%
X52230000Y-44540000D03*
%TO.N,PV*%
X50325000Y-43270000D03*
%TO.N,PU*%
X52230000Y-42000000D03*
%TO.N,D7*%
X50325000Y-40730000D03*
%TO.N,D6*%
X52230000Y-39460000D03*
%TO.N,D5*%
X50325000Y-38190000D03*
%TO.N,D4*%
X52230000Y-36920000D03*
%TO.N,D3*%
X50325000Y-35650000D03*
%TO.N,D2*%
X52230000Y-34380000D03*
%TO.N,D1*%
X50325000Y-33110000D03*
%TO.N,D0*%
X52230000Y-31840000D03*
%TO.N,~INHIBIT*%
X50325000Y-30570000D03*
%TO.N,~WEX*%
X52230000Y-29300000D03*
%TO.N,~CMTIN*%
X50325000Y-28030000D03*
%TO.N,W1*%
X52230000Y-26760000D03*
%TO.N,CMTOUT*%
X50325000Y-25490000D03*
%TO.N,INT*%
X52230000Y-24220000D03*
%TO.N,AD8*%
X54135000Y-61050000D03*
%TO.N,AD9*%
X56040000Y-59780000D03*
%TO.N,AD10*%
X54135000Y-58510000D03*
%TO.N,AD11*%
X56040000Y-57240000D03*
%TO.N,AD12*%
X54135000Y-55970000D03*
%TO.N,AD13*%
X56040000Y-54700000D03*
%TO.N,AD14*%
X54135000Y-53430000D03*
%TO.N,AD15*%
X56040000Y-52160000D03*
%TO.N,PB1*%
X54135000Y-50890000D03*
%TO.N,NC3*%
X56040000Y-49620000D03*
%TO.N,+4V7*%
X54135000Y-48350000D03*
X56040000Y-47080000D03*
%TO.N,FGND*%
X54135000Y-45810000D03*
X56040000Y-44540000D03*
%TO.N,+BATT*%
X54135000Y-43270000D03*
X56040000Y-42000000D03*
X54135000Y-40730000D03*
X56040000Y-39460000D03*
%TO.N,NC4*%
X54135000Y-38190000D03*
%TO.N,BFO*%
X56040000Y-36920000D03*
%TO.N,PHI_OS*%
X54135000Y-35650000D03*
%TO.N,GND*%
X56040000Y-34380000D03*
X54135000Y-33110000D03*
X56040000Y-31840000D03*
X54135000Y-30570000D03*
%TO.N,DME0*%
X56040000Y-29300000D03*
%TO.N,RW*%
X54135000Y-28030000D03*
%TO.N,DME1*%
X56040000Y-26760000D03*
%TO.N,ME1*%
X54135000Y-25490000D03*
%TO.N,OD*%
X56040000Y-24220000D03*
%TD*%
D11*
%TO.N,GREENPAK2_IO14*%
%TO.C,J5*%
X45800000Y-31860000D03*
D10*
%TO.N,GREENPAK2_IO12*%
X45800000Y-34400000D03*
%TO.N,GREENPAK2_IO10*%
X45800000Y-36940000D03*
%TD*%
D11*
%TO.N,SDA_GP*%
%TO.C,SDA1*%
X40000000Y-64000000D03*
D10*
%TO.N,SDA_GP_U4*%
X40000000Y-66540000D03*
%TD*%
D11*
%TO.N,SCL_GP*%
%TO.C,SCL1*%
X46000000Y-64000000D03*
D10*
%TO.N,SCL_GP_U4*%
X46000000Y-66540000D03*
%TD*%
D13*
%TO.N,DME0*%
X42925400Y-44595200D03*
X24892500Y-41936400D03*
%TO.N,PC1500_SENSE*%
X22286000Y-58224700D03*
%TO.N,SRAM_CS*%
X30320000Y-40434600D03*
%TO.N,PV*%
X41395000Y-43662300D03*
X33468300Y-41168600D03*
X28636100Y-40754300D03*
X27697500Y-44219800D03*
%TO.N,SRAM_WE*%
X27853500Y-49665900D03*
%TO.N,SRAM_A14*%
X20640400Y-57439200D03*
%TO.N,VGG*%
X24884500Y-25411400D03*
X31928700Y-50268200D03*
X45862500Y-41371700D03*
X27512300Y-55711400D03*
X37426700Y-45661700D03*
X24226600Y-69019500D03*
X40034100Y-25684100D03*
X41300000Y-39933200D03*
X43886000Y-54875200D03*
X33935600Y-50255700D03*
%TO.N,SRAM_A13*%
X27526400Y-50560500D03*
%TO.N,SRAM_A12*%
X25266600Y-60587100D03*
X22484900Y-49917700D03*
%TO.N,GND*%
X11395000Y-3367700D03*
X31625000Y-20000000D03*
X27600000Y-28000000D03*
X35800000Y-36000000D03*
X32000000Y-26225000D03*
X38800000Y-31375000D03*
X36000000Y-22600000D03*
X5900000Y-14375000D03*
X3435000Y-3675000D03*
X18000000Y-61600000D03*
X46775000Y-19200000D03*
X42800000Y-37000000D03*
X23200000Y-64600000D03*
X42975000Y-14200000D03*
X12730000Y-14375000D03*
X43200000Y-8400000D03*
X26200000Y-68200000D03*
%TO.N,SRAM_A11*%
X30311100Y-42802300D03*
%TO.N,SDA_GP*%
X30712900Y-61990800D03*
X30402700Y-26751000D03*
%TO.N,SCL_GP*%
X30507900Y-60774400D03*
X42400000Y-62842300D03*
%TO.N,RW*%
X51992500Y-30570000D03*
%TO.N,AD15*%
X30504100Y-59325000D03*
X47503400Y-45700100D03*
X30023500Y-54248200D03*
X46094300Y-54615900D03*
%TO.N,AD14*%
X46540400Y-40825600D03*
X47305200Y-55440300D03*
X47529300Y-51640900D03*
X37829800Y-59157900D03*
%TO.N,AD13*%
X48139000Y-58702900D03*
X30503400Y-58025000D03*
X51606100Y-61329600D03*
X38900900Y-59441200D03*
%TO.N,AD12*%
X27652600Y-57375000D03*
%TO.N,AD11*%
X53704000Y-62476800D03*
X27675800Y-56567100D03*
%TO.N,AD0*%
X22482700Y-38310200D03*
%TO.N,AD1*%
X22488600Y-39112000D03*
%TO.N,AD2*%
X22280000Y-39913800D03*
%TO.N,AD3*%
X19161700Y-37940900D03*
%TO.N,AD4*%
X49045600Y-55970000D03*
X22279800Y-43737300D03*
%TO.N,AD5*%
X49223200Y-63732300D03*
X18831000Y-45042900D03*
%TO.N,AD6*%
X22476300Y-44801100D03*
%TO.N,AD7*%
X19141600Y-47420000D03*
%TO.N,AD8*%
X28175200Y-47461300D03*
X37226900Y-60870500D03*
%TO.N,AD9*%
X28933200Y-47838900D03*
X52549200Y-64838200D03*
%TO.N,AD10*%
X23412000Y-51231600D03*
X50905600Y-64406000D03*
X29769100Y-41138000D03*
%TO.N,D0*%
X40446700Y-23266700D03*
X23007100Y-33207300D03*
%TO.N,D1*%
X37151900Y-31610200D03*
X33444200Y-29171400D03*
X22326900Y-36056000D03*
%TO.N,D2*%
X22299000Y-34884200D03*
X47930300Y-40286600D03*
%TO.N,D3*%
X32778400Y-32129100D03*
%TO.N,D4*%
X36249900Y-37300000D03*
X33711900Y-36768700D03*
%TO.N,D5*%
X30521100Y-36132600D03*
%TO.N,D6*%
X33723500Y-39317600D03*
%TO.N,D7*%
X30356000Y-50019800D03*
X30528000Y-38654400D03*
X38632000Y-43019000D03*
%TO.N,TRIG_RD*%
X45862500Y-48646400D03*
X38023500Y-46526400D03*
%TO.N,SDA*%
X29680900Y-30103200D03*
%TO.N,SCL*%
X25198900Y-31735300D03*
X39137500Y-15644400D03*
%TO.N,3V3*%
X8970100Y-21690100D03*
X42071700Y-10474400D03*
X33175000Y-18060800D03*
X9195000Y-4632500D03*
%TO.N,+BATT*%
X40421400Y-28371400D03*
%TO.N,Net-(J2-CD{slash}DAT3)*%
X6171500Y-7294100D03*
%TO.N,SD_CS*%
X37574700Y-4602000D03*
X6773700Y-4944300D03*
%TO.N,SD_MOSI*%
X8095000Y-4604500D03*
X37890700Y-10825600D03*
%TO.N,SD_SCK*%
X43548800Y-11067200D03*
X10295000Y-4602000D03*
%TO.N,SD_MISO*%
X12495000Y-5203800D03*
X37893100Y-9950300D03*
%TO.N,SD_DAT1*%
X8576600Y-19735400D03*
%TO.N,SD_DAT2*%
X1271500Y-10036900D03*
%TO.N,SC_RESET*%
X37888200Y-9025000D03*
X9800000Y-19717500D03*
%TO.N,OD*%
X33697700Y-44369900D03*
%TO.N,+4V7*%
X22320000Y-74295000D03*
%TD*%
%TO.N,PC1500_SENSE*%
D14*
X32801100Y-71443300D02*
X38589600Y-71443300D01*
X38589600Y-71443300D02*
X39453300Y-72307000D01*
X22286000Y-60928200D02*
X32801100Y-71443300D01*
X39453300Y-72307000D02*
X39453300Y-72595000D01*
X22286000Y-58224700D02*
X22286000Y-60928200D01*
X40605000Y-72595000D02*
X39453300Y-72595000D01*
%TO.N,PV*%
X29574100Y-39816300D02*
X28636100Y-40754300D01*
X41787300Y-43270000D02*
X41395000Y-43662300D01*
X32116000Y-39816300D02*
X29574100Y-39816300D01*
X50325000Y-43270000D02*
X41787300Y-43270000D01*
X33468300Y-41168600D02*
X32116000Y-39816300D01*
%TO.N,VGG*%
X41300000Y-39933200D02*
X42738500Y-41371700D01*
X33923100Y-50268200D02*
X33935600Y-50255700D01*
X39051400Y-24701400D02*
X40034100Y-25684100D01*
X24884500Y-25411400D02*
X25594500Y-24701400D01*
X42738500Y-41371700D02*
X45862500Y-41371700D01*
X25594500Y-24701400D02*
X39051400Y-24701400D01*
X31928700Y-50268200D02*
X33923100Y-50268200D01*
%TO.N,SRAM_A12*%
X25627300Y-52596000D02*
X22949000Y-49917700D01*
X29092100Y-56349800D02*
X28690400Y-55948100D01*
X26487500Y-60587100D02*
X29092100Y-57982500D01*
X28690400Y-55470300D02*
X25816200Y-52596100D01*
X25816200Y-52596100D02*
X25627300Y-52596100D01*
X29092100Y-57982500D02*
X29092100Y-56349800D01*
X25266600Y-60587100D02*
X26487500Y-60587100D01*
X22949000Y-49917700D02*
X22484900Y-49917700D01*
X25627300Y-52596100D02*
X25627300Y-52596000D01*
X28690400Y-55948100D02*
X28690400Y-55470300D01*
%TO.N,SDA_GP*%
X35367100Y-67661700D02*
X38848300Y-64180500D01*
X38848300Y-64180500D02*
X38848300Y-64000000D01*
X40000000Y-64000000D02*
X38848300Y-64000000D01*
X34413000Y-67661700D02*
X35367100Y-67661700D01*
X30712900Y-61990800D02*
X33738300Y-65016200D01*
X33738300Y-66987000D02*
X34413000Y-67661700D01*
X33738300Y-65016200D02*
X33738300Y-66987000D01*
%TO.N,SCL_GP*%
X33738300Y-64447000D02*
X34413000Y-65121700D01*
X43690600Y-62842300D02*
X44848300Y-64000000D01*
X42400000Y-62842300D02*
X43690600Y-62842300D01*
X30507900Y-60774400D02*
X33738300Y-64004800D01*
X37646500Y-62842300D02*
X42400000Y-62842300D01*
X46000000Y-64000000D02*
X44848300Y-64000000D01*
X34413000Y-65121700D02*
X35367100Y-65121700D01*
X35367100Y-65121700D02*
X37646500Y-62842300D01*
X33738300Y-64004800D02*
X33738300Y-64447000D01*
%TO.N,RW*%
X54135000Y-28982600D02*
X52547600Y-30570000D01*
X54135000Y-28030000D02*
X54135000Y-28982600D01*
X52547600Y-30570000D02*
X51992500Y-30570000D01*
%TO.N,AD15*%
X48683300Y-46880000D02*
X47503400Y-45700100D01*
X50442700Y-46880000D02*
X48683300Y-46880000D01*
X52054300Y-48491600D02*
X50442700Y-46880000D01*
X52643900Y-48491600D02*
X52054300Y-48491600D01*
X56040000Y-52160000D02*
X56040000Y-51290600D01*
X43150100Y-57560100D02*
X33335400Y-57560100D01*
X56040000Y-51290600D02*
X54575700Y-49826300D01*
X54575700Y-49826300D02*
X53978600Y-49826300D01*
X53978600Y-49826300D02*
X52643900Y-48491600D01*
X46094300Y-54615900D02*
X43150100Y-57560100D01*
X33335400Y-57560100D02*
X30023500Y-54248200D01*
%TO.N,AD14*%
X47305200Y-55440300D02*
X43906000Y-58839500D01*
X51912600Y-53430000D02*
X50470500Y-51987900D01*
X50470500Y-51987900D02*
X47876300Y-51987900D01*
X47876300Y-51987900D02*
X47529300Y-51640900D01*
X43906000Y-58839500D02*
X38148200Y-58839500D01*
X54135000Y-53430000D02*
X51912600Y-53430000D01*
X38148200Y-58839500D02*
X37829800Y-59157900D01*
%TO.N,AD13*%
X53301100Y-60216100D02*
X52187600Y-61329600D01*
X56040000Y-54700000D02*
X53817600Y-54700000D01*
X53019400Y-56441800D02*
X53330700Y-56753100D01*
X53004600Y-58967000D02*
X53301100Y-59263500D01*
X53004600Y-58053000D02*
X53004600Y-58967000D01*
X53019400Y-55498200D02*
X53019400Y-56441800D01*
X53301100Y-59263500D02*
X53301100Y-60216100D01*
X47484200Y-59357700D02*
X48139000Y-58702900D01*
X53330700Y-57726900D02*
X53004600Y-58053000D01*
X52187600Y-61329600D02*
X51606100Y-61329600D01*
X38984400Y-59357700D02*
X47484200Y-59357700D01*
X53817600Y-54700000D02*
X53019400Y-55498200D01*
X38900900Y-59441200D02*
X38984400Y-59357700D01*
X53330700Y-56753100D02*
X53330700Y-57726900D01*
%TO.N,AD12*%
X51916800Y-64829000D02*
X51916800Y-64617700D01*
X24051100Y-57375000D02*
X23649400Y-57776700D01*
X22222700Y-56350000D02*
X23649400Y-57776700D01*
X23649400Y-57776700D02*
X23649400Y-61049700D01*
X23649400Y-61049700D02*
X31934700Y-69335000D01*
X55234500Y-58998100D02*
X55234500Y-58021900D01*
X17110000Y-56350000D02*
X22222700Y-56350000D01*
X54135000Y-56922400D02*
X54135000Y-55970000D01*
X31934700Y-69335000D02*
X47410800Y-69335000D01*
X54963700Y-59268900D02*
X55234500Y-58998100D01*
X51916800Y-64617700D02*
X52314700Y-64219800D01*
X47410800Y-69335000D02*
X51916800Y-64829000D01*
X55262800Y-60590200D02*
X54963700Y-60291100D01*
X27652600Y-57375000D02*
X24051100Y-57375000D01*
X55262800Y-61768900D02*
X55262800Y-60590200D01*
X55234500Y-58021900D02*
X54135000Y-56922400D01*
X54963700Y-60291100D02*
X54963700Y-59268900D01*
X52811900Y-64219800D02*
X55262800Y-61768900D01*
X52314700Y-64219800D02*
X52811900Y-64219800D01*
%TO.N,AD11*%
X28288700Y-57124300D02*
X27731600Y-56567200D01*
X53489700Y-62476800D02*
X51515100Y-64451400D01*
X24206000Y-60136200D02*
X26037300Y-58304900D01*
X47244500Y-68933300D02*
X32101100Y-68933300D01*
X26037300Y-58304900D02*
X27633700Y-58304900D01*
X27731600Y-56567200D02*
X27675800Y-56567200D01*
X27517200Y-56567100D02*
X27675800Y-56567100D01*
X17110000Y-53810000D02*
X24760100Y-53810000D01*
X51515100Y-64451400D02*
X51515100Y-64662700D01*
X53704000Y-62476800D02*
X53489700Y-62476800D01*
X24760100Y-53810000D02*
X27517200Y-56567100D01*
X27633700Y-58304900D02*
X28288700Y-57649900D01*
X24206000Y-61038200D02*
X24206000Y-60136200D01*
X28288700Y-57649900D02*
X28288700Y-57124300D01*
X51515100Y-64662700D02*
X47244500Y-68933300D01*
X32101100Y-68933300D02*
X24206000Y-61038200D01*
X27675800Y-56567200D02*
X27675800Y-56567100D01*
%TO.N,AD0*%
X43222600Y-45743200D02*
X44500200Y-45743200D01*
X50559200Y-49536600D02*
X52230000Y-51207400D01*
X22482700Y-38310200D02*
X24559000Y-38310200D01*
X52230000Y-51207400D02*
X52230000Y-52160000D01*
X24559000Y-38310200D02*
X31230200Y-44981400D01*
X48293600Y-49536600D02*
X50559200Y-49536600D01*
X42460800Y-44981400D02*
X43222600Y-45743200D01*
X31230200Y-44981400D02*
X42460800Y-44981400D01*
X44500200Y-45743200D02*
X48293600Y-49536600D01*
%TO.N,AD1*%
X22433700Y-39112000D02*
X22488600Y-39112000D01*
X21057500Y-24737500D02*
X21057500Y-37735800D01*
X22488600Y-39112000D02*
X24227600Y-39112000D01*
X24227600Y-39112000D02*
X32667700Y-47552100D01*
X32667700Y-47552100D02*
X42578000Y-47552100D01*
X48455900Y-53430000D02*
X50325000Y-53430000D01*
X21057500Y-37735800D02*
X22433700Y-39112000D01*
X42578000Y-47552100D02*
X48455900Y-53430000D01*
X17110000Y-20790000D02*
X21057500Y-24737500D01*
%TO.N,AD2*%
X34531000Y-50000000D02*
X24444800Y-39913800D01*
X52230000Y-54700000D02*
X48702800Y-54700000D01*
X24444800Y-39913800D02*
X22280000Y-39913800D01*
X20422000Y-29182000D02*
X20422000Y-38055800D01*
X48702800Y-54700000D02*
X44002800Y-50000000D01*
X17110000Y-25870000D02*
X20422000Y-29182000D01*
X20422000Y-38055800D02*
X22280000Y-39913800D01*
X44002800Y-50000000D02*
X34531000Y-50000000D01*
%TO.N,AD3*%
X15931500Y-29588500D02*
X17110000Y-28410000D01*
X19161700Y-33854800D02*
X17645200Y-32338300D01*
X50325000Y-55970000D02*
X49723300Y-55368300D01*
X19161700Y-37940900D02*
X19161700Y-33854800D01*
X49723300Y-55368300D02*
X48789200Y-55368300D01*
X16850700Y-32338300D02*
X15931500Y-31419100D01*
X45959400Y-52538500D02*
X33283700Y-52538500D01*
X30957800Y-47069300D02*
X28710100Y-44821600D01*
X30957800Y-50212600D02*
X30957800Y-47069300D01*
X17645200Y-32338300D02*
X16850700Y-32338300D01*
X48789200Y-55368300D02*
X45959400Y-52538500D01*
X26042400Y-44821600D02*
X19161700Y-37940900D01*
X15931500Y-31419100D02*
X15931500Y-29588500D01*
X33283700Y-52538500D02*
X30957800Y-50212600D01*
X28710100Y-44821600D02*
X26042400Y-44821600D01*
%TO.N,AD4*%
X30359600Y-47039100D02*
X28543800Y-45223300D01*
X49045600Y-55970000D02*
X48700200Y-55970000D01*
X46744400Y-54014200D02*
X38730700Y-54014200D01*
X28543800Y-45223300D02*
X23765800Y-45223300D01*
X23765800Y-45223300D02*
X22279800Y-43737300D01*
X37757600Y-54987300D02*
X34369800Y-54987300D01*
X29706400Y-49627800D02*
X30359600Y-48974600D01*
X34369800Y-54987300D02*
X29706400Y-50323900D01*
X30359600Y-48974600D02*
X30359600Y-47039100D01*
X29706400Y-50323900D02*
X29706400Y-49627800D01*
X38730700Y-54014200D02*
X37757600Y-54987300D01*
X48700200Y-55970000D02*
X46744400Y-54014200D01*
%TO.N,AD5*%
X34246700Y-68063400D02*
X29493800Y-63310500D01*
X41386700Y-68063400D02*
X34246700Y-68063400D01*
X29493800Y-63310500D02*
X29493800Y-56183500D01*
X49223200Y-63732300D02*
X47745500Y-65210000D01*
X47745500Y-65210000D02*
X44240100Y-65210000D01*
X29092100Y-55781800D02*
X29092100Y-55304000D01*
X29092100Y-55304000D02*
X18831000Y-45042900D01*
X44240100Y-65210000D02*
X41386700Y-68063400D01*
X29493800Y-56183500D02*
X29092100Y-55781800D01*
%TO.N,AD6*%
X40233100Y-59780000D02*
X52230000Y-59780000D01*
X38388900Y-59780000D02*
X38651800Y-60042900D01*
X17110000Y-39434800D02*
X22476300Y-44801100D01*
X17110000Y-38570000D02*
X17110000Y-39434800D01*
X35957000Y-59780000D02*
X38388900Y-59780000D01*
X29292600Y-54368500D02*
X30297200Y-55373100D01*
X39970200Y-60042900D02*
X40233100Y-59780000D01*
X30297200Y-55373100D02*
X30297200Y-55925900D01*
X29957900Y-47205400D02*
X29957900Y-48808200D01*
X34413000Y-60041700D02*
X35695300Y-60041700D01*
X35695300Y-60041700D02*
X35957000Y-59780000D01*
X22476300Y-44801100D02*
X23300200Y-45625000D01*
X38651800Y-60042900D02*
X39970200Y-60042900D01*
X30297200Y-55925900D02*
X34413000Y-60041700D01*
X23300200Y-45625000D02*
X28377500Y-45625000D01*
X29292600Y-49473500D02*
X29292600Y-54368500D01*
X29957900Y-48808200D02*
X29292600Y-49473500D01*
X28377500Y-45625000D02*
X29957900Y-47205400D01*
%TO.N,AD7*%
X16661000Y-47420000D02*
X19141600Y-47420000D01*
X15502400Y-43031800D02*
X15502400Y-46261400D01*
X17110000Y-41110000D02*
X17110000Y-41274400D01*
X17110000Y-41274400D02*
X17184900Y-41349300D01*
X29895500Y-56107400D02*
X31212600Y-57424500D01*
X35367100Y-62581700D02*
X36070600Y-61878200D01*
X36070600Y-61878200D02*
X36070600Y-61159500D01*
X17184900Y-41349300D02*
X17966400Y-41349300D01*
X29556200Y-48442000D02*
X28509500Y-49488700D01*
X31212600Y-57424500D02*
X31212600Y-59467600D01*
X17966400Y-41349300D02*
X22643800Y-46026700D01*
X28509500Y-49488700D02*
X28509500Y-54153400D01*
X29493800Y-55137700D02*
X29493800Y-55615500D01*
X29895500Y-56017200D02*
X29895500Y-56107400D01*
X28509500Y-54153400D02*
X29493800Y-55137700D01*
X36070600Y-61159500D02*
X36994500Y-60235600D01*
X29493800Y-55615500D02*
X29895500Y-56017200D01*
X34326700Y-62581700D02*
X35367100Y-62581700D01*
X28211200Y-46026700D02*
X29556200Y-47371700D01*
X36994500Y-60235600D02*
X38276500Y-60235600D01*
X15502400Y-46261400D02*
X16661000Y-47420000D01*
X22643800Y-46026700D02*
X28211200Y-46026700D01*
X17184900Y-41349300D02*
X15502400Y-43031800D01*
X38276500Y-60235600D02*
X39090900Y-61050000D01*
X39090900Y-61050000D02*
X50325000Y-61050000D01*
X31212600Y-59467600D02*
X34326700Y-62581700D01*
X29556200Y-47371700D02*
X29556200Y-48442000D01*
%TO.N,AD8*%
X38474200Y-62117800D02*
X37226900Y-60870500D01*
X19013900Y-43650000D02*
X22825200Y-47461300D01*
X53067200Y-62117800D02*
X38474200Y-62117800D01*
X54135000Y-61050000D02*
X53067200Y-62117800D01*
X22825200Y-47461300D02*
X28175200Y-47461300D01*
X17110000Y-43650000D02*
X19013900Y-43650000D01*
%TO.N,AD9*%
X22762000Y-46830100D02*
X18416800Y-42484900D01*
X19743400Y-47753700D02*
X17615400Y-49881700D01*
X23247700Y-58327600D02*
X23247700Y-61267100D01*
X15904100Y-43227200D02*
X15904100Y-44984100D01*
X18793100Y-46190000D02*
X19743400Y-47140300D01*
X17615400Y-49881700D02*
X16788500Y-49881700D01*
X16788500Y-49881700D02*
X15933900Y-50736300D01*
X19534800Y-56837400D02*
X21757500Y-56837400D01*
X16646400Y-42484900D02*
X15904100Y-43227200D01*
X28933200Y-47368400D02*
X28394900Y-46830100D01*
X15904100Y-44984100D02*
X17110000Y-46190000D01*
X18416800Y-42484900D02*
X16646400Y-42484900D01*
X17110000Y-46190000D02*
X18793100Y-46190000D01*
X21757500Y-56837400D02*
X23247700Y-58327600D01*
X16646900Y-57520900D02*
X18851300Y-57520900D01*
X18851300Y-57520900D02*
X19534800Y-56837400D01*
X28394900Y-46830100D02*
X22762000Y-46830100D01*
X15933900Y-56807900D02*
X16646900Y-57520900D01*
X15933900Y-50736300D02*
X15933900Y-56807900D01*
X31717300Y-69736700D02*
X47650700Y-69736700D01*
X47650700Y-69736700D02*
X52549200Y-64838200D01*
X28933200Y-47838900D02*
X28933200Y-47368400D01*
X19743400Y-47140300D02*
X19743400Y-47753700D01*
X23247700Y-61267100D02*
X31717300Y-69736700D01*
%TO.N,AD10*%
X26242100Y-58706600D02*
X24632600Y-60316100D01*
X28690400Y-56516100D02*
X28690400Y-57816200D01*
X46834500Y-68477100D02*
X50905600Y-64406000D01*
X24632600Y-60316100D02*
X24632600Y-60845800D01*
X28690400Y-57816200D02*
X27800000Y-58706600D01*
X25649900Y-52997800D02*
X28288700Y-55636600D01*
X27800000Y-58706600D02*
X26242100Y-58706600D01*
X25178200Y-52997800D02*
X25649900Y-52997800D01*
X24632600Y-60845800D02*
X32263900Y-68477100D01*
X32263900Y-68477100D02*
X46834500Y-68477100D01*
X23412000Y-51231600D02*
X25178200Y-52997800D01*
X23373600Y-51270000D02*
X17110000Y-51270000D01*
X28288700Y-56114400D02*
X28690400Y-56516100D01*
X23412000Y-51231600D02*
X23373600Y-51270000D01*
X28288700Y-55636600D02*
X28288700Y-56114400D01*
%TO.N,D0*%
X23007200Y-31915100D02*
X26200000Y-28722300D01*
X33739800Y-27352800D02*
X33952600Y-27140000D01*
X37885600Y-27140000D02*
X38573600Y-26452000D01*
X26647200Y-27352800D02*
X33739800Y-27352800D01*
X26200000Y-27800000D02*
X26647200Y-27352800D01*
X40117300Y-26452000D02*
X40659500Y-25909800D01*
X26200000Y-28722300D02*
X26200000Y-27800000D01*
X23007200Y-33207300D02*
X23007200Y-31915100D01*
X40659500Y-23479500D02*
X40446700Y-23266700D01*
X40659500Y-25909800D02*
X40659500Y-23479500D01*
X38573600Y-26452000D02*
X40117300Y-26452000D01*
X33952600Y-27140000D02*
X37885600Y-27140000D01*
X23007100Y-33207300D02*
X23007200Y-33207300D01*
%TO.N,D1*%
X26343600Y-29171400D02*
X33444200Y-29171400D01*
X38651700Y-33110000D02*
X50325000Y-33110000D01*
X24072200Y-31442800D02*
X26343600Y-29171400D01*
X22326900Y-36056000D02*
X24072200Y-34310700D01*
X24072200Y-34310700D02*
X24072200Y-31442800D01*
X37151900Y-31610200D02*
X38651700Y-33110000D01*
%TO.N,D2*%
X29215400Y-42184400D02*
X33310900Y-42184400D01*
X22299000Y-34884200D02*
X21683700Y-35499500D01*
X21683700Y-35499500D02*
X21683700Y-36267400D01*
X33410200Y-42283700D02*
X45933200Y-42283700D01*
X33310900Y-42184400D02*
X33410200Y-42283700D01*
X45933200Y-42283700D02*
X47930300Y-40286600D01*
X22521500Y-37105200D02*
X24136200Y-37105200D01*
X21683700Y-36267400D02*
X22521500Y-37105200D01*
X24136200Y-37105200D02*
X29215400Y-42184400D01*
%TO.N,D3*%
X34441700Y-34697500D02*
X32778400Y-33034200D01*
X39035000Y-35650000D02*
X38082500Y-34697500D01*
X32778400Y-33034200D02*
X32778400Y-32129100D01*
X38082500Y-34697500D02*
X34441700Y-34697500D01*
X50325000Y-35650000D02*
X39035000Y-35650000D01*
%TO.N,D4*%
X47820000Y-36920000D02*
X46600000Y-38140000D01*
X37089900Y-38140000D02*
X36249900Y-37300000D01*
X52230000Y-36920000D02*
X47820000Y-36920000D01*
X46600000Y-38140000D02*
X37089900Y-38140000D01*
%TO.N,D5*%
X50325000Y-38190000D02*
X49923300Y-38591700D01*
X31782100Y-37393600D02*
X30521100Y-36132600D01*
X49923300Y-38591700D02*
X36690800Y-38591700D01*
X36690800Y-38591700D02*
X35492700Y-37393600D01*
X35492700Y-37393600D02*
X31782100Y-37393600D01*
%TO.N,D6*%
X34141000Y-39735100D02*
X33723500Y-39317600D01*
X52230000Y-39460000D02*
X52101500Y-39331500D01*
X41050900Y-39331500D02*
X40647300Y-39735100D01*
X40647300Y-39735100D02*
X34141000Y-39735100D01*
X52101500Y-39331500D02*
X41050900Y-39331500D01*
%TO.N,D7*%
X50325000Y-40730000D02*
X48222200Y-42832800D01*
X34890000Y-53810000D02*
X33901800Y-53810000D01*
X38818200Y-42832800D02*
X38632000Y-43019000D01*
X33901800Y-53810000D02*
X30356000Y-50264200D01*
X48222200Y-42832800D02*
X38818200Y-42832800D01*
X30356000Y-50264200D02*
X30356000Y-50019800D01*
%TO.N,TRIG_RD*%
X38023500Y-46526400D02*
X43742500Y-46526400D01*
X43742500Y-46526400D02*
X45862500Y-48646400D01*
%TO.N,SDA*%
X29942200Y-37353200D02*
X24473900Y-31884900D01*
X29480800Y-29903100D02*
X29680900Y-30103200D01*
X24473900Y-31884900D02*
X24473900Y-31609100D01*
X33464600Y-40566900D02*
X30250900Y-37353200D01*
X26179900Y-29903100D02*
X29480800Y-29903100D01*
X24473900Y-31609100D02*
X26179900Y-29903100D01*
X34346900Y-40566900D02*
X33464600Y-40566900D01*
X30250900Y-37353200D02*
X29942200Y-37353200D01*
X34890000Y-41110000D02*
X34346900Y-40566900D01*
%TO.N,SCL*%
X41061200Y-26076100D02*
X37364200Y-29773100D01*
X29874600Y-31735300D02*
X29874600Y-36406900D01*
X31836800Y-29773100D02*
X29874600Y-31735300D01*
X37364200Y-29773100D02*
X31836800Y-29773100D01*
X41061200Y-17568100D02*
X41061200Y-26076100D01*
X29874600Y-36406900D02*
X32037700Y-38570000D01*
X39137500Y-15644400D02*
X41061200Y-17568100D01*
X32037700Y-38570000D02*
X34890000Y-38570000D01*
X25198900Y-31735300D02*
X29874600Y-31735300D01*
%TO.N,GP28*%
X52348300Y-14015400D02*
X52348300Y-15563000D01*
X53500000Y-13151700D02*
X53212000Y-13151700D01*
X53500000Y-12000000D02*
X53500000Y-13151700D01*
X34890000Y-33021300D02*
X34890000Y-33490000D01*
X53212000Y-13151700D02*
X52348300Y-14015400D01*
X52348300Y-15563000D02*
X34890000Y-33021300D01*
%TO.N,3V3*%
X11140200Y-19520000D02*
X29880000Y-19520000D01*
X31000000Y-18400000D02*
X32835800Y-18400000D01*
X32835800Y-18400000D02*
X33175000Y-18060800D01*
X40761400Y-10474400D02*
X42071700Y-10474400D01*
X8970100Y-21690100D02*
X11140200Y-19520000D01*
X33175000Y-18060800D02*
X40761400Y-10474400D01*
X29880000Y-19520000D02*
X31000000Y-18400000D01*
%TO.N,+BATT*%
X52635200Y-33278000D02*
X53346800Y-33989600D01*
X53036800Y-35160800D02*
X53036800Y-36094000D01*
X53721200Y-36778400D02*
X54237300Y-36778400D01*
X45153700Y-28371400D02*
X48622300Y-31840000D01*
X54237300Y-36778400D02*
X56040000Y-38581100D01*
X50642600Y-31840000D02*
X52080600Y-33278000D01*
X40421400Y-28371400D02*
X45153700Y-28371400D01*
X52080600Y-33278000D02*
X52635200Y-33278000D01*
X53346800Y-34850800D02*
X53036800Y-35160800D01*
X56040000Y-38581100D02*
X56040000Y-39460000D01*
X48622300Y-31840000D02*
X50642600Y-31840000D01*
X53036800Y-36094000D02*
X53721200Y-36778400D01*
X53346800Y-33989600D02*
X53346800Y-34850800D01*
%TO.N,SD_CS*%
X7750300Y-3967700D02*
X6773700Y-4944300D01*
X36940400Y-3967700D02*
X7750300Y-3967700D01*
X37574700Y-4602000D02*
X36940400Y-3967700D01*
%TO.N,SD_MOSI*%
X8095000Y-4604500D02*
X14316100Y-10825600D01*
X14316100Y-10825600D02*
X37890700Y-10825600D01*
%TO.N,SD_SCK*%
X37685300Y-5203700D02*
X43548800Y-11067200D01*
X36723900Y-4602000D02*
X37325600Y-5203700D01*
X37325600Y-5203700D02*
X37685300Y-5203700D01*
X10295000Y-4602000D02*
X36723900Y-4602000D01*
%TO.N,SD_MISO*%
X17241500Y-9950300D02*
X37893100Y-9950300D01*
X12495000Y-5203800D02*
X17241500Y-9950300D01*
%TO.N,SC_RESET*%
X38517900Y-9654700D02*
X38517900Y-12076000D01*
X37888200Y-9025000D02*
X38517900Y-9654700D01*
X13468800Y-16048700D02*
X9800000Y-19717500D01*
X34545200Y-16048700D02*
X13468800Y-16048700D01*
X38517900Y-12076000D02*
X34545200Y-16048700D01*
%TO.N,+4V7*%
X57103700Y-49179300D02*
X56274500Y-48350100D01*
X22320000Y-74295000D02*
X43943300Y-74295000D01*
X53500000Y-48350000D02*
X54135000Y-48350000D01*
X56040000Y-47080000D02*
X55405000Y-47080000D01*
X56274500Y-48350100D02*
X54135000Y-48350100D01*
X54135000Y-48350100D02*
X54135000Y-48350000D01*
X57103700Y-61134600D02*
X57103700Y-49179300D01*
X55405000Y-47080000D02*
X54135000Y-48350000D01*
X52230000Y-47080000D02*
X53500000Y-48350000D01*
X43943300Y-74295000D02*
X57103700Y-61134600D01*
%TO.N,FGND*%
X55405000Y-44540000D02*
X54135000Y-45810000D01*
X56040000Y-44540000D02*
X55405000Y-44540000D01*
%TD*%
M02*
