%TF.GenerationSoftware,KiCad,Pcbnew,10.0.5*%
%TF.CreationDate,2026-09-21T14:48:14+02:00*%
%TF.ProjectId,PC1500-Pico2W-Dongle,50433135-3030-42d5-9069-636f32572d44,rev?*%
%TF.SameCoordinates,Original*%
%TF.FileFunction,Soldermask,Bot*%
%TF.FilePolarity,Negative*%
%FSLAX46Y46*%
G04 Gerber Fmt 4.6, Leading zero omitted, Abs format (unit mm)*
G04 Created by KiCad (PCBNEW 10.0.5) date 2026-09-21 14:48:14*
%MOMM*%
%LPD*%
G01*
G04 APERTURE LIST*
G04 Aperture macros list*
%AMRoundRect*
0 Rectangle with rounded corners*
0 $1 Rounding radius*
0 $2 $3 $4 $5 $6 $7 $8 $9 X,Y pos of 4 corners*
0 Add a 4 corners polygon primitive as box body*
4,1,4,$2,$3,$4,$5,$6,$7,$8,$9,$2,$3,0*
0 Add four circle primitives for the rounded corners*
1,1,$1+$1,$2,$3*
1,1,$1+$1,$4,$5*
1,1,$1+$1,$6,$7*
1,1,$1+$1,$8,$9*
0 Add four rect primitives between the rounded corners*
20,1,$1+$1,$2,$3,$4,$5,0*
20,1,$1+$1,$4,$5,$6,$7,0*
20,1,$1+$1,$6,$7,$8,$9,0*
20,1,$1+$1,$8,$9,$2,$3,0*%
G04 Aperture macros list end*
%ADD10C,1.700000*%
%ADD11R,1.700000X1.700000*%
%ADD12C,1.524000*%
%ADD13RoundRect,0.100000X0.130000X0.100000X-0.130000X0.100000X-0.130000X-0.100000X0.130000X-0.100000X0*%
%ADD14RoundRect,0.100000X0.100000X-0.130000X0.100000X0.130000X-0.100000X0.130000X-0.100000X-0.130000X0*%
%ADD15RoundRect,0.225000X0.225000X0.250000X-0.225000X0.250000X-0.225000X-0.250000X0.225000X-0.250000X0*%
%ADD16RoundRect,0.100000X-0.100000X0.130000X-0.100000X-0.130000X0.100000X-0.130000X0.100000X0.130000X0*%
%ADD17RoundRect,0.150000X-0.987500X-0.150000X0.987500X-0.150000X0.987500X0.150000X-0.987500X0.150000X0*%
%ADD18RoundRect,0.225000X0.250000X-0.225000X0.250000X0.225000X-0.250000X0.225000X-0.250000X-0.225000X0*%
%ADD19RoundRect,0.250000X0.300000X0.300000X-0.300000X0.300000X-0.300000X-0.300000X0.300000X-0.300000X0*%
%ADD20RoundRect,0.125000X0.687500X0.125000X-0.687500X0.125000X-0.687500X-0.125000X0.687500X-0.125000X0*%
%ADD21RoundRect,0.150000X0.587500X0.150000X-0.587500X0.150000X-0.587500X-0.150000X0.587500X-0.150000X0*%
G04 APERTURE END LIST*
D10*
%TO.C,U1*%
X17110000Y-18250000D03*
X17110000Y-20790000D03*
X17110000Y-23330000D03*
X17110000Y-25870000D03*
X17110000Y-28410000D03*
X17110000Y-30950000D03*
X17110000Y-33490000D03*
X17110000Y-36030000D03*
X17110000Y-38570000D03*
X17110000Y-41110000D03*
X17110000Y-43650000D03*
X17110000Y-46190000D03*
X17110000Y-48730000D03*
X17110000Y-51270000D03*
X17110000Y-53810000D03*
X17110000Y-56350000D03*
X17110000Y-58890000D03*
X17110000Y-61430000D03*
X17110000Y-63970000D03*
X17110000Y-66510000D03*
X34890000Y-66510000D03*
X34890000Y-63970000D03*
X34890000Y-61430000D03*
X34890000Y-58890000D03*
X34890000Y-56350000D03*
X34890000Y-53810000D03*
X34890000Y-51270000D03*
X34890000Y-48730000D03*
X34890000Y-46190000D03*
X34890000Y-43650000D03*
X34890000Y-41110000D03*
X34890000Y-38570000D03*
X34890000Y-36030000D03*
X34890000Y-33490000D03*
X34890000Y-30950000D03*
X34890000Y-28410000D03*
X34890000Y-25870000D03*
X34890000Y-23330000D03*
X34890000Y-20790000D03*
X34890000Y-18250000D03*
%TD*%
D11*
%TO.C,JP3*%
X40605000Y-72595000D03*
D10*
X38065000Y-72595000D03*
%TD*%
D11*
%TO.C,J3*%
X53500000Y-9460000D03*
D10*
X53500000Y-12000000D03*
X53500000Y-14540000D03*
%TD*%
D12*
%TO.C,J1*%
X50325000Y-61050000D03*
X52230000Y-59780000D03*
X50325000Y-58510000D03*
X52230000Y-57240000D03*
X50325000Y-55970000D03*
X52230000Y-54700000D03*
X50325000Y-53430000D03*
X52230000Y-52160000D03*
X50325000Y-50890000D03*
X52230000Y-49620000D03*
X50325000Y-48350000D03*
X52230000Y-47080000D03*
X50325000Y-45810000D03*
X52230000Y-44540000D03*
X50325000Y-43270000D03*
X52230000Y-42000000D03*
X50325000Y-40730000D03*
X52230000Y-39460000D03*
X50325000Y-38190000D03*
X52230000Y-36920000D03*
X50325000Y-35650000D03*
X52230000Y-34380000D03*
X50325000Y-33110000D03*
X52230000Y-31840000D03*
X50325000Y-30570000D03*
X52230000Y-29300000D03*
X50325000Y-28030000D03*
X52230000Y-26760000D03*
X50325000Y-25490000D03*
X52230000Y-24220000D03*
X54135000Y-61050000D03*
X56040000Y-59780000D03*
X54135000Y-58510000D03*
X56040000Y-57240000D03*
X54135000Y-55970000D03*
X56040000Y-54700000D03*
X54135000Y-53430000D03*
X56040000Y-52160000D03*
X54135000Y-50890000D03*
X56040000Y-49620000D03*
X54135000Y-48350000D03*
X56040000Y-47080000D03*
X54135000Y-45810000D03*
X56040000Y-44540000D03*
X54135000Y-43270000D03*
X56040000Y-42000000D03*
X54135000Y-40730000D03*
X56040000Y-39460000D03*
X54135000Y-38190000D03*
X56040000Y-36920000D03*
X54135000Y-35650000D03*
X56040000Y-34380000D03*
X54135000Y-33110000D03*
X56040000Y-31840000D03*
X54135000Y-30570000D03*
X56040000Y-29300000D03*
X54135000Y-28030000D03*
X56040000Y-26760000D03*
X54135000Y-25490000D03*
X56040000Y-24220000D03*
%TD*%
D11*
%TO.C,J5*%
X45800000Y-31860000D03*
D10*
X45800000Y-34400000D03*
X45800000Y-36940000D03*
%TD*%
D13*
%TO.C,R3*%
X30320000Y-75000000D03*
X29680000Y-75000000D03*
%TD*%
D14*
%TO.C,R8*%
X3000000Y-21120000D03*
X3000000Y-20480000D03*
%TD*%
D13*
%TO.C,R13*%
X31720000Y-29200000D03*
X31080000Y-29200000D03*
%TD*%
D11*
%TO.C,SDA1*%
X40000000Y-64000000D03*
D10*
X40000000Y-66540000D03*
%TD*%
D15*
%TO.C,C7*%
X33175000Y-20000000D03*
X31625000Y-20000000D03*
%TD*%
D11*
%TO.C,SCL1*%
X46000000Y-64000000D03*
D10*
X46000000Y-66540000D03*
%TD*%
D16*
%TO.C,R10*%
X4400000Y-20480000D03*
X4400000Y-21120000D03*
%TD*%
D14*
%TO.C,R6*%
X6900000Y-21120000D03*
X6900000Y-20480000D03*
%TD*%
D17*
%TO.C,U2*%
X20837500Y-49455000D03*
X20837500Y-48185000D03*
X20837500Y-46915000D03*
X20837500Y-45645000D03*
X20837500Y-44375000D03*
X20837500Y-43105000D03*
X20837500Y-41835000D03*
X20837500Y-40565000D03*
X20837500Y-39295000D03*
X20837500Y-38025000D03*
X20837500Y-36755000D03*
X20837500Y-35485000D03*
X20837500Y-34215000D03*
X20837500Y-32945000D03*
X31962500Y-32945000D03*
X31962500Y-34215000D03*
X31962500Y-35485000D03*
X31962500Y-36755000D03*
X31962500Y-38025000D03*
X31962500Y-39295000D03*
X31962500Y-40565000D03*
X31962500Y-41835000D03*
X31962500Y-43105000D03*
X31962500Y-44375000D03*
X31962500Y-45645000D03*
X31962500Y-46915000D03*
X31962500Y-48185000D03*
X31962500Y-49455000D03*
%TD*%
D18*
%TO.C,C8*%
X32000000Y-27775000D03*
X32000000Y-26225000D03*
%TD*%
D15*
%TO.C,C3*%
X23175000Y-24200000D03*
X21625000Y-24200000D03*
%TD*%
D19*
%TO.C,D1*%
X49400000Y-70000000D03*
X46600000Y-70000000D03*
%TD*%
D20*
%TO.C,U8*%
X28912500Y-27025000D03*
X28912500Y-27675000D03*
X28912500Y-28325000D03*
X28912500Y-28975000D03*
X24687500Y-28975000D03*
X24687500Y-28325000D03*
X24687500Y-27675000D03*
X24687500Y-27025000D03*
%TD*%
D13*
%TO.C,R14*%
X26720000Y-30600000D03*
X26080000Y-30600000D03*
%TD*%
D21*
%TO.C,Q2*%
X30937500Y-70050000D03*
X30937500Y-71950000D03*
X29062500Y-71000000D03*
%TD*%
%TO.C,Q1*%
X14937500Y-70050000D03*
X14937500Y-71950000D03*
X13062500Y-71000000D03*
%TD*%
D13*
%TO.C,R4*%
X22320000Y-75000000D03*
X21680000Y-75000000D03*
%TD*%
D14*
%TO.C,R5*%
X5400000Y-21120000D03*
X5400000Y-20480000D03*
%TD*%
%TO.C,R9*%
X9800000Y-21120000D03*
X9800000Y-20480000D03*
%TD*%
%TO.C,R7*%
X8400000Y-21120000D03*
X8400000Y-20480000D03*
%TD*%
M02*
