%TF.GenerationSoftware,KiCad,Pcbnew,10.0.5*%
%TF.CreationDate,2026-09-21T14:48:14+02:00*%
%TF.ProjectId,PC1500-Pico2W-Dongle,50433135-3030-42d5-9069-636f32572d44,rev?*%
%TF.SameCoordinates,Original*%
%TF.FileFunction,Soldermask,Top*%
%TF.FilePolarity,Negative*%
%FSLAX46Y46*%
G04 Gerber Fmt 4.6, Leading zero omitted, Abs format (unit mm)*
G04 Created by KiCad (PCBNEW 10.0.5) date 2026-09-21 14:48:14*
%MOMM*%
%LPD*%
G01*
G04 APERTURE LIST*
G04 Aperture macros list*
%AMRoundRect*
0 Rectangle with rounded corners*
0 $1 Rounding radius*
0 $2 $3 $4 $5 $6 $7 $8 $9 X,Y pos of 4 corners*
0 Add a 4 corners polygon primitive as box body*
4,1,4,$2,$3,$4,$5,$6,$7,$8,$9,$2,$3,0*
0 Add four circle primitives for the rounded corners*
1,1,$1+$1,$2,$3*
1,1,$1+$1,$4,$5*
1,1,$1+$1,$6,$7*
1,1,$1+$1,$8,$9*
0 Add four rect primitives between the rounded corners*
20,1,$1+$1,$2,$3,$4,$5,0*
20,1,$1+$1,$4,$5,$6,$7,0*
20,1,$1+$1,$6,$7,$8,$9,0*
20,1,$1+$1,$8,$9,$2,$3,0*%
G04 Aperture macros list end*
%ADD10RoundRect,0.100000X-0.637500X-0.100000X0.637500X-0.100000X0.637500X0.100000X-0.637500X0.100000X0*%
%ADD11C,1.700000*%
%ADD12RoundRect,0.100000X-0.130000X-0.100000X0.130000X-0.100000X0.130000X0.100000X-0.130000X0.100000X0*%
%ADD13R,1.700000X1.700000*%
%ADD14RoundRect,0.225000X-0.225000X-0.250000X0.225000X-0.250000X0.225000X0.250000X-0.225000X0.250000X0*%
%ADD15RoundRect,0.225000X-0.250000X0.225000X-0.250000X-0.225000X0.250000X-0.225000X0.250000X0.225000X0*%
%ADD16RoundRect,0.375000X-0.625000X-0.375000X0.625000X-0.375000X0.625000X0.375000X-0.625000X0.375000X0*%
%ADD17RoundRect,0.500000X-0.500000X-1.400000X0.500000X-1.400000X0.500000X1.400000X-0.500000X1.400000X0*%
%ADD18R,0.850000X1.100000*%
%ADD19R,0.750000X1.100000*%
%ADD20R,1.200000X1.000000*%
%ADD21R,1.550000X1.350000*%
%ADD22R,1.900000X1.350000*%
%ADD23R,1.170000X1.800000*%
%ADD24RoundRect,0.100000X0.130000X0.100000X-0.130000X0.100000X-0.130000X-0.100000X0.130000X-0.100000X0*%
%ADD25C,1.524000*%
G04 APERTURE END LIST*
D10*
%TO.C,U3*%
X23537500Y-56075000D03*
X23537500Y-56725000D03*
X23537500Y-57375000D03*
X23537500Y-58025000D03*
X23537500Y-58675000D03*
X23537500Y-59325000D03*
X23537500Y-59975000D03*
X23537500Y-60625000D03*
X23537500Y-61275000D03*
X23537500Y-61925000D03*
X29262500Y-61925000D03*
X29262500Y-61275000D03*
X29262500Y-60625000D03*
X29262500Y-59975000D03*
X29262500Y-59325000D03*
X29262500Y-58675000D03*
X29262500Y-58025000D03*
X29262500Y-57375000D03*
X29262500Y-56725000D03*
X29262500Y-56075000D03*
%TD*%
D11*
%TO.C,U1*%
X17110000Y-18250000D03*
X17110000Y-20790000D03*
X17110000Y-23330000D03*
X17110000Y-25870000D03*
X17110000Y-28410000D03*
X17110000Y-30950000D03*
X17110000Y-33490000D03*
X17110000Y-36030000D03*
X17110000Y-38570000D03*
X17110000Y-41110000D03*
X17110000Y-43650000D03*
X17110000Y-46190000D03*
X17110000Y-48730000D03*
X17110000Y-51270000D03*
X17110000Y-53810000D03*
X17110000Y-56350000D03*
X17110000Y-58890000D03*
X17110000Y-61430000D03*
X17110000Y-63970000D03*
X17110000Y-66510000D03*
X34890000Y-66510000D03*
X34890000Y-63970000D03*
X34890000Y-61430000D03*
X34890000Y-58890000D03*
X34890000Y-56350000D03*
X34890000Y-53810000D03*
X34890000Y-51270000D03*
X34890000Y-48730000D03*
X34890000Y-46190000D03*
X34890000Y-43650000D03*
X34890000Y-41110000D03*
X34890000Y-38570000D03*
X34890000Y-36030000D03*
X34890000Y-33490000D03*
X34890000Y-30950000D03*
X34890000Y-28410000D03*
X34890000Y-25870000D03*
X34890000Y-23330000D03*
X34890000Y-20790000D03*
X34890000Y-18250000D03*
%TD*%
D12*
%TO.C,R2*%
X41680000Y-38700000D03*
X42320000Y-38700000D03*
%TD*%
D13*
%TO.C,JP3*%
X40605000Y-72595000D03*
D11*
X38065000Y-72595000D03*
%TD*%
D13*
%TO.C,J3*%
X53500000Y-9460000D03*
D11*
X53500000Y-12000000D03*
X53500000Y-14540000D03*
%TD*%
D14*
%TO.C,C6*%
X41425000Y-14200000D03*
X42975000Y-14200000D03*
%TD*%
D15*
%TO.C,C1*%
X38800000Y-29825000D03*
X38800000Y-31375000D03*
%TD*%
D16*
%TO.C,U7*%
X38850000Y-22200000D03*
X38850000Y-24500000D03*
D17*
X45150000Y-24500000D03*
D16*
X38850000Y-26800000D03*
%TD*%
D12*
%TO.C,R1*%
X41080000Y-36500000D03*
X41720000Y-36500000D03*
%TD*%
D18*
%TO.C,J2*%
X5895000Y-3550000D03*
X6995000Y-3550000D03*
X8095000Y-3550000D03*
X9195000Y-3550000D03*
X10295000Y-3550000D03*
X11395000Y-3550000D03*
X12495000Y-3550000D03*
D19*
X13545000Y-3550000D03*
D20*
X3260000Y-9700000D03*
X3260000Y-13400000D03*
D21*
X3435000Y-3675000D03*
D22*
X6760000Y-14375000D03*
X12730000Y-14375000D03*
D23*
X14755000Y-3900000D03*
%TD*%
D14*
%TO.C,C4*%
X24225000Y-70000000D03*
X25775000Y-70000000D03*
%TD*%
D10*
%TO.C,U5*%
X39137500Y-7725000D03*
X39137500Y-8375000D03*
X39137500Y-9025000D03*
X39137500Y-9675000D03*
X39137500Y-10325000D03*
X39137500Y-10975000D03*
X39137500Y-11625000D03*
X39137500Y-12275000D03*
X44862500Y-12275000D03*
X44862500Y-11625000D03*
X44862500Y-10975000D03*
X44862500Y-10325000D03*
X44862500Y-9675000D03*
X44862500Y-9025000D03*
X44862500Y-8375000D03*
X44862500Y-7725000D03*
%TD*%
D14*
%TO.C,C2*%
X45225000Y-19200000D03*
X46775000Y-19200000D03*
%TD*%
D10*
%TO.C,U4*%
X40137500Y-42075000D03*
X40137500Y-42725000D03*
X40137500Y-43375000D03*
X40137500Y-44025000D03*
X40137500Y-44675000D03*
X40137500Y-45325000D03*
X40137500Y-45975000D03*
X40137500Y-46625000D03*
X40137500Y-47275000D03*
X40137500Y-47925000D03*
X45862500Y-47925000D03*
X45862500Y-47275000D03*
X45862500Y-46625000D03*
X45862500Y-45975000D03*
X45862500Y-45325000D03*
X45862500Y-44675000D03*
X45862500Y-44025000D03*
X45862500Y-43375000D03*
X45862500Y-42725000D03*
X45862500Y-42075000D03*
%TD*%
D24*
%TO.C,R11*%
X42720000Y-59450000D03*
X42080000Y-59450000D03*
%TD*%
D15*
%TO.C,C5*%
X37000000Y-46225000D03*
X37000000Y-47775000D03*
%TD*%
D25*
%TO.C,J1*%
X50325000Y-61050000D03*
X52230000Y-59780000D03*
X50325000Y-58510000D03*
X52230000Y-57240000D03*
X50325000Y-55970000D03*
X52230000Y-54700000D03*
X50325000Y-53430000D03*
X52230000Y-52160000D03*
X50325000Y-50890000D03*
X52230000Y-49620000D03*
X50325000Y-48350000D03*
X52230000Y-47080000D03*
X50325000Y-45810000D03*
X52230000Y-44540000D03*
X50325000Y-43270000D03*
X52230000Y-42000000D03*
X50325000Y-40730000D03*
X52230000Y-39460000D03*
X50325000Y-38190000D03*
X52230000Y-36920000D03*
X50325000Y-35650000D03*
X52230000Y-34380000D03*
X50325000Y-33110000D03*
X52230000Y-31840000D03*
X50325000Y-30570000D03*
X52230000Y-29300000D03*
X50325000Y-28030000D03*
X52230000Y-26760000D03*
X50325000Y-25490000D03*
X52230000Y-24220000D03*
X54135000Y-61050000D03*
X56040000Y-59780000D03*
X54135000Y-58510000D03*
X56040000Y-57240000D03*
X54135000Y-55970000D03*
X56040000Y-54700000D03*
X54135000Y-53430000D03*
X56040000Y-52160000D03*
X54135000Y-50890000D03*
X56040000Y-49620000D03*
X54135000Y-48350000D03*
X56040000Y-47080000D03*
X54135000Y-45810000D03*
X56040000Y-44540000D03*
X54135000Y-43270000D03*
X56040000Y-42000000D03*
X54135000Y-40730000D03*
X56040000Y-39460000D03*
X54135000Y-38190000D03*
X56040000Y-36920000D03*
X54135000Y-35650000D03*
X56040000Y-34380000D03*
X54135000Y-33110000D03*
X56040000Y-31840000D03*
X54135000Y-30570000D03*
X56040000Y-29300000D03*
X54135000Y-28030000D03*
X56040000Y-26760000D03*
X54135000Y-25490000D03*
X56040000Y-24220000D03*
%TD*%
D12*
%TO.C,R12*%
X42680000Y-61200000D03*
X43320000Y-61200000D03*
%TD*%
D13*
%TO.C,J5*%
X45800000Y-31860000D03*
D11*
X45800000Y-34400000D03*
X45800000Y-36940000D03*
%TD*%
D13*
%TO.C,SDA1*%
X40000000Y-64000000D03*
D11*
X40000000Y-66540000D03*
%TD*%
D13*
%TO.C,SCL1*%
X46000000Y-64000000D03*
D11*
X46000000Y-66540000D03*
%TD*%
M02*
