%TF.GenerationSoftware,KiCad,Pcbnew,10.0.5*%
%TF.CreationDate,2026-09-21T14:48:14+02:00*%
%TF.ProjectId,PC1500-Pico2W-Dongle,50433135-3030-42d5-9069-636f32572d44,rev?*%
%TF.SameCoordinates,Original*%
%TF.FileFunction,Legend,Bot*%
%TF.FilePolarity,Positive*%
%FSLAX46Y46*%
G04 Gerber Fmt 4.6, Leading zero omitted, Abs format (unit mm)*
G04 Created by KiCad (PCBNEW 10.0.5) date 2026-09-21 14:48:14*
%MOMM*%
%LPD*%
G01*
G04 APERTURE LIST*
%ADD10C,0.150000*%
%ADD11C,0.120000*%
G04 APERTURE END LIST*
D10*
X30166666Y-74404819D02*
X30499999Y-73928628D01*
X30738094Y-74404819D02*
X30738094Y-73404819D01*
X30738094Y-73404819D02*
X30357142Y-73404819D01*
X30357142Y-73404819D02*
X30261904Y-73452438D01*
X30261904Y-73452438D02*
X30214285Y-73500057D01*
X30214285Y-73500057D02*
X30166666Y-73595295D01*
X30166666Y-73595295D02*
X30166666Y-73738152D01*
X30166666Y-73738152D02*
X30214285Y-73833390D01*
X30214285Y-73833390D02*
X30261904Y-73881009D01*
X30261904Y-73881009D02*
X30357142Y-73928628D01*
X30357142Y-73928628D02*
X30738094Y-73928628D01*
X29833332Y-73404819D02*
X29214285Y-73404819D01*
X29214285Y-73404819D02*
X29547618Y-73785771D01*
X29547618Y-73785771D02*
X29404761Y-73785771D01*
X29404761Y-73785771D02*
X29309523Y-73833390D01*
X29309523Y-73833390D02*
X29261904Y-73881009D01*
X29261904Y-73881009D02*
X29214285Y-73976247D01*
X29214285Y-73976247D02*
X29214285Y-74214342D01*
X29214285Y-74214342D02*
X29261904Y-74309580D01*
X29261904Y-74309580D02*
X29309523Y-74357200D01*
X29309523Y-74357200D02*
X29404761Y-74404819D01*
X29404761Y-74404819D02*
X29690475Y-74404819D01*
X29690475Y-74404819D02*
X29785713Y-74357200D01*
X29785713Y-74357200D02*
X29833332Y-74309580D01*
X4504819Y-20633333D02*
X4028628Y-20300000D01*
X4504819Y-20061905D02*
X3504819Y-20061905D01*
X3504819Y-20061905D02*
X3504819Y-20442857D01*
X3504819Y-20442857D02*
X3552438Y-20538095D01*
X3552438Y-20538095D02*
X3600057Y-20585714D01*
X3600057Y-20585714D02*
X3695295Y-20633333D01*
X3695295Y-20633333D02*
X3838152Y-20633333D01*
X3838152Y-20633333D02*
X3933390Y-20585714D01*
X3933390Y-20585714D02*
X3981009Y-20538095D01*
X3981009Y-20538095D02*
X4028628Y-20442857D01*
X4028628Y-20442857D02*
X4028628Y-20061905D01*
X3933390Y-21204762D02*
X3885771Y-21109524D01*
X3885771Y-21109524D02*
X3838152Y-21061905D01*
X3838152Y-21061905D02*
X3742914Y-21014286D01*
X3742914Y-21014286D02*
X3695295Y-21014286D01*
X3695295Y-21014286D02*
X3600057Y-21061905D01*
X3600057Y-21061905D02*
X3552438Y-21109524D01*
X3552438Y-21109524D02*
X3504819Y-21204762D01*
X3504819Y-21204762D02*
X3504819Y-21395238D01*
X3504819Y-21395238D02*
X3552438Y-21490476D01*
X3552438Y-21490476D02*
X3600057Y-21538095D01*
X3600057Y-21538095D02*
X3695295Y-21585714D01*
X3695295Y-21585714D02*
X3742914Y-21585714D01*
X3742914Y-21585714D02*
X3838152Y-21538095D01*
X3838152Y-21538095D02*
X3885771Y-21490476D01*
X3885771Y-21490476D02*
X3933390Y-21395238D01*
X3933390Y-21395238D02*
X3933390Y-21204762D01*
X3933390Y-21204762D02*
X3981009Y-21109524D01*
X3981009Y-21109524D02*
X4028628Y-21061905D01*
X4028628Y-21061905D02*
X4123866Y-21014286D01*
X4123866Y-21014286D02*
X4314342Y-21014286D01*
X4314342Y-21014286D02*
X4409580Y-21061905D01*
X4409580Y-21061905D02*
X4457200Y-21109524D01*
X4457200Y-21109524D02*
X4504819Y-21204762D01*
X4504819Y-21204762D02*
X4504819Y-21395238D01*
X4504819Y-21395238D02*
X4457200Y-21490476D01*
X4457200Y-21490476D02*
X4409580Y-21538095D01*
X4409580Y-21538095D02*
X4314342Y-21585714D01*
X4314342Y-21585714D02*
X4123866Y-21585714D01*
X4123866Y-21585714D02*
X4028628Y-21538095D01*
X4028628Y-21538095D02*
X3981009Y-21490476D01*
X3981009Y-21490476D02*
X3933390Y-21395238D01*
X32042857Y-28604819D02*
X32376190Y-28128628D01*
X32614285Y-28604819D02*
X32614285Y-27604819D01*
X32614285Y-27604819D02*
X32233333Y-27604819D01*
X32233333Y-27604819D02*
X32138095Y-27652438D01*
X32138095Y-27652438D02*
X32090476Y-27700057D01*
X32090476Y-27700057D02*
X32042857Y-27795295D01*
X32042857Y-27795295D02*
X32042857Y-27938152D01*
X32042857Y-27938152D02*
X32090476Y-28033390D01*
X32090476Y-28033390D02*
X32138095Y-28081009D01*
X32138095Y-28081009D02*
X32233333Y-28128628D01*
X32233333Y-28128628D02*
X32614285Y-28128628D01*
X31090476Y-28604819D02*
X31661904Y-28604819D01*
X31376190Y-28604819D02*
X31376190Y-27604819D01*
X31376190Y-27604819D02*
X31471428Y-27747676D01*
X31471428Y-27747676D02*
X31566666Y-27842914D01*
X31566666Y-27842914D02*
X31661904Y-27890533D01*
X30757142Y-27604819D02*
X30138095Y-27604819D01*
X30138095Y-27604819D02*
X30471428Y-27985771D01*
X30471428Y-27985771D02*
X30328571Y-27985771D01*
X30328571Y-27985771D02*
X30233333Y-28033390D01*
X30233333Y-28033390D02*
X30185714Y-28081009D01*
X30185714Y-28081009D02*
X30138095Y-28176247D01*
X30138095Y-28176247D02*
X30138095Y-28414342D01*
X30138095Y-28414342D02*
X30185714Y-28509580D01*
X30185714Y-28509580D02*
X30233333Y-28557200D01*
X30233333Y-28557200D02*
X30328571Y-28604819D01*
X30328571Y-28604819D02*
X30614285Y-28604819D01*
X30614285Y-28604819D02*
X30709523Y-28557200D01*
X30709523Y-28557200D02*
X30757142Y-28509580D01*
X41690475Y-62027200D02*
X41547618Y-62074819D01*
X41547618Y-62074819D02*
X41309523Y-62074819D01*
X41309523Y-62074819D02*
X41214285Y-62027200D01*
X41214285Y-62027200D02*
X41166666Y-61979580D01*
X41166666Y-61979580D02*
X41119047Y-61884342D01*
X41119047Y-61884342D02*
X41119047Y-61789104D01*
X41119047Y-61789104D02*
X41166666Y-61693866D01*
X41166666Y-61693866D02*
X41214285Y-61646247D01*
X41214285Y-61646247D02*
X41309523Y-61598628D01*
X41309523Y-61598628D02*
X41499999Y-61551009D01*
X41499999Y-61551009D02*
X41595237Y-61503390D01*
X41595237Y-61503390D02*
X41642856Y-61455771D01*
X41642856Y-61455771D02*
X41690475Y-61360533D01*
X41690475Y-61360533D02*
X41690475Y-61265295D01*
X41690475Y-61265295D02*
X41642856Y-61170057D01*
X41642856Y-61170057D02*
X41595237Y-61122438D01*
X41595237Y-61122438D02*
X41499999Y-61074819D01*
X41499999Y-61074819D02*
X41261904Y-61074819D01*
X41261904Y-61074819D02*
X41119047Y-61122438D01*
X40690475Y-62074819D02*
X40690475Y-61074819D01*
X40690475Y-61074819D02*
X40452380Y-61074819D01*
X40452380Y-61074819D02*
X40309523Y-61122438D01*
X40309523Y-61122438D02*
X40214285Y-61217676D01*
X40214285Y-61217676D02*
X40166666Y-61312914D01*
X40166666Y-61312914D02*
X40119047Y-61503390D01*
X40119047Y-61503390D02*
X40119047Y-61646247D01*
X40119047Y-61646247D02*
X40166666Y-61836723D01*
X40166666Y-61836723D02*
X40214285Y-61931961D01*
X40214285Y-61931961D02*
X40309523Y-62027200D01*
X40309523Y-62027200D02*
X40452380Y-62074819D01*
X40452380Y-62074819D02*
X40690475Y-62074819D01*
X39738094Y-61789104D02*
X39261904Y-61789104D01*
X39833332Y-62074819D02*
X39499999Y-61074819D01*
X39499999Y-61074819D02*
X39166666Y-62074819D01*
X38309523Y-62074819D02*
X38880951Y-62074819D01*
X38595237Y-62074819D02*
X38595237Y-61074819D01*
X38595237Y-61074819D02*
X38690475Y-61217676D01*
X38690475Y-61217676D02*
X38785713Y-61312914D01*
X38785713Y-61312914D02*
X38880951Y-61360533D01*
X32566666Y-18929580D02*
X32614285Y-18977200D01*
X32614285Y-18977200D02*
X32757142Y-19024819D01*
X32757142Y-19024819D02*
X32852380Y-19024819D01*
X32852380Y-19024819D02*
X32995237Y-18977200D01*
X32995237Y-18977200D02*
X33090475Y-18881961D01*
X33090475Y-18881961D02*
X33138094Y-18786723D01*
X33138094Y-18786723D02*
X33185713Y-18596247D01*
X33185713Y-18596247D02*
X33185713Y-18453390D01*
X33185713Y-18453390D02*
X33138094Y-18262914D01*
X33138094Y-18262914D02*
X33090475Y-18167676D01*
X33090475Y-18167676D02*
X32995237Y-18072438D01*
X32995237Y-18072438D02*
X32852380Y-18024819D01*
X32852380Y-18024819D02*
X32757142Y-18024819D01*
X32757142Y-18024819D02*
X32614285Y-18072438D01*
X32614285Y-18072438D02*
X32566666Y-18120057D01*
X32233332Y-18024819D02*
X31566666Y-18024819D01*
X31566666Y-18024819D02*
X31995237Y-19024819D01*
X47666666Y-62027200D02*
X47523809Y-62074819D01*
X47523809Y-62074819D02*
X47285714Y-62074819D01*
X47285714Y-62074819D02*
X47190476Y-62027200D01*
X47190476Y-62027200D02*
X47142857Y-61979580D01*
X47142857Y-61979580D02*
X47095238Y-61884342D01*
X47095238Y-61884342D02*
X47095238Y-61789104D01*
X47095238Y-61789104D02*
X47142857Y-61693866D01*
X47142857Y-61693866D02*
X47190476Y-61646247D01*
X47190476Y-61646247D02*
X47285714Y-61598628D01*
X47285714Y-61598628D02*
X47476190Y-61551009D01*
X47476190Y-61551009D02*
X47571428Y-61503390D01*
X47571428Y-61503390D02*
X47619047Y-61455771D01*
X47619047Y-61455771D02*
X47666666Y-61360533D01*
X47666666Y-61360533D02*
X47666666Y-61265295D01*
X47666666Y-61265295D02*
X47619047Y-61170057D01*
X47619047Y-61170057D02*
X47571428Y-61122438D01*
X47571428Y-61122438D02*
X47476190Y-61074819D01*
X47476190Y-61074819D02*
X47238095Y-61074819D01*
X47238095Y-61074819D02*
X47095238Y-61122438D01*
X46095238Y-61979580D02*
X46142857Y-62027200D01*
X46142857Y-62027200D02*
X46285714Y-62074819D01*
X46285714Y-62074819D02*
X46380952Y-62074819D01*
X46380952Y-62074819D02*
X46523809Y-62027200D01*
X46523809Y-62027200D02*
X46619047Y-61931961D01*
X46619047Y-61931961D02*
X46666666Y-61836723D01*
X46666666Y-61836723D02*
X46714285Y-61646247D01*
X46714285Y-61646247D02*
X46714285Y-61503390D01*
X46714285Y-61503390D02*
X46666666Y-61312914D01*
X46666666Y-61312914D02*
X46619047Y-61217676D01*
X46619047Y-61217676D02*
X46523809Y-61122438D01*
X46523809Y-61122438D02*
X46380952Y-61074819D01*
X46380952Y-61074819D02*
X46285714Y-61074819D01*
X46285714Y-61074819D02*
X46142857Y-61122438D01*
X46142857Y-61122438D02*
X46095238Y-61170057D01*
X45190476Y-62074819D02*
X45666666Y-62074819D01*
X45666666Y-62074819D02*
X45666666Y-61074819D01*
X44333333Y-62074819D02*
X44904761Y-62074819D01*
X44619047Y-62074819D02*
X44619047Y-61074819D01*
X44619047Y-61074819D02*
X44714285Y-61217676D01*
X44714285Y-61217676D02*
X44809523Y-61312914D01*
X44809523Y-61312914D02*
X44904761Y-61360533D01*
X3804819Y-20157142D02*
X3328628Y-19823809D01*
X3804819Y-19585714D02*
X2804819Y-19585714D01*
X2804819Y-19585714D02*
X2804819Y-19966666D01*
X2804819Y-19966666D02*
X2852438Y-20061904D01*
X2852438Y-20061904D02*
X2900057Y-20109523D01*
X2900057Y-20109523D02*
X2995295Y-20157142D01*
X2995295Y-20157142D02*
X3138152Y-20157142D01*
X3138152Y-20157142D02*
X3233390Y-20109523D01*
X3233390Y-20109523D02*
X3281009Y-20061904D01*
X3281009Y-20061904D02*
X3328628Y-19966666D01*
X3328628Y-19966666D02*
X3328628Y-19585714D01*
X3804819Y-21109523D02*
X3804819Y-20538095D01*
X3804819Y-20823809D02*
X2804819Y-20823809D01*
X2804819Y-20823809D02*
X2947676Y-20728571D01*
X2947676Y-20728571D02*
X3042914Y-20633333D01*
X3042914Y-20633333D02*
X3090533Y-20538095D01*
X2804819Y-21728571D02*
X2804819Y-21823809D01*
X2804819Y-21823809D02*
X2852438Y-21919047D01*
X2852438Y-21919047D02*
X2900057Y-21966666D01*
X2900057Y-21966666D02*
X2995295Y-22014285D01*
X2995295Y-22014285D02*
X3185771Y-22061904D01*
X3185771Y-22061904D02*
X3423866Y-22061904D01*
X3423866Y-22061904D02*
X3614342Y-22014285D01*
X3614342Y-22014285D02*
X3709580Y-21966666D01*
X3709580Y-21966666D02*
X3757200Y-21919047D01*
X3757200Y-21919047D02*
X3804819Y-21823809D01*
X3804819Y-21823809D02*
X3804819Y-21728571D01*
X3804819Y-21728571D02*
X3757200Y-21633333D01*
X3757200Y-21633333D02*
X3709580Y-21585714D01*
X3709580Y-21585714D02*
X3614342Y-21538095D01*
X3614342Y-21538095D02*
X3423866Y-21490476D01*
X3423866Y-21490476D02*
X3185771Y-21490476D01*
X3185771Y-21490476D02*
X2995295Y-21538095D01*
X2995295Y-21538095D02*
X2900057Y-21585714D01*
X2900057Y-21585714D02*
X2852438Y-21633333D01*
X2852438Y-21633333D02*
X2804819Y-21728571D01*
X8404819Y-20633333D02*
X7928628Y-20300000D01*
X8404819Y-20061905D02*
X7404819Y-20061905D01*
X7404819Y-20061905D02*
X7404819Y-20442857D01*
X7404819Y-20442857D02*
X7452438Y-20538095D01*
X7452438Y-20538095D02*
X7500057Y-20585714D01*
X7500057Y-20585714D02*
X7595295Y-20633333D01*
X7595295Y-20633333D02*
X7738152Y-20633333D01*
X7738152Y-20633333D02*
X7833390Y-20585714D01*
X7833390Y-20585714D02*
X7881009Y-20538095D01*
X7881009Y-20538095D02*
X7928628Y-20442857D01*
X7928628Y-20442857D02*
X7928628Y-20061905D01*
X7404819Y-21490476D02*
X7404819Y-21300000D01*
X7404819Y-21300000D02*
X7452438Y-21204762D01*
X7452438Y-21204762D02*
X7500057Y-21157143D01*
X7500057Y-21157143D02*
X7642914Y-21061905D01*
X7642914Y-21061905D02*
X7833390Y-21014286D01*
X7833390Y-21014286D02*
X8214342Y-21014286D01*
X8214342Y-21014286D02*
X8309580Y-21061905D01*
X8309580Y-21061905D02*
X8357200Y-21109524D01*
X8357200Y-21109524D02*
X8404819Y-21204762D01*
X8404819Y-21204762D02*
X8404819Y-21395238D01*
X8404819Y-21395238D02*
X8357200Y-21490476D01*
X8357200Y-21490476D02*
X8309580Y-21538095D01*
X8309580Y-21538095D02*
X8214342Y-21585714D01*
X8214342Y-21585714D02*
X7976247Y-21585714D01*
X7976247Y-21585714D02*
X7881009Y-21538095D01*
X7881009Y-21538095D02*
X7833390Y-21490476D01*
X7833390Y-21490476D02*
X7785771Y-21395238D01*
X7785771Y-21395238D02*
X7785771Y-21204762D01*
X7785771Y-21204762D02*
X7833390Y-21109524D01*
X7833390Y-21109524D02*
X7881009Y-21061905D01*
X7881009Y-21061905D02*
X7976247Y-21014286D01*
X27161904Y-50684819D02*
X27161904Y-51494342D01*
X27161904Y-51494342D02*
X27114285Y-51589580D01*
X27114285Y-51589580D02*
X27066666Y-51637200D01*
X27066666Y-51637200D02*
X26971428Y-51684819D01*
X26971428Y-51684819D02*
X26780952Y-51684819D01*
X26780952Y-51684819D02*
X26685714Y-51637200D01*
X26685714Y-51637200D02*
X26638095Y-51589580D01*
X26638095Y-51589580D02*
X26590476Y-51494342D01*
X26590476Y-51494342D02*
X26590476Y-50684819D01*
X26161904Y-50780057D02*
X26114285Y-50732438D01*
X26114285Y-50732438D02*
X26019047Y-50684819D01*
X26019047Y-50684819D02*
X25780952Y-50684819D01*
X25780952Y-50684819D02*
X25685714Y-50732438D01*
X25685714Y-50732438D02*
X25638095Y-50780057D01*
X25638095Y-50780057D02*
X25590476Y-50875295D01*
X25590476Y-50875295D02*
X25590476Y-50970533D01*
X25590476Y-50970533D02*
X25638095Y-51113390D01*
X25638095Y-51113390D02*
X26209523Y-51684819D01*
X26209523Y-51684819D02*
X25590476Y-51684819D01*
X33789580Y-26833333D02*
X33837200Y-26785714D01*
X33837200Y-26785714D02*
X33884819Y-26642857D01*
X33884819Y-26642857D02*
X33884819Y-26547619D01*
X33884819Y-26547619D02*
X33837200Y-26404762D01*
X33837200Y-26404762D02*
X33741961Y-26309524D01*
X33741961Y-26309524D02*
X33646723Y-26261905D01*
X33646723Y-26261905D02*
X33456247Y-26214286D01*
X33456247Y-26214286D02*
X33313390Y-26214286D01*
X33313390Y-26214286D02*
X33122914Y-26261905D01*
X33122914Y-26261905D02*
X33027676Y-26309524D01*
X33027676Y-26309524D02*
X32932438Y-26404762D01*
X32932438Y-26404762D02*
X32884819Y-26547619D01*
X32884819Y-26547619D02*
X32884819Y-26642857D01*
X32884819Y-26642857D02*
X32932438Y-26785714D01*
X32932438Y-26785714D02*
X32980057Y-26833333D01*
X33313390Y-27404762D02*
X33265771Y-27309524D01*
X33265771Y-27309524D02*
X33218152Y-27261905D01*
X33218152Y-27261905D02*
X33122914Y-27214286D01*
X33122914Y-27214286D02*
X33075295Y-27214286D01*
X33075295Y-27214286D02*
X32980057Y-27261905D01*
X32980057Y-27261905D02*
X32932438Y-27309524D01*
X32932438Y-27309524D02*
X32884819Y-27404762D01*
X32884819Y-27404762D02*
X32884819Y-27595238D01*
X32884819Y-27595238D02*
X32932438Y-27690476D01*
X32932438Y-27690476D02*
X32980057Y-27738095D01*
X32980057Y-27738095D02*
X33075295Y-27785714D01*
X33075295Y-27785714D02*
X33122914Y-27785714D01*
X33122914Y-27785714D02*
X33218152Y-27738095D01*
X33218152Y-27738095D02*
X33265771Y-27690476D01*
X33265771Y-27690476D02*
X33313390Y-27595238D01*
X33313390Y-27595238D02*
X33313390Y-27404762D01*
X33313390Y-27404762D02*
X33361009Y-27309524D01*
X33361009Y-27309524D02*
X33408628Y-27261905D01*
X33408628Y-27261905D02*
X33503866Y-27214286D01*
X33503866Y-27214286D02*
X33694342Y-27214286D01*
X33694342Y-27214286D02*
X33789580Y-27261905D01*
X33789580Y-27261905D02*
X33837200Y-27309524D01*
X33837200Y-27309524D02*
X33884819Y-27404762D01*
X33884819Y-27404762D02*
X33884819Y-27595238D01*
X33884819Y-27595238D02*
X33837200Y-27690476D01*
X33837200Y-27690476D02*
X33789580Y-27738095D01*
X33789580Y-27738095D02*
X33694342Y-27785714D01*
X33694342Y-27785714D02*
X33503866Y-27785714D01*
X33503866Y-27785714D02*
X33408628Y-27738095D01*
X33408628Y-27738095D02*
X33361009Y-27690476D01*
X33361009Y-27690476D02*
X33313390Y-27595238D01*
X22566666Y-23129580D02*
X22614285Y-23177200D01*
X22614285Y-23177200D02*
X22757142Y-23224819D01*
X22757142Y-23224819D02*
X22852380Y-23224819D01*
X22852380Y-23224819D02*
X22995237Y-23177200D01*
X22995237Y-23177200D02*
X23090475Y-23081961D01*
X23090475Y-23081961D02*
X23138094Y-22986723D01*
X23138094Y-22986723D02*
X23185713Y-22796247D01*
X23185713Y-22796247D02*
X23185713Y-22653390D01*
X23185713Y-22653390D02*
X23138094Y-22462914D01*
X23138094Y-22462914D02*
X23090475Y-22367676D01*
X23090475Y-22367676D02*
X22995237Y-22272438D01*
X22995237Y-22272438D02*
X22852380Y-22224819D01*
X22852380Y-22224819D02*
X22757142Y-22224819D01*
X22757142Y-22224819D02*
X22614285Y-22272438D01*
X22614285Y-22272438D02*
X22566666Y-22320057D01*
X22233332Y-22224819D02*
X21614285Y-22224819D01*
X21614285Y-22224819D02*
X21947618Y-22605771D01*
X21947618Y-22605771D02*
X21804761Y-22605771D01*
X21804761Y-22605771D02*
X21709523Y-22653390D01*
X21709523Y-22653390D02*
X21661904Y-22701009D01*
X21661904Y-22701009D02*
X21614285Y-22796247D01*
X21614285Y-22796247D02*
X21614285Y-23034342D01*
X21614285Y-23034342D02*
X21661904Y-23129580D01*
X21661904Y-23129580D02*
X21709523Y-23177200D01*
X21709523Y-23177200D02*
X21804761Y-23224819D01*
X21804761Y-23224819D02*
X22090475Y-23224819D01*
X22090475Y-23224819D02*
X22185713Y-23177200D01*
X22185713Y-23177200D02*
X22233332Y-23129580D01*
X48865094Y-68549819D02*
X48865094Y-67549819D01*
X48865094Y-67549819D02*
X48626999Y-67549819D01*
X48626999Y-67549819D02*
X48484142Y-67597438D01*
X48484142Y-67597438D02*
X48388904Y-67692676D01*
X48388904Y-67692676D02*
X48341285Y-67787914D01*
X48341285Y-67787914D02*
X48293666Y-67978390D01*
X48293666Y-67978390D02*
X48293666Y-68121247D01*
X48293666Y-68121247D02*
X48341285Y-68311723D01*
X48341285Y-68311723D02*
X48388904Y-68406961D01*
X48388904Y-68406961D02*
X48484142Y-68502200D01*
X48484142Y-68502200D02*
X48626999Y-68549819D01*
X48626999Y-68549819D02*
X48865094Y-68549819D01*
X47341285Y-68549819D02*
X47912713Y-68549819D01*
X47626999Y-68549819D02*
X47626999Y-67549819D01*
X47626999Y-67549819D02*
X47722237Y-67692676D01*
X47722237Y-67692676D02*
X47817475Y-67787914D01*
X47817475Y-67787914D02*
X47912713Y-67835533D01*
X27561904Y-25004819D02*
X27561904Y-25814342D01*
X27561904Y-25814342D02*
X27514285Y-25909580D01*
X27514285Y-25909580D02*
X27466666Y-25957200D01*
X27466666Y-25957200D02*
X27371428Y-26004819D01*
X27371428Y-26004819D02*
X27180952Y-26004819D01*
X27180952Y-26004819D02*
X27085714Y-25957200D01*
X27085714Y-25957200D02*
X27038095Y-25909580D01*
X27038095Y-25909580D02*
X26990476Y-25814342D01*
X26990476Y-25814342D02*
X26990476Y-25004819D01*
X26371428Y-25433390D02*
X26466666Y-25385771D01*
X26466666Y-25385771D02*
X26514285Y-25338152D01*
X26514285Y-25338152D02*
X26561904Y-25242914D01*
X26561904Y-25242914D02*
X26561904Y-25195295D01*
X26561904Y-25195295D02*
X26514285Y-25100057D01*
X26514285Y-25100057D02*
X26466666Y-25052438D01*
X26466666Y-25052438D02*
X26371428Y-25004819D01*
X26371428Y-25004819D02*
X26180952Y-25004819D01*
X26180952Y-25004819D02*
X26085714Y-25052438D01*
X26085714Y-25052438D02*
X26038095Y-25100057D01*
X26038095Y-25100057D02*
X25990476Y-25195295D01*
X25990476Y-25195295D02*
X25990476Y-25242914D01*
X25990476Y-25242914D02*
X26038095Y-25338152D01*
X26038095Y-25338152D02*
X26085714Y-25385771D01*
X26085714Y-25385771D02*
X26180952Y-25433390D01*
X26180952Y-25433390D02*
X26371428Y-25433390D01*
X26371428Y-25433390D02*
X26466666Y-25481009D01*
X26466666Y-25481009D02*
X26514285Y-25528628D01*
X26514285Y-25528628D02*
X26561904Y-25623866D01*
X26561904Y-25623866D02*
X26561904Y-25814342D01*
X26561904Y-25814342D02*
X26514285Y-25909580D01*
X26514285Y-25909580D02*
X26466666Y-25957200D01*
X26466666Y-25957200D02*
X26371428Y-26004819D01*
X26371428Y-26004819D02*
X26180952Y-26004819D01*
X26180952Y-26004819D02*
X26085714Y-25957200D01*
X26085714Y-25957200D02*
X26038095Y-25909580D01*
X26038095Y-25909580D02*
X25990476Y-25814342D01*
X25990476Y-25814342D02*
X25990476Y-25623866D01*
X25990476Y-25623866D02*
X26038095Y-25528628D01*
X26038095Y-25528628D02*
X26085714Y-25481009D01*
X26085714Y-25481009D02*
X26180952Y-25433390D01*
X27042857Y-30004819D02*
X27376190Y-29528628D01*
X27614285Y-30004819D02*
X27614285Y-29004819D01*
X27614285Y-29004819D02*
X27233333Y-29004819D01*
X27233333Y-29004819D02*
X27138095Y-29052438D01*
X27138095Y-29052438D02*
X27090476Y-29100057D01*
X27090476Y-29100057D02*
X27042857Y-29195295D01*
X27042857Y-29195295D02*
X27042857Y-29338152D01*
X27042857Y-29338152D02*
X27090476Y-29433390D01*
X27090476Y-29433390D02*
X27138095Y-29481009D01*
X27138095Y-29481009D02*
X27233333Y-29528628D01*
X27233333Y-29528628D02*
X27614285Y-29528628D01*
X26090476Y-30004819D02*
X26661904Y-30004819D01*
X26376190Y-30004819D02*
X26376190Y-29004819D01*
X26376190Y-29004819D02*
X26471428Y-29147676D01*
X26471428Y-29147676D02*
X26566666Y-29242914D01*
X26566666Y-29242914D02*
X26661904Y-29290533D01*
X25233333Y-29338152D02*
X25233333Y-30004819D01*
X25471428Y-28957200D02*
X25709523Y-29671485D01*
X25709523Y-29671485D02*
X25090476Y-29671485D01*
X30095238Y-69150057D02*
X30190476Y-69102438D01*
X30190476Y-69102438D02*
X30285714Y-69007200D01*
X30285714Y-69007200D02*
X30428571Y-68864342D01*
X30428571Y-68864342D02*
X30523809Y-68816723D01*
X30523809Y-68816723D02*
X30619047Y-68816723D01*
X30571428Y-69054819D02*
X30666666Y-69007200D01*
X30666666Y-69007200D02*
X30761904Y-68911961D01*
X30761904Y-68911961D02*
X30809523Y-68721485D01*
X30809523Y-68721485D02*
X30809523Y-68388152D01*
X30809523Y-68388152D02*
X30761904Y-68197676D01*
X30761904Y-68197676D02*
X30666666Y-68102438D01*
X30666666Y-68102438D02*
X30571428Y-68054819D01*
X30571428Y-68054819D02*
X30380952Y-68054819D01*
X30380952Y-68054819D02*
X30285714Y-68102438D01*
X30285714Y-68102438D02*
X30190476Y-68197676D01*
X30190476Y-68197676D02*
X30142857Y-68388152D01*
X30142857Y-68388152D02*
X30142857Y-68721485D01*
X30142857Y-68721485D02*
X30190476Y-68911961D01*
X30190476Y-68911961D02*
X30285714Y-69007200D01*
X30285714Y-69007200D02*
X30380952Y-69054819D01*
X30380952Y-69054819D02*
X30571428Y-69054819D01*
X29761904Y-68150057D02*
X29714285Y-68102438D01*
X29714285Y-68102438D02*
X29619047Y-68054819D01*
X29619047Y-68054819D02*
X29380952Y-68054819D01*
X29380952Y-68054819D02*
X29285714Y-68102438D01*
X29285714Y-68102438D02*
X29238095Y-68150057D01*
X29238095Y-68150057D02*
X29190476Y-68245295D01*
X29190476Y-68245295D02*
X29190476Y-68340533D01*
X29190476Y-68340533D02*
X29238095Y-68483390D01*
X29238095Y-68483390D02*
X29809523Y-69054819D01*
X29809523Y-69054819D02*
X29190476Y-69054819D01*
X14095238Y-69150057D02*
X14190476Y-69102438D01*
X14190476Y-69102438D02*
X14285714Y-69007200D01*
X14285714Y-69007200D02*
X14428571Y-68864342D01*
X14428571Y-68864342D02*
X14523809Y-68816723D01*
X14523809Y-68816723D02*
X14619047Y-68816723D01*
X14571428Y-69054819D02*
X14666666Y-69007200D01*
X14666666Y-69007200D02*
X14761904Y-68911961D01*
X14761904Y-68911961D02*
X14809523Y-68721485D01*
X14809523Y-68721485D02*
X14809523Y-68388152D01*
X14809523Y-68388152D02*
X14761904Y-68197676D01*
X14761904Y-68197676D02*
X14666666Y-68102438D01*
X14666666Y-68102438D02*
X14571428Y-68054819D01*
X14571428Y-68054819D02*
X14380952Y-68054819D01*
X14380952Y-68054819D02*
X14285714Y-68102438D01*
X14285714Y-68102438D02*
X14190476Y-68197676D01*
X14190476Y-68197676D02*
X14142857Y-68388152D01*
X14142857Y-68388152D02*
X14142857Y-68721485D01*
X14142857Y-68721485D02*
X14190476Y-68911961D01*
X14190476Y-68911961D02*
X14285714Y-69007200D01*
X14285714Y-69007200D02*
X14380952Y-69054819D01*
X14380952Y-69054819D02*
X14571428Y-69054819D01*
X13190476Y-69054819D02*
X13761904Y-69054819D01*
X13476190Y-69054819D02*
X13476190Y-68054819D01*
X13476190Y-68054819D02*
X13571428Y-68197676D01*
X13571428Y-68197676D02*
X13666666Y-68292914D01*
X13666666Y-68292914D02*
X13761904Y-68340533D01*
X22166666Y-74404819D02*
X22499999Y-73928628D01*
X22738094Y-74404819D02*
X22738094Y-73404819D01*
X22738094Y-73404819D02*
X22357142Y-73404819D01*
X22357142Y-73404819D02*
X22261904Y-73452438D01*
X22261904Y-73452438D02*
X22214285Y-73500057D01*
X22214285Y-73500057D02*
X22166666Y-73595295D01*
X22166666Y-73595295D02*
X22166666Y-73738152D01*
X22166666Y-73738152D02*
X22214285Y-73833390D01*
X22214285Y-73833390D02*
X22261904Y-73881009D01*
X22261904Y-73881009D02*
X22357142Y-73928628D01*
X22357142Y-73928628D02*
X22738094Y-73928628D01*
X21309523Y-73738152D02*
X21309523Y-74404819D01*
X21547618Y-73357200D02*
X21785713Y-74071485D01*
X21785713Y-74071485D02*
X21166666Y-74071485D01*
X6904819Y-20633333D02*
X6428628Y-20300000D01*
X6904819Y-20061905D02*
X5904819Y-20061905D01*
X5904819Y-20061905D02*
X5904819Y-20442857D01*
X5904819Y-20442857D02*
X5952438Y-20538095D01*
X5952438Y-20538095D02*
X6000057Y-20585714D01*
X6000057Y-20585714D02*
X6095295Y-20633333D01*
X6095295Y-20633333D02*
X6238152Y-20633333D01*
X6238152Y-20633333D02*
X6333390Y-20585714D01*
X6333390Y-20585714D02*
X6381009Y-20538095D01*
X6381009Y-20538095D02*
X6428628Y-20442857D01*
X6428628Y-20442857D02*
X6428628Y-20061905D01*
X5904819Y-21538095D02*
X5904819Y-21061905D01*
X5904819Y-21061905D02*
X6381009Y-21014286D01*
X6381009Y-21014286D02*
X6333390Y-21061905D01*
X6333390Y-21061905D02*
X6285771Y-21157143D01*
X6285771Y-21157143D02*
X6285771Y-21395238D01*
X6285771Y-21395238D02*
X6333390Y-21490476D01*
X6333390Y-21490476D02*
X6381009Y-21538095D01*
X6381009Y-21538095D02*
X6476247Y-21585714D01*
X6476247Y-21585714D02*
X6714342Y-21585714D01*
X6714342Y-21585714D02*
X6809580Y-21538095D01*
X6809580Y-21538095D02*
X6857200Y-21490476D01*
X6857200Y-21490476D02*
X6904819Y-21395238D01*
X6904819Y-21395238D02*
X6904819Y-21157143D01*
X6904819Y-21157143D02*
X6857200Y-21061905D01*
X6857200Y-21061905D02*
X6809580Y-21014286D01*
X11304819Y-20633333D02*
X10828628Y-20300000D01*
X11304819Y-20061905D02*
X10304819Y-20061905D01*
X10304819Y-20061905D02*
X10304819Y-20442857D01*
X10304819Y-20442857D02*
X10352438Y-20538095D01*
X10352438Y-20538095D02*
X10400057Y-20585714D01*
X10400057Y-20585714D02*
X10495295Y-20633333D01*
X10495295Y-20633333D02*
X10638152Y-20633333D01*
X10638152Y-20633333D02*
X10733390Y-20585714D01*
X10733390Y-20585714D02*
X10781009Y-20538095D01*
X10781009Y-20538095D02*
X10828628Y-20442857D01*
X10828628Y-20442857D02*
X10828628Y-20061905D01*
X11304819Y-21109524D02*
X11304819Y-21300000D01*
X11304819Y-21300000D02*
X11257200Y-21395238D01*
X11257200Y-21395238D02*
X11209580Y-21442857D01*
X11209580Y-21442857D02*
X11066723Y-21538095D01*
X11066723Y-21538095D02*
X10876247Y-21585714D01*
X10876247Y-21585714D02*
X10495295Y-21585714D01*
X10495295Y-21585714D02*
X10400057Y-21538095D01*
X10400057Y-21538095D02*
X10352438Y-21490476D01*
X10352438Y-21490476D02*
X10304819Y-21395238D01*
X10304819Y-21395238D02*
X10304819Y-21204762D01*
X10304819Y-21204762D02*
X10352438Y-21109524D01*
X10352438Y-21109524D02*
X10400057Y-21061905D01*
X10400057Y-21061905D02*
X10495295Y-21014286D01*
X10495295Y-21014286D02*
X10733390Y-21014286D01*
X10733390Y-21014286D02*
X10828628Y-21061905D01*
X10828628Y-21061905D02*
X10876247Y-21109524D01*
X10876247Y-21109524D02*
X10923866Y-21204762D01*
X10923866Y-21204762D02*
X10923866Y-21395238D01*
X10923866Y-21395238D02*
X10876247Y-21490476D01*
X10876247Y-21490476D02*
X10828628Y-21538095D01*
X10828628Y-21538095D02*
X10733390Y-21585714D01*
X9904819Y-20633333D02*
X9428628Y-20300000D01*
X9904819Y-20061905D02*
X8904819Y-20061905D01*
X8904819Y-20061905D02*
X8904819Y-20442857D01*
X8904819Y-20442857D02*
X8952438Y-20538095D01*
X8952438Y-20538095D02*
X9000057Y-20585714D01*
X9000057Y-20585714D02*
X9095295Y-20633333D01*
X9095295Y-20633333D02*
X9238152Y-20633333D01*
X9238152Y-20633333D02*
X9333390Y-20585714D01*
X9333390Y-20585714D02*
X9381009Y-20538095D01*
X9381009Y-20538095D02*
X9428628Y-20442857D01*
X9428628Y-20442857D02*
X9428628Y-20061905D01*
X8904819Y-20966667D02*
X8904819Y-21633333D01*
X8904819Y-21633333D02*
X9904819Y-21204762D01*
%TO.C,SDA1*%
D11*
X38620000Y-65270000D02*
X38620000Y-67920000D01*
X41380000Y-62620000D02*
X40000000Y-62620000D01*
X41380000Y-64000000D02*
X41380000Y-62620000D01*
X41380000Y-65270000D02*
X38620000Y-65270000D01*
X41380000Y-65270000D02*
X41380000Y-67920000D01*
X41380000Y-67920000D02*
X38620000Y-67920000D01*
%TO.C,C7*%
X32540580Y-19490000D02*
X32259420Y-19490000D01*
X32540580Y-20510000D02*
X32259420Y-20510000D01*
%TO.C,SCL1*%
X44620000Y-65270000D02*
X44620000Y-67920000D01*
X47380000Y-62620000D02*
X46000000Y-62620000D01*
X47380000Y-64000000D02*
X47380000Y-62620000D01*
X47380000Y-65270000D02*
X44620000Y-65270000D01*
X47380000Y-65270000D02*
X47380000Y-67920000D01*
X47380000Y-67920000D02*
X44620000Y-67920000D01*
%TO.C,U2*%
X22090000Y-32010000D02*
X22090000Y-32385000D01*
X22090000Y-50015000D02*
X22090000Y-50390000D01*
X22090000Y-50390000D02*
X30710000Y-50390000D01*
X30710000Y-32010000D02*
X22090000Y-32010000D01*
X30710000Y-32385000D02*
X30710000Y-32010000D01*
X30710000Y-50390000D02*
X30710000Y-50015000D01*
X20830000Y-50020000D02*
X20490000Y-50490000D01*
X21170000Y-50490000D01*
X20830000Y-50020000D01*
G36*
X21170000Y-50490000D02*
G01*
X20490000Y-50490000D01*
X20830000Y-50020000D01*
X21170000Y-50490000D01*
G37*
%TO.C,C8*%
X31490000Y-27140580D02*
X31490000Y-26859420D01*
X32510000Y-27140580D02*
X32510000Y-26859420D01*
%TO.C,C3*%
X22540580Y-23690000D02*
X22259420Y-23690000D01*
X22540580Y-24710000D02*
X22259420Y-24710000D01*
%TO.C,D1*%
X50210000Y-69000000D02*
X46350000Y-69000000D01*
X50210000Y-69000000D02*
X50210000Y-71000000D01*
X50210000Y-71000000D02*
X46350000Y-71000000D01*
%TO.C,U8*%
X25190000Y-26390000D02*
X25190000Y-26515000D01*
X25190000Y-29485000D02*
X25190000Y-29610000D01*
X25190000Y-29610000D02*
X28410000Y-29610000D01*
X28410000Y-26390000D02*
X25190000Y-26390000D01*
X28410000Y-26515000D02*
X28410000Y-26390000D01*
X28410000Y-29610000D02*
X28410000Y-29485000D01*
X28960000Y-26510000D02*
X29200000Y-26180000D01*
X28720000Y-26180000D01*
X28960000Y-26510000D01*
G36*
X28960000Y-26510000D02*
G01*
X28720000Y-26180000D01*
X29200000Y-26180000D01*
X28960000Y-26510000D01*
G37*
%TO.C,Q2*%
X29240000Y-69440000D02*
X29240000Y-70440000D01*
X29240000Y-71560000D02*
X29240000Y-72560000D01*
X29240000Y-72560000D02*
X30760000Y-72560000D01*
X30760000Y-69440000D02*
X29240000Y-69440000D01*
X30760000Y-69490000D02*
X30760000Y-69440000D01*
X30760000Y-71390000D02*
X30760000Y-70610000D01*
X30760000Y-72560000D02*
X30760000Y-72510000D01*
X31300000Y-70620000D02*
X31060000Y-70950000D01*
X31540000Y-70950000D01*
X31300000Y-70620000D01*
G36*
X31540000Y-70950000D02*
G01*
X31060000Y-70950000D01*
X31300000Y-70620000D01*
X31540000Y-70950000D01*
G37*
%TO.C,Q1*%
X13240000Y-69440000D02*
X13240000Y-70440000D01*
X13240000Y-71560000D02*
X13240000Y-72560000D01*
X13240000Y-72560000D02*
X14760000Y-72560000D01*
X14760000Y-69440000D02*
X13240000Y-69440000D01*
X14760000Y-69490000D02*
X14760000Y-69440000D01*
X14760000Y-71390000D02*
X14760000Y-70610000D01*
X14760000Y-72560000D02*
X14760000Y-72510000D01*
X15300000Y-70620000D02*
X15060000Y-70950000D01*
X15540000Y-70950000D01*
X15300000Y-70620000D01*
G36*
X15540000Y-70950000D02*
G01*
X15060000Y-70950000D01*
X15300000Y-70620000D01*
X15540000Y-70950000D01*
G37*
%TD*%
M02*
