%TF.GenerationSoftware,KiCad,Pcbnew,10.0.5*%
%TF.CreationDate,2026-09-21T14:48:14+02:00*%
%TF.ProjectId,PC1500-Pico2W-Dongle,50433135-3030-42d5-9069-636f32572d44,rev?*%
%TF.SameCoordinates,Original*%
%TF.FileFunction,Copper,L4,Bot*%
%TF.FilePolarity,Positive*%
%FSLAX46Y46*%
G04 Gerber Fmt 4.6, Leading zero omitted, Abs format (unit mm)*
G04 Created by KiCad (PCBNEW 10.0.5) date 2026-09-21 14:48:14*
%MOMM*%
%LPD*%
G01*
G04 APERTURE LIST*
G04 Aperture macros list*
%AMRoundRect*
0 Rectangle with rounded corners*
0 $1 Rounding radius*
0 $2 $3 $4 $5 $6 $7 $8 $9 X,Y pos of 4 corners*
0 Add a 4 corners polygon primitive as box body*
4,1,4,$2,$3,$4,$5,$6,$7,$8,$9,$2,$3,0*
0 Add four circle primitives for the rounded corners*
1,1,$1+$1,$2,$3*
1,1,$1+$1,$4,$5*
1,1,$1+$1,$6,$7*
1,1,$1+$1,$8,$9*
0 Add four rect primitives between the rounded corners*
20,1,$1+$1,$2,$3,$4,$5,0*
20,1,$1+$1,$4,$5,$6,$7,0*
20,1,$1+$1,$6,$7,$8,$9,0*
20,1,$1+$1,$8,$9,$2,$3,0*%
G04 Aperture macros list end*
%TA.AperFunction,Conductor*%
%ADD10C,0.200000*%
%TD*%
%TA.AperFunction,ComponentPad*%
%ADD11C,1.700000*%
%TD*%
%TA.AperFunction,ComponentPad*%
%ADD12R,1.700000X1.700000*%
%TD*%
%TA.AperFunction,ComponentPad*%
%ADD13C,1.524000*%
%TD*%
%TA.AperFunction,SMDPad,CuDef*%
%ADD14RoundRect,0.100000X0.130000X0.100000X-0.130000X0.100000X-0.130000X-0.100000X0.130000X-0.100000X0*%
%TD*%
%TA.AperFunction,SMDPad,CuDef*%
%ADD15RoundRect,0.100000X0.100000X-0.130000X0.100000X0.130000X-0.100000X0.130000X-0.100000X-0.130000X0*%
%TD*%
%TA.AperFunction,SMDPad,CuDef*%
%ADD16RoundRect,0.225000X0.225000X0.250000X-0.225000X0.250000X-0.225000X-0.250000X0.225000X-0.250000X0*%
%TD*%
%TA.AperFunction,SMDPad,CuDef*%
%ADD17RoundRect,0.100000X-0.100000X0.130000X-0.100000X-0.130000X0.100000X-0.130000X0.100000X0.130000X0*%
%TD*%
%TA.AperFunction,SMDPad,CuDef*%
%ADD18RoundRect,0.150000X-0.987500X-0.150000X0.987500X-0.150000X0.987500X0.150000X-0.987500X0.150000X0*%
%TD*%
%TA.AperFunction,SMDPad,CuDef*%
%ADD19RoundRect,0.225000X0.250000X-0.225000X0.250000X0.225000X-0.250000X0.225000X-0.250000X-0.225000X0*%
%TD*%
%TA.AperFunction,SMDPad,CuDef*%
%ADD20RoundRect,0.250000X0.300000X0.300000X-0.300000X0.300000X-0.300000X-0.300000X0.300000X-0.300000X0*%
%TD*%
%TA.AperFunction,SMDPad,CuDef*%
%ADD21RoundRect,0.125000X0.687500X0.125000X-0.687500X0.125000X-0.687500X-0.125000X0.687500X-0.125000X0*%
%TD*%
%TA.AperFunction,SMDPad,CuDef*%
%ADD22RoundRect,0.150000X0.587500X0.150000X-0.587500X0.150000X-0.587500X-0.150000X0.587500X-0.150000X0*%
%TD*%
%TA.AperFunction,ViaPad*%
%ADD23C,0.600000*%
%TD*%
%TA.AperFunction,Conductor*%
%ADD24C,0.150000*%
%TD*%
%TA.AperFunction,Conductor*%
%ADD25C,0.500000*%
%TD*%
G04 APERTURE END LIST*
%TO.N,+BATT*%
D10*
X54200000Y-40800000D02*
X56000000Y-42000000D01*
X56000000Y-42000000D02*
X54200000Y-43200000D01*
X56200000Y-39400000D02*
X54200000Y-40800000D01*
%TD*%
D11*
%TO.P,U1,1,GP0_1*%
%TO.N,AD0*%
X17110000Y-18250000D03*
%TO.P,U1,2,GP1_2*%
%TO.N,AD1*%
X17110000Y-20790000D03*
%TO.P,U1,3,GND_3*%
%TO.N,GND*%
X17110000Y-23330000D03*
%TO.P,U1,4,GP2_4*%
%TO.N,AD2*%
X17110000Y-25870000D03*
%TO.P,U1,5,GP3_5*%
%TO.N,AD3*%
X17110000Y-28410000D03*
%TO.P,U1,6,GP4_6*%
%TO.N,AD4*%
X17110000Y-30950000D03*
%TO.P,U1,7,GP5_7*%
%TO.N,AD5*%
X17110000Y-33490000D03*
%TO.P,U1,8,GND_8*%
%TO.N,GND*%
X17110000Y-36030000D03*
%TO.P,U1,9,GP6_9*%
%TO.N,AD6*%
X17110000Y-38570000D03*
%TO.P,U1,10,GP7_10*%
%TO.N,AD7*%
X17110000Y-41110000D03*
%TO.P,U1,11,GP8_11*%
%TO.N,AD8*%
X17110000Y-43650000D03*
%TO.P,U1,12,GP9_12*%
%TO.N,AD9*%
X17110000Y-46190000D03*
%TO.P,U1,13,GND_13*%
%TO.N,GND*%
X17110000Y-48730000D03*
%TO.P,U1,14,GP10_14*%
%TO.N,AD10*%
X17110000Y-51270000D03*
%TO.P,U1,15,GP11_15*%
%TO.N,AD11*%
X17110000Y-53810000D03*
%TO.P,U1,16,GP12_16*%
%TO.N,AD12*%
X17110000Y-56350000D03*
%TO.P,U1,17,GP13_17*%
%TO.N,D0*%
X17110000Y-58890000D03*
%TO.P,U1,18,GND_18*%
%TO.N,GND*%
X17110000Y-61430000D03*
%TO.P,U1,19,GP14_19*%
%TO.N,D1*%
X17110000Y-63970000D03*
%TO.P,U1,20,GP15_20*%
%TO.N,D2*%
X17110000Y-66510000D03*
%TO.P,U1,21,GP16_21*%
%TO.N,D3*%
X34890000Y-66510000D03*
%TO.P,U1,22,GP17_22*%
%TO.N,D4*%
X34890000Y-63970000D03*
%TO.P,U1,23,GND_23*%
%TO.N,GND*%
X34890000Y-61430000D03*
%TO.P,U1,24,GP18_24*%
%TO.N,D5*%
X34890000Y-58890000D03*
%TO.P,U1,25,GP19_25*%
%TO.N,D6*%
X34890000Y-56350000D03*
%TO.P,U1,26,GP20_26*%
%TO.N,D7*%
X34890000Y-53810000D03*
%TO.P,U1,27,GP21_27*%
%TO.N,TRIG_RD*%
X34890000Y-51270000D03*
%TO.P,U1,28,GND_28*%
%TO.N,GND*%
X34890000Y-48730000D03*
%TO.P,U1,29,GP22_29*%
%TO.N,TRIG_WR*%
X34890000Y-46190000D03*
%TO.P,U1,30,RUN_30*%
%TO.N,unconnected-(U1-RUN-Pad30)*%
X34890000Y-43650000D03*
%TO.P,U1,31,GP26_31*%
%TO.N,SDA*%
X34890000Y-41110000D03*
%TO.P,U1,32,GP27_32*%
%TO.N,SCL*%
X34890000Y-38570000D03*
%TO.P,U1,33,GND_33*%
%TO.N,GND*%
X34890000Y-36030000D03*
%TO.P,U1,34,GP28_34*%
%TO.N,GP28*%
X34890000Y-33490000D03*
%TO.P,U1,35,ADC_VREF_35*%
%TO.N,3V3*%
X34890000Y-30950000D03*
%TO.P,U1,36,3V3_36*%
X34890000Y-28410000D03*
%TO.P,U1,37,3V3_EN_37*%
%TO.N,unconnected-(U1-3V3_EN-Pad37)*%
X34890000Y-25870000D03*
%TO.P,U1,38,GND_38*%
%TO.N,GND*%
X34890000Y-23330000D03*
%TO.P,U1,39,VSYS_39*%
%TO.N,VSYS_SW*%
X34890000Y-20790000D03*
%TO.P,U1,40,VBUS_40*%
%TO.N,VBUS*%
X34890000Y-18250000D03*
%TD*%
D12*
%TO.P,JP3,1,Pin_1_1*%
%TO.N,PC1500_SENSE*%
X40605000Y-72595000D03*
D11*
%TO.P,JP3,2,Pin_2_2*%
%TO.N,GND*%
X38065000Y-72595000D03*
%TD*%
D12*
%TO.P,J3,1,Pin_1_1*%
%TO.N,~INT*%
X53500000Y-9460000D03*
D11*
%TO.P,J3,2,Pin_2_2*%
%TO.N,GP28*%
X53500000Y-12000000D03*
%TO.P,J3,3,Pin_3_3*%
%TO.N,GND*%
X53500000Y-14540000D03*
%TD*%
D13*
%TO.P,J1,1,AD7_1*%
%TO.N,AD7*%
X50325000Y-61050000D03*
%TO.P,J1,2,AD6_2*%
%TO.N,AD6*%
X52230000Y-59780000D03*
%TO.P,J1,3,AD5_3*%
%TO.N,AD5*%
X50325000Y-58510000D03*
%TO.P,J1,4,AD4_4*%
%TO.N,AD4*%
X52230000Y-57240000D03*
%TO.P,J1,5,AD3_5*%
%TO.N,AD3*%
X50325000Y-55970000D03*
%TO.P,J1,6,AD2_6*%
%TO.N,AD2*%
X52230000Y-54700000D03*
%TO.P,J1,7,AD1_7*%
%TO.N,AD1*%
X50325000Y-53430000D03*
%TO.P,J1,8,AD0_8*%
%TO.N,AD0*%
X52230000Y-52160000D03*
%TO.P,J1,9,PB0_9*%
%TO.N,PB0*%
X50325000Y-50890000D03*
%TO.P,J1,10,PC7_10*%
%TO.N,PC7*%
X52230000Y-49620000D03*
%TO.P,J1,11,+4V7_11*%
%TO.N,+4V7*%
X50325000Y-48350000D03*
%TO.P,J1,12,+4V7_12*%
X52230000Y-47080000D03*
%TO.P,J1,13,NC1_13*%
%TO.N,NC1*%
X50325000Y-45810000D03*
%TO.P,J1,14,NC2_14*%
%TO.N,NC2*%
X52230000Y-44540000D03*
%TO.P,J1,15,PV_15*%
%TO.N,PV*%
X50325000Y-43270000D03*
%TO.P,J1,16,PU_16*%
%TO.N,PU*%
X52230000Y-42000000D03*
%TO.P,J1,17,D7_17*%
%TO.N,D7*%
X50325000Y-40730000D03*
%TO.P,J1,18,D6_18*%
%TO.N,D6*%
X52230000Y-39460000D03*
%TO.P,J1,19,D5_19*%
%TO.N,D5*%
X50325000Y-38190000D03*
%TO.P,J1,20,D4_20*%
%TO.N,D4*%
X52230000Y-36920000D03*
%TO.P,J1,21,D3_21*%
%TO.N,D3*%
X50325000Y-35650000D03*
%TO.P,J1,22,D2_22*%
%TO.N,D2*%
X52230000Y-34380000D03*
%TO.P,J1,23,D1_23*%
%TO.N,D1*%
X50325000Y-33110000D03*
%TO.P,J1,24,D0_24*%
%TO.N,D0*%
X52230000Y-31840000D03*
%TO.P,J1,25,~INHIBIT_25*%
%TO.N,~INHIBIT*%
X50325000Y-30570000D03*
%TO.P,J1,26,~WEX_26*%
%TO.N,~WEX*%
X52230000Y-29300000D03*
%TO.P,J1,27,~CMTIN_27*%
%TO.N,~CMTIN*%
X50325000Y-28030000D03*
%TO.P,J1,28,W1_28*%
%TO.N,W1*%
X52230000Y-26760000D03*
%TO.P,J1,29,CMTOUT_29*%
%TO.N,CMTOUT*%
X50325000Y-25490000D03*
%TO.P,J1,30,INT_30*%
%TO.N,INT*%
X52230000Y-24220000D03*
%TO.P,J1,31,AD8_31*%
%TO.N,AD8*%
X54135000Y-61050000D03*
%TO.P,J1,32,AD9_32*%
%TO.N,AD9*%
X56040000Y-59780000D03*
%TO.P,J1,33,AD10_33*%
%TO.N,AD10*%
X54135000Y-58510000D03*
%TO.P,J1,34,AD11_34*%
%TO.N,AD11*%
X56040000Y-57240000D03*
%TO.P,J1,35,AD12_35*%
%TO.N,AD12*%
X54135000Y-55970000D03*
%TO.P,J1,36,AD13_36*%
%TO.N,AD13*%
X56040000Y-54700000D03*
%TO.P,J1,37,AD14_37*%
%TO.N,AD14*%
X54135000Y-53430000D03*
%TO.P,J1,38,AD15_38*%
%TO.N,AD15*%
X56040000Y-52160000D03*
%TO.P,J1,39,PB1_39*%
%TO.N,PB1*%
X54135000Y-50890000D03*
%TO.P,J1,40,NC3_40*%
%TO.N,NC3*%
X56040000Y-49620000D03*
%TO.P,J1,41,+4V7_41*%
%TO.N,+4V7*%
X54135000Y-48350000D03*
%TO.P,J1,42,+4V7_42*%
X56040000Y-47080000D03*
%TO.P,J1,43,FGND_43*%
%TO.N,FGND*%
X54135000Y-45810000D03*
%TO.P,J1,44,FGND_44*%
X56040000Y-44540000D03*
%TO.P,J1,45,+BATT_45*%
%TO.N,+BATT*%
X54135000Y-43270000D03*
%TO.P,J1,46,+BATT_46*%
X56040000Y-42000000D03*
%TO.P,J1,47,+BATT_47*%
X54135000Y-40730000D03*
%TO.P,J1,48,+BATT_48*%
X56040000Y-39460000D03*
%TO.P,J1,49,NC4_49*%
%TO.N,NC4*%
X54135000Y-38190000D03*
%TO.P,J1,50,BFO_50*%
%TO.N,BFO*%
X56040000Y-36920000D03*
%TO.P,J1,51,PHI_OS_51*%
%TO.N,PHI_OS*%
X54135000Y-35650000D03*
%TO.P,J1,52,GND_52*%
%TO.N,GND*%
X56040000Y-34380000D03*
%TO.P,J1,53,GND_53*%
X54135000Y-33110000D03*
%TO.P,J1,54,GND_54*%
X56040000Y-31840000D03*
%TO.P,J1,55,GND_55*%
X54135000Y-30570000D03*
%TO.P,J1,56,DME0_56*%
%TO.N,DME0*%
X56040000Y-29300000D03*
%TO.P,J1,57,RW_57*%
%TO.N,RW*%
X54135000Y-28030000D03*
%TO.P,J1,58,DME1_58*%
%TO.N,DME1*%
X56040000Y-26760000D03*
%TO.P,J1,59,ME1_59*%
%TO.N,ME1*%
X54135000Y-25490000D03*
%TO.P,J1,60,OD_60*%
%TO.N,OD*%
X56040000Y-24220000D03*
%TD*%
D12*
%TO.P,J5,1,Pin_1_1*%
%TO.N,GREENPAK2_IO14*%
X45800000Y-31860000D03*
D11*
%TO.P,J5,2,Pin_2_2*%
%TO.N,GREENPAK2_IO12*%
X45800000Y-34400000D03*
%TO.P,J5,3,Pin_3_3*%
%TO.N,GREENPAK2_IO10*%
X45800000Y-36940000D03*
%TD*%
D14*
%TO.P,R3,1*%
%TO.N,VGG*%
X30320000Y-75000000D03*
%TO.P,R3,2*%
%TO.N,GATE_NODE*%
X29680000Y-75000000D03*
%TD*%
D15*
%TO.P,R8,1*%
%TO.N,3V3*%
X3000000Y-21120000D03*
%TO.P,R8,2*%
%TO.N,SD_DAT2*%
X3000000Y-20480000D03*
%TD*%
D14*
%TO.P,R13,1*%
%TO.N,3V3*%
X31720000Y-29200000D03*
%TO.P,R13,2*%
%TO.N,SDA*%
X31080000Y-29200000D03*
%TD*%
D12*
%TO.P,SDA1,1,Pin_1_1*%
%TO.N,SDA_GP*%
X40000000Y-64000000D03*
D11*
%TO.P,SDA1,2,Pin_2_2*%
%TO.N,SDA_GP_U4*%
X40000000Y-66540000D03*
%TD*%
D16*
%TO.P,C7,1*%
%TO.N,3V3*%
X33175000Y-20000000D03*
%TO.P,C7,2*%
%TO.N,GND*%
X31625000Y-20000000D03*
%TD*%
D12*
%TO.P,SCL1,1,Pin_1_1*%
%TO.N,SCL_GP*%
X46000000Y-64000000D03*
D11*
%TO.P,SCL1,2,Pin_2_2*%
%TO.N,SCL_GP_U4*%
X46000000Y-66540000D03*
%TD*%
D17*
%TO.P,R10,1*%
%TO.N,Net-(J2-CD{slash}DAT3)*%
X4400000Y-20480000D03*
%TO.P,R10,2*%
%TO.N,3V3*%
X4400000Y-21120000D03*
%TD*%
D15*
%TO.P,R6,1*%
%TO.N,3V3*%
X6900000Y-21120000D03*
%TO.P,R6,2*%
%TO.N,SD_MOSI*%
X6900000Y-20480000D03*
%TD*%
D18*
%TO.P,U2,1,A14_1*%
%TO.N,SRAM_A14*%
X20837500Y-49455000D03*
%TO.P,U2,2,A12_2*%
%TO.N,SRAM_A12*%
X20837500Y-48185000D03*
%TO.P,U2,3,A7_3*%
%TO.N,AD7*%
X20837500Y-46915000D03*
%TO.P,U2,4,A6_4*%
%TO.N,AD6*%
X20837500Y-45645000D03*
%TO.P,U2,5,A5_5*%
%TO.N,AD5*%
X20837500Y-44375000D03*
%TO.P,U2,6,A4_6*%
%TO.N,AD4*%
X20837500Y-43105000D03*
%TO.P,U2,7,A3_7*%
%TO.N,AD3*%
X20837500Y-41835000D03*
%TO.P,U2,8,A2_8*%
%TO.N,AD2*%
X20837500Y-40565000D03*
%TO.P,U2,9,A1_9*%
%TO.N,AD1*%
X20837500Y-39295000D03*
%TO.P,U2,10,A0_10*%
%TO.N,AD0*%
X20837500Y-38025000D03*
%TO.P,U2,11,Q0_11*%
%TO.N,D0*%
X20837500Y-36755000D03*
%TO.P,U2,12,Q1_12*%
%TO.N,D1*%
X20837500Y-35485000D03*
%TO.P,U2,13,Q2_13*%
%TO.N,D2*%
X20837500Y-34215000D03*
%TO.P,U2,14,GND_14*%
%TO.N,GND*%
X20837500Y-32945000D03*
%TO.P,U2,15,Q3_15*%
%TO.N,D3*%
X31962500Y-32945000D03*
%TO.P,U2,16,Q4_16*%
%TO.N,D4*%
X31962500Y-34215000D03*
%TO.P,U2,17,Q5_17*%
%TO.N,D5*%
X31962500Y-35485000D03*
%TO.P,U2,18,Q6_18*%
%TO.N,D6*%
X31962500Y-36755000D03*
%TO.P,U2,19,Q7_19*%
%TO.N,D7*%
X31962500Y-38025000D03*
%TO.P,U2,20,~{CS}_20*%
%TO.N,SRAM_CS*%
X31962500Y-39295000D03*
%TO.P,U2,21,A10_21*%
%TO.N,AD10*%
X31962500Y-40565000D03*
%TO.P,U2,22,~{OE}_22*%
%TO.N,OD*%
X31962500Y-41835000D03*
%TO.P,U2,23,A11_23*%
%TO.N,SRAM_A11*%
X31962500Y-43105000D03*
%TO.P,U2,24,A9_24*%
%TO.N,AD9*%
X31962500Y-44375000D03*
%TO.P,U2,25,A8_25*%
%TO.N,AD8*%
X31962500Y-45645000D03*
%TO.P,U2,26,A13_26*%
%TO.N,SRAM_A13*%
X31962500Y-46915000D03*
%TO.P,U2,27,~{WE}_27*%
%TO.N,SRAM_WE*%
X31962500Y-48185000D03*
%TO.P,U2,28,VCC_28*%
%TO.N,VGG*%
X31962500Y-49455000D03*
%TD*%
D19*
%TO.P,C8,1*%
%TO.N,3V3*%
X32000000Y-27775000D03*
%TO.P,C8,2*%
%TO.N,GND*%
X32000000Y-26225000D03*
%TD*%
D16*
%TO.P,C3,1*%
%TO.N,VGG*%
X23175000Y-24200000D03*
%TO.P,C3,2*%
%TO.N,GND*%
X21625000Y-24200000D03*
%TD*%
D20*
%TO.P,D1,1,K_1*%
%TO.N,+BATT*%
X49400000Y-70000000D03*
%TO.P,D1,2,A_2*%
%TO.N,VBUS*%
X46600000Y-70000000D03*
%TD*%
D21*
%TO.P,U8,1,SDA_B_1*%
%TO.N,SDA_GP*%
X28912500Y-27025000D03*
%TO.P,U8,2,GND_2*%
%TO.N,GND*%
X28912500Y-27675000D03*
%TO.P,U8,3,VCCA_3*%
%TO.N,3V3*%
X28912500Y-28325000D03*
%TO.P,U8,4,SDA_A_4*%
%TO.N,SDA*%
X28912500Y-28975000D03*
%TO.P,U8,5,SCL_A_5*%
%TO.N,SCL*%
X24687500Y-28975000D03*
%TO.P,U8,6,OE_6*%
%TO.N,3V3*%
X24687500Y-28325000D03*
%TO.P,U8,7,VCCB_7*%
%TO.N,VGG*%
X24687500Y-27675000D03*
%TO.P,U8,8,SCL_B_8*%
%TO.N,SCL_GP*%
X24687500Y-27025000D03*
%TD*%
D14*
%TO.P,R14,1*%
%TO.N,3V3*%
X26720000Y-30600000D03*
%TO.P,R14,2*%
%TO.N,SCL*%
X26080000Y-30600000D03*
%TD*%
D22*
%TO.P,Q2,1*%
%TO.N,N/C*%
X30937500Y-70050000D03*
%TO.P,Q2,2*%
X30937500Y-71950000D03*
%TO.P,Q2,3*%
X29062500Y-71000000D03*
%TD*%
%TO.P,Q1,1*%
%TO.N,N/C*%
X14937500Y-70050000D03*
%TO.P,Q1,2*%
X14937500Y-71950000D03*
%TO.P,Q1,3*%
X13062500Y-71000000D03*
%TD*%
D14*
%TO.P,R4,1*%
%TO.N,+4V7*%
X22320000Y-75000000D03*
%TO.P,R4,2*%
%TO.N,Q2_BASE*%
X21680000Y-75000000D03*
%TD*%
D15*
%TO.P,R5,1*%
%TO.N,3V3*%
X5400000Y-21120000D03*
%TO.P,R5,2*%
%TO.N,SD_CS*%
X5400000Y-20480000D03*
%TD*%
%TO.P,R9,1*%
%TO.N,3V3*%
X9800000Y-21120000D03*
%TO.P,R9,2*%
%TO.N,SC_RESET*%
X9800000Y-20480000D03*
%TD*%
%TO.P,R7,1*%
%TO.N,3V3*%
X8400000Y-21120000D03*
%TO.P,R7,2*%
%TO.N,SD_DAT1*%
X8400000Y-20480000D03*
%TD*%
D23*
%TO.N,DME0*%
X42925400Y-44595200D03*
X24892500Y-41936400D03*
%TO.N,PC1500_SENSE*%
X22286000Y-58224700D03*
%TO.N,SRAM_CS*%
X30320000Y-40434600D03*
%TO.N,PV*%
X41395000Y-43662300D03*
X33468300Y-41168600D03*
X28636100Y-40754300D03*
X27697500Y-44219800D03*
%TO.N,SRAM_WE*%
X27853500Y-49665900D03*
%TO.N,SRAM_A14*%
X20640400Y-57439200D03*
%TO.N,VGG*%
X24884500Y-25411400D03*
X31928700Y-50268200D03*
X45862500Y-41371700D03*
X27512300Y-55711400D03*
X37426700Y-45661700D03*
X24226600Y-69019500D03*
X40034100Y-25684100D03*
X41300000Y-39933200D03*
X43886000Y-54875200D03*
X33935600Y-50255700D03*
%TO.N,SRAM_A13*%
X27526400Y-50560500D03*
%TO.N,SRAM_A12*%
X25266600Y-60587100D03*
X22484900Y-49917700D03*
%TO.N,GND*%
X11395000Y-3367700D03*
X31625000Y-20000000D03*
X27600000Y-28000000D03*
X35800000Y-36000000D03*
X32000000Y-26225000D03*
X38800000Y-31375000D03*
X36000000Y-22600000D03*
X5900000Y-14375000D03*
X3435000Y-3675000D03*
X18000000Y-61600000D03*
X46775000Y-19200000D03*
X42800000Y-37000000D03*
X23200000Y-64600000D03*
X42975000Y-14200000D03*
X12730000Y-14375000D03*
X43200000Y-8400000D03*
X26200000Y-68200000D03*
%TO.N,SRAM_A11*%
X30311100Y-42802300D03*
%TO.N,SDA_GP*%
X30712900Y-61990800D03*
X30402700Y-26751000D03*
%TO.N,SCL_GP*%
X30507900Y-60774400D03*
X42400000Y-62842300D03*
%TO.N,RW*%
X51992500Y-30570000D03*
%TO.N,AD15*%
X30504100Y-59325000D03*
X47503400Y-45700100D03*
X30023500Y-54248200D03*
X46094300Y-54615900D03*
%TO.N,AD14*%
X46540400Y-40825600D03*
X47305200Y-55440300D03*
X47529300Y-51640900D03*
X37829800Y-59157900D03*
%TO.N,AD13*%
X48139000Y-58702900D03*
X30503400Y-58025000D03*
X51606100Y-61329600D03*
X38900900Y-59441200D03*
%TO.N,AD12*%
X27652600Y-57375000D03*
%TO.N,AD11*%
X53704000Y-62476800D03*
X27675800Y-56567100D03*
%TO.N,AD0*%
X22482700Y-38310200D03*
%TO.N,AD1*%
X22488600Y-39112000D03*
%TO.N,AD2*%
X22280000Y-39913800D03*
%TO.N,AD3*%
X19161700Y-37940900D03*
%TO.N,AD4*%
X49045600Y-55970000D03*
X22279800Y-43737300D03*
%TO.N,AD5*%
X49223200Y-63732300D03*
X18831000Y-45042900D03*
%TO.N,AD6*%
X22476300Y-44801100D03*
%TO.N,AD7*%
X19141600Y-47420000D03*
%TO.N,AD8*%
X28175200Y-47461300D03*
X37226900Y-60870500D03*
%TO.N,AD9*%
X28933200Y-47838900D03*
X52549200Y-64838200D03*
%TO.N,AD10*%
X23412000Y-51231600D03*
X50905600Y-64406000D03*
X29769100Y-41138000D03*
%TO.N,D0*%
X40446700Y-23266700D03*
X23007100Y-33207300D03*
%TO.N,D1*%
X37151900Y-31610200D03*
X33444200Y-29171400D03*
X22326900Y-36056000D03*
%TO.N,D2*%
X22299000Y-34884200D03*
X47930300Y-40286600D03*
%TO.N,D3*%
X32778400Y-32129100D03*
%TO.N,D4*%
X36249900Y-37300000D03*
X33711900Y-36768700D03*
%TO.N,D5*%
X30521100Y-36132600D03*
%TO.N,D6*%
X33723500Y-39317600D03*
%TO.N,D7*%
X30356000Y-50019800D03*
X30528000Y-38654400D03*
X38632000Y-43019000D03*
%TO.N,TRIG_RD*%
X45862500Y-48646400D03*
X38023500Y-46526400D03*
%TO.N,SDA*%
X29680900Y-30103200D03*
%TO.N,SCL*%
X25198900Y-31735300D03*
X39137500Y-15644400D03*
%TO.N,3V3*%
X8970100Y-21690100D03*
X42071700Y-10474400D03*
X33175000Y-18060800D03*
X9195000Y-4632500D03*
%TO.N,+BATT*%
X40421400Y-28371400D03*
%TO.N,Net-(J2-CD{slash}DAT3)*%
X6171500Y-7294100D03*
%TO.N,SD_CS*%
X37574700Y-4602000D03*
X6773700Y-4944300D03*
%TO.N,SD_MOSI*%
X8095000Y-4604500D03*
X37890700Y-10825600D03*
%TO.N,SD_SCK*%
X43548800Y-11067200D03*
X10295000Y-4602000D03*
%TO.N,SD_MISO*%
X12495000Y-5203800D03*
X37893100Y-9950300D03*
%TO.N,SD_DAT1*%
X8576600Y-19735400D03*
%TO.N,SD_DAT2*%
X1271500Y-10036900D03*
%TO.N,SC_RESET*%
X37888200Y-9025000D03*
X9800000Y-19717500D03*
%TO.N,OD*%
X33697700Y-44369900D03*
%TO.N,+4V7*%
X22320000Y-74295000D03*
%TD*%
%TO.N,DME0*%
D10*
X37122500Y-34878300D02*
X42925400Y-40681200D01*
X30772100Y-33580000D02*
X33122600Y-33580000D01*
X33122600Y-33580000D02*
X34420900Y-34878300D01*
X24892500Y-39459600D02*
X30772100Y-33580000D01*
X24892500Y-41936400D02*
X24892500Y-39459600D01*
X34420900Y-34878300D02*
X37122500Y-34878300D01*
X42925400Y-40681200D02*
X42925400Y-44595200D01*
%TO.N,SRAM_CS*%
D24*
X31962500Y-39295000D02*
X31459600Y-39295000D01*
X31459600Y-39295000D02*
X30320000Y-40434600D01*
%TO.N,PV*%
D10*
X27697500Y-41692900D02*
X27697500Y-44219800D01*
X28636100Y-40754300D02*
X27697500Y-41692900D01*
%TO.N,SRAM_WE*%
X28702900Y-48816500D02*
X27853500Y-49665900D01*
X31331000Y-48816500D02*
X28702900Y-48816500D01*
X31962500Y-48185000D02*
X31331000Y-48816500D01*
%TO.N,SRAM_A14*%
X20837500Y-49455000D02*
X20837500Y-57242100D01*
X20837500Y-57242100D02*
X20640400Y-57439200D01*
%TO.N,VGG*%
X30320000Y-74833000D02*
X30320000Y-75000000D01*
X24506500Y-69019500D02*
X24506500Y-58717200D01*
X36099600Y-49207100D02*
X35425000Y-49881700D01*
X31962500Y-50234400D02*
X31928700Y-50268200D01*
D24*
X25827300Y-27575700D02*
X24786800Y-27575700D01*
D10*
X41300000Y-40127400D02*
X40592300Y-40127400D01*
X24884500Y-25411400D02*
X25827300Y-26354200D01*
X40592300Y-40127400D02*
X37426700Y-43293000D01*
X43886000Y-54875200D02*
X42156000Y-53145200D01*
X42156000Y-40983400D02*
X41300000Y-40127400D01*
X37426700Y-45661700D02*
X36099600Y-46988800D01*
D24*
X24786800Y-27575700D02*
X24687500Y-27675000D01*
D10*
X24506500Y-69019500D02*
X30320000Y-74833000D01*
X42156000Y-53145200D02*
X42156000Y-40983400D01*
X23175000Y-24200000D02*
X23673100Y-24200000D01*
X36099600Y-46988800D02*
X36099600Y-49207100D01*
X25827300Y-26354200D02*
X25827300Y-27575700D01*
X34309600Y-49881700D02*
X33935600Y-50255700D01*
X37426700Y-43293000D02*
X37426700Y-45661700D01*
X23673100Y-24200000D02*
X24884500Y-25411400D01*
X35425000Y-49881700D02*
X34309600Y-49881700D01*
X31962500Y-49455000D02*
X31962500Y-50234400D01*
X24506500Y-58717200D02*
X27512300Y-55711400D01*
X24226600Y-69019500D02*
X24506500Y-69019500D01*
X41300000Y-40127400D02*
X41300000Y-39933200D01*
%TO.N,SRAM_A13*%
D24*
X31962500Y-46915000D02*
X30672700Y-46915000D01*
X29147900Y-48439800D02*
X27527900Y-48439800D01*
D10*
X27251800Y-50285900D02*
X27526400Y-50560500D01*
D24*
X27527900Y-48439800D02*
X27526400Y-48441300D01*
X30672700Y-46915000D02*
X29147900Y-48439800D01*
D10*
X27251800Y-48715900D02*
X27251800Y-50285900D01*
X27526400Y-48441300D02*
X27251800Y-48715900D01*
%TO.N,SRAM_A12*%
X21345400Y-48185000D02*
X22484900Y-49324500D01*
X20837500Y-48185000D02*
X21345400Y-48185000D01*
X22484900Y-49324500D02*
X22484900Y-49917700D01*
%TO.N,GND*%
X18122700Y-35017300D02*
X18260200Y-35017300D01*
X28912500Y-27675000D02*
X27925000Y-27675000D01*
X27925000Y-27675000D02*
X27600000Y-28000000D01*
D24*
X20332500Y-32945000D02*
X18260200Y-35017300D01*
D10*
X17110000Y-23330000D02*
X20755000Y-23330000D01*
X20755000Y-23330000D02*
X21625000Y-24200000D01*
D25*
X35270000Y-23330000D02*
X36000000Y-22600000D01*
D10*
X17110000Y-36030000D02*
X18122700Y-35017300D01*
D24*
X20837500Y-32945000D02*
X20332500Y-32945000D01*
%TO.N,SRAM_A11*%
D10*
X30613800Y-43105000D02*
X30311100Y-42802300D01*
X31962500Y-43105000D02*
X30613800Y-43105000D01*
%TO.N,SDA_GP*%
X28912500Y-27025000D02*
X29186500Y-26751000D01*
X29186500Y-26751000D02*
X30402700Y-26751000D01*
%TO.N,SCL_GP*%
X23622200Y-32822900D02*
X23622200Y-50590900D01*
X24687500Y-27025000D02*
X23878300Y-27025000D01*
X23554700Y-32755400D02*
X23622200Y-32822900D01*
X23878300Y-27025000D02*
X23554700Y-27348600D01*
X29257000Y-59523500D02*
X30507900Y-60774400D01*
X23554700Y-27348600D02*
X23554700Y-32755400D01*
X23622200Y-50590900D02*
X29257000Y-56225700D01*
X29257000Y-56225700D02*
X29257000Y-59523500D01*
%TO.N,AD15*%
X29867300Y-54404400D02*
X30023500Y-54248200D01*
X46799400Y-46404100D02*
X47503400Y-45700100D01*
X46799400Y-53910800D02*
X46799400Y-46404100D01*
X30504100Y-59325000D02*
X29867300Y-58688200D01*
X29867300Y-58688200D02*
X29867300Y-54404400D01*
X46094300Y-54615900D02*
X46799400Y-53910800D01*
%TO.N,AD14*%
X47529300Y-55216200D02*
X47529300Y-51640900D01*
X47305200Y-55440300D02*
X47529300Y-55216200D01*
X48105200Y-51065000D02*
X48105200Y-42390400D01*
X48105200Y-42390400D02*
X46540400Y-40825600D01*
X47529300Y-51640900D02*
X48105200Y-51065000D01*
%TO.N,AD13*%
X32520100Y-60041700D02*
X35138100Y-60041700D01*
X38900900Y-60093600D02*
X38900900Y-59441200D01*
X35138100Y-60041700D02*
X36568700Y-61472300D01*
X30503400Y-58025000D02*
X32520100Y-60041700D01*
X37522200Y-61472300D02*
X38900900Y-60093600D01*
X36568700Y-61472300D02*
X37522200Y-61472300D01*
%TO.N,AD11*%
X54976300Y-59339400D02*
X54976300Y-60220700D01*
X56040000Y-57240000D02*
X56040000Y-58275700D01*
X54976300Y-60220700D02*
X55256200Y-60500600D01*
X55256200Y-60500600D02*
X55256200Y-61433200D01*
X55256200Y-61433200D02*
X54212600Y-62476800D01*
X54212600Y-62476800D02*
X53704000Y-62476800D01*
X56040000Y-58275700D02*
X54976300Y-59339400D01*
%TO.N,AD0*%
X20837500Y-38025000D02*
X22197500Y-38025000D01*
X22197500Y-38025000D02*
X22482700Y-38310200D01*
%TO.N,AD1*%
X20837500Y-39295000D02*
X21020500Y-39112000D01*
X21020500Y-39112000D02*
X22488600Y-39112000D01*
%TO.N,AD2*%
D24*
X20837500Y-40565000D02*
X21488700Y-39913800D01*
X21488700Y-39913800D02*
X22280000Y-39913800D01*
%TO.N,AD3*%
X19161700Y-41835000D02*
X20837500Y-41835000D01*
D10*
X19161700Y-41835000D02*
X19161700Y-37940900D01*
%TO.N,AD4*%
D24*
X20837500Y-43105000D02*
X21469800Y-43737300D01*
X21469800Y-43737300D02*
X22279800Y-43737300D01*
%TO.N,AD5*%
D10*
X50325000Y-58510000D02*
X49223200Y-59611800D01*
D24*
X18831000Y-45042900D02*
X20169600Y-45042900D01*
X20169600Y-45042900D02*
X20837500Y-44375000D01*
D10*
X49223200Y-59611800D02*
X49223200Y-63732300D01*
%TO.N,AD6*%
D24*
X20837500Y-45645000D02*
X21632400Y-45645000D01*
X21632400Y-45645000D02*
X22476300Y-44801100D01*
%TO.N,AD7*%
D10*
X19646600Y-46915000D02*
X19141600Y-47420000D01*
X20837500Y-46915000D02*
X19646600Y-46915000D01*
%TO.N,AD8*%
X33262400Y-56368700D02*
X34513700Y-57620000D01*
X32486900Y-45645000D02*
X33428800Y-46586900D01*
X35276900Y-57620000D02*
X37226900Y-59570000D01*
X33428800Y-49768700D02*
X33262400Y-49935100D01*
X33428800Y-46586900D02*
X33428800Y-49768700D01*
X29991500Y-45645000D02*
X28175200Y-47461300D01*
X37226900Y-59570000D02*
X37226900Y-60870500D01*
X31962500Y-45645000D02*
X29991500Y-45645000D01*
X34513700Y-57620000D02*
X35276900Y-57620000D01*
X33262400Y-49935100D02*
X33262400Y-56368700D01*
X31962500Y-45645000D02*
X32486900Y-45645000D01*
%TO.N,AD9*%
X28709000Y-48063100D02*
X27924500Y-48063100D01*
X27573400Y-47212300D02*
X30410700Y-44375000D01*
X27573400Y-47712000D02*
X27573400Y-47212300D01*
X27924500Y-48063100D02*
X27573400Y-47712000D01*
X30410700Y-44375000D02*
X31962500Y-44375000D01*
X28933200Y-47838900D02*
X28709000Y-48063100D01*
%TO.N,AD10*%
X31962500Y-40565000D02*
X31389500Y-41138000D01*
X31389500Y-41138000D02*
X29769100Y-41138000D01*
%TO.N,D0*%
X18204800Y-44801500D02*
X18204800Y-45531200D01*
X18280400Y-38257000D02*
X18280400Y-44725900D01*
X18278500Y-57721500D02*
X17110000Y-58890000D01*
X20837500Y-36755000D02*
X22494200Y-36755000D01*
X23007100Y-36242100D02*
X23007100Y-33207300D01*
X20837500Y-36755000D02*
X19782400Y-36755000D01*
X22494200Y-36755000D02*
X23007100Y-36242100D01*
X18560000Y-37977400D02*
X18280400Y-38257000D01*
X18912600Y-37339200D02*
X18560000Y-37691800D01*
X18280400Y-44725900D02*
X18204800Y-44801500D01*
X19782400Y-36755000D02*
X19198200Y-37339200D01*
X18204800Y-45531200D02*
X18278500Y-45604900D01*
X19198200Y-37339200D02*
X18912600Y-37339200D01*
X18278500Y-45604900D02*
X18278500Y-57721500D01*
X52230000Y-31840000D02*
X49020000Y-31840000D01*
X18560000Y-37691800D02*
X18560000Y-37977400D01*
X49020000Y-31840000D02*
X40446700Y-23266700D01*
%TO.N,D1*%
X35356500Y-29680000D02*
X33952800Y-29680000D01*
X37151900Y-31475400D02*
X35356500Y-29680000D01*
X16719100Y-37300000D02*
X15958200Y-38060900D01*
X21755900Y-35485000D02*
X22326900Y-36056000D01*
X20837500Y-35485000D02*
X21755900Y-35485000D01*
X19608700Y-35485000D02*
X17793700Y-37300000D01*
X33952800Y-29680000D02*
X33444200Y-29171400D01*
X15958200Y-62818200D02*
X17110000Y-63970000D01*
X37151900Y-31610200D02*
X37151900Y-31475400D01*
X20837500Y-35485000D02*
X19608700Y-35485000D01*
X15958200Y-38060900D02*
X15958200Y-62818200D01*
X17793700Y-37300000D02*
X16719100Y-37300000D01*
%TO.N,D2*%
D24*
X22299000Y-34884200D02*
X21506700Y-34884200D01*
X21506700Y-34884200D02*
X20837500Y-34215000D01*
D10*
X49995400Y-36986300D02*
X47930300Y-39051400D01*
X47930300Y-39051400D02*
X47930300Y-40286600D01*
X52230000Y-34380000D02*
X52230000Y-35260000D01*
X50503700Y-36986300D02*
X49995400Y-36986300D01*
X52230000Y-35260000D02*
X50503700Y-36986300D01*
%TO.N,D3*%
X31962500Y-32945000D02*
X32778400Y-32129100D01*
%TO.N,D4*%
X33000000Y-34717200D02*
X33000000Y-34719300D01*
X33444500Y-35161700D02*
X33711900Y-35429100D01*
X33442400Y-35161700D02*
X33444500Y-35161700D01*
X32497800Y-34215000D02*
X33000000Y-34717200D01*
X31962500Y-34215000D02*
X32497800Y-34215000D01*
X33711900Y-35429100D02*
X33711900Y-36768700D01*
X33000000Y-34719300D02*
X33442400Y-35161700D01*
%TO.N,D5*%
X26850100Y-39803600D02*
X30521100Y-36132600D01*
X26850100Y-50774500D02*
X26850100Y-39803600D01*
X34890000Y-58890000D02*
X30625200Y-54625200D01*
X30625200Y-53999000D02*
X30272700Y-53646500D01*
X30272700Y-53646500D02*
X29722100Y-53646500D01*
D24*
X31962500Y-35485000D02*
X31168700Y-35485000D01*
X31168700Y-35485000D02*
X30521100Y-36132600D01*
D10*
X30625200Y-54625200D02*
X30625200Y-53999000D01*
X29722100Y-53646500D02*
X26850100Y-50774500D01*
%TO.N,D6*%
X32480900Y-36755000D02*
X33723400Y-37997500D01*
X33723400Y-37997500D02*
X33723400Y-39317600D01*
X33723400Y-39317600D02*
X33723500Y-39317600D01*
X31962500Y-36755000D02*
X32480900Y-36755000D01*
%TO.N,D7*%
X34890000Y-53810000D02*
X38632000Y-50068000D01*
D24*
X31333100Y-38654400D02*
X30528000Y-38654400D01*
D10*
X38632000Y-50068000D02*
X38632000Y-43019000D01*
D24*
X31962500Y-38025000D02*
X31333100Y-38654400D01*
%TO.N,TRIG_RD*%
D10*
X34890000Y-51270000D02*
X38023500Y-48136500D01*
X38023500Y-48136500D02*
X38023500Y-46526400D01*
%TO.N,SDA*%
X29680900Y-29743400D02*
X29680900Y-30103200D01*
X31080000Y-29200000D02*
X29137500Y-29200000D01*
X29137500Y-29200000D02*
X28912500Y-28975000D01*
X28912500Y-28975000D02*
X29680900Y-29743400D01*
%TO.N,SCL*%
X24687500Y-28975000D02*
X24687500Y-31223900D01*
X26080000Y-30367500D02*
X26080000Y-30600000D01*
X24687500Y-31223900D02*
X25198900Y-31735300D01*
X24687500Y-28975000D02*
X26080000Y-30367500D01*
%TO.N,3V3*%
D25*
X31850000Y-28325000D02*
X28912500Y-28325000D01*
D10*
X28812500Y-28425000D02*
X28912500Y-28325000D01*
X24687500Y-28325000D02*
X24787500Y-28425000D01*
X26720000Y-28680000D02*
X26720000Y-30600000D01*
X7836100Y-21120000D02*
X8400000Y-21120000D01*
X8400000Y-21120000D02*
X8970100Y-21690100D01*
X8400000Y-21120000D02*
X9800000Y-21120000D01*
X31720000Y-29200000D02*
X31720000Y-28455000D01*
X28045494Y-28425000D02*
X28812500Y-28425000D01*
X26800000Y-28600000D02*
X27870494Y-28600000D01*
D25*
X34890000Y-28410000D02*
X33035000Y-28410000D01*
D10*
X4400000Y-21120000D02*
X3000000Y-21120000D01*
D25*
X33175000Y-20000000D02*
X33175000Y-18060800D01*
D10*
X7836100Y-21120000D02*
X7836100Y-5991400D01*
X24787500Y-28425000D02*
X25554506Y-28425000D01*
X31720000Y-28455000D02*
X31850000Y-28325000D01*
D25*
X33175000Y-27000000D02*
X33175000Y-20000000D01*
D10*
X5400000Y-21120000D02*
X6900000Y-21120000D01*
X27870494Y-28600000D02*
X28045494Y-28425000D01*
X25554506Y-28425000D02*
X25729506Y-28600000D01*
D25*
X32400000Y-27775000D02*
X31850000Y-28325000D01*
D10*
X7836100Y-5991400D02*
X9195000Y-4632500D01*
X26800000Y-28600000D02*
X26720000Y-28680000D01*
D25*
X33035000Y-28410000D02*
X32400000Y-27775000D01*
D10*
X25729506Y-28600000D02*
X26800000Y-28600000D01*
X4400000Y-21120000D02*
X5400000Y-21120000D01*
D25*
X32400000Y-27775000D02*
X33175000Y-27000000D01*
D10*
X6900000Y-21120000D02*
X7836100Y-21120000D01*
%TO.N,VBUS*%
X43747100Y-27558400D02*
X43747100Y-53119500D01*
X43747100Y-53119500D02*
X47154500Y-56526900D01*
X34890000Y-18250000D02*
X34890000Y-18701300D01*
X47154500Y-69445500D02*
X46600000Y-70000000D01*
X47154500Y-56526900D02*
X47154500Y-69445500D01*
X34890000Y-18701300D02*
X43747100Y-27558400D01*
%TO.N,+BATT*%
X53024300Y-48826700D02*
X53024300Y-47873300D01*
X53338100Y-55179500D02*
X53338100Y-54220500D01*
X53019400Y-56441800D02*
X53019400Y-55498200D01*
X53004600Y-58053000D02*
X53330700Y-57726900D01*
X53024100Y-50413500D02*
X53340500Y-50097100D01*
X51785200Y-67614800D02*
X51785200Y-62001400D01*
X53023100Y-53905500D02*
X53023100Y-52954500D01*
X53340000Y-52637600D02*
X53340000Y-51682400D01*
X54135000Y-44222600D02*
X54135000Y-43270000D01*
X53340000Y-51682400D02*
X53024100Y-51366500D01*
X53004600Y-58967000D02*
X53004600Y-58053000D01*
X53301100Y-59263500D02*
X53004600Y-58967000D01*
X53338100Y-54220500D02*
X53023100Y-53905500D01*
X53340500Y-50097100D02*
X53340500Y-49142900D01*
X53023100Y-52954500D02*
X53340000Y-52637600D01*
X53019400Y-55498200D02*
X53338100Y-55179500D01*
X53340600Y-47557000D02*
X53340600Y-46603000D01*
X52326700Y-61459900D02*
X52326700Y-61270900D01*
X53301100Y-60296500D02*
X53301100Y-59263500D01*
X53024400Y-46286800D02*
X53024400Y-45333200D01*
X53330700Y-56753100D02*
X53019400Y-56441800D01*
X53340600Y-46603000D02*
X53024400Y-46286800D01*
X49400000Y-70000000D02*
X51785200Y-67614800D01*
X53024400Y-45333200D02*
X54135000Y-44222600D01*
X52326700Y-61270900D02*
X53301100Y-60296500D01*
X53024100Y-51366500D02*
X53024100Y-50413500D01*
X53330700Y-57726900D02*
X53330700Y-56753100D01*
X51785200Y-62001400D02*
X52326700Y-61459900D01*
X53340500Y-49142900D02*
X53024300Y-48826700D01*
X53024300Y-47873300D02*
X53340600Y-47557000D01*
%TO.N,Net-(J2-CD{slash}DAT3)*%
X4400000Y-9065600D02*
X6171500Y-7294100D01*
X4400000Y-20480000D02*
X4400000Y-9065600D01*
%TO.N,SD_CS*%
X6773700Y-19106300D02*
X6773700Y-4944300D01*
X5400000Y-20480000D02*
X6773700Y-19106300D01*
%TO.N,SD_MOSI*%
X7301700Y-20078300D02*
X7301700Y-5397800D01*
X7301700Y-5397800D02*
X8095000Y-4604500D01*
X6900000Y-20480000D02*
X7301700Y-20078300D01*
%TO.N,SD_DAT1*%
X8576600Y-19735400D02*
X8400000Y-19912000D01*
X8400000Y-19912000D02*
X8400000Y-20480000D01*
%TO.N,SD_DAT2*%
X1271500Y-18751500D02*
X1271500Y-10036900D01*
X3000000Y-20480000D02*
X1271500Y-18751500D01*
%TO.N,SC_RESET*%
X9800000Y-19717500D02*
X9800000Y-20480000D01*
%TO.N,OD*%
X32528300Y-41835000D02*
X33697700Y-43004400D01*
X31962500Y-41835000D02*
X32528300Y-41835000D01*
X33697700Y-43004400D02*
X33697700Y-44369900D01*
%TO.N,+4V7*%
X50960000Y-48350000D02*
X52230000Y-47080000D01*
X50325000Y-48350000D02*
X50960000Y-48350000D01*
X22320000Y-75000000D02*
X22320000Y-74295000D01*
%TD*%
M02*
