%TF.GenerationSoftware,KiCad,Pcbnew,10.0.5*%
%TF.CreationDate,2026-09-21T14:48:14+02:00*%
%TF.ProjectId,PC1500-Pico2W-Dongle,50433135-3030-42d5-9069-636f32572d44,rev?*%
%TF.SameCoordinates,Original*%
%TF.FileFunction,Paste,Top*%
%TF.FilePolarity,Positive*%
%FSLAX46Y46*%
G04 Gerber Fmt 4.6, Leading zero omitted, Abs format (unit mm)*
G04 Created by KiCad (PCBNEW 10.0.5) date 2026-09-21 14:48:14*
%MOMM*%
%LPD*%
G01*
G04 APERTURE LIST*
G04 Aperture macros list*
%AMRoundRect*
0 Rectangle with rounded corners*
0 $1 Rounding radius*
0 $2 $3 $4 $5 $6 $7 $8 $9 X,Y pos of 4 corners*
0 Add a 4 corners polygon primitive as box body*
4,1,4,$2,$3,$4,$5,$6,$7,$8,$9,$2,$3,0*
0 Add four circle primitives for the rounded corners*
1,1,$1+$1,$2,$3*
1,1,$1+$1,$4,$5*
1,1,$1+$1,$6,$7*
1,1,$1+$1,$8,$9*
0 Add four rect primitives between the rounded corners*
20,1,$1+$1,$2,$3,$4,$5,0*
20,1,$1+$1,$4,$5,$6,$7,0*
20,1,$1+$1,$6,$7,$8,$9,0*
20,1,$1+$1,$8,$9,$2,$3,0*%
G04 Aperture macros list end*
%ADD10RoundRect,0.100000X-0.637500X-0.100000X0.637500X-0.100000X0.637500X0.100000X-0.637500X0.100000X0*%
%ADD11RoundRect,0.079500X-0.079500X-0.100500X0.079500X-0.100500X0.079500X0.100500X-0.079500X0.100500X0*%
%ADD12RoundRect,0.225000X-0.225000X-0.250000X0.225000X-0.250000X0.225000X0.250000X-0.225000X0.250000X0*%
%ADD13RoundRect,0.225000X-0.250000X0.225000X-0.250000X-0.225000X0.250000X-0.225000X0.250000X0.225000X0*%
%ADD14RoundRect,0.375000X-0.625000X-0.375000X0.625000X-0.375000X0.625000X0.375000X-0.625000X0.375000X0*%
%ADD15RoundRect,0.500000X-0.500000X-1.400000X0.500000X-1.400000X0.500000X1.400000X-0.500000X1.400000X0*%
%ADD16R,0.850000X1.100000*%
%ADD17R,0.750000X1.100000*%
%ADD18R,1.200000X1.000000*%
%ADD19R,1.550000X1.350000*%
%ADD20R,1.900000X1.350000*%
%ADD21R,1.170000X1.800000*%
%ADD22RoundRect,0.079500X0.079500X0.100500X-0.079500X0.100500X-0.079500X-0.100500X0.079500X-0.100500X0*%
G04 APERTURE END LIST*
D10*
%TO.C,U3*%
X23537500Y-56075000D03*
X23537500Y-56725000D03*
X23537500Y-57375000D03*
X23537500Y-58025000D03*
X23537500Y-58675000D03*
X23537500Y-59325000D03*
X23537500Y-59975000D03*
X23537500Y-60625000D03*
X23537500Y-61275000D03*
X23537500Y-61925000D03*
X29262500Y-61925000D03*
X29262500Y-61275000D03*
X29262500Y-60625000D03*
X29262500Y-59975000D03*
X29262500Y-59325000D03*
X29262500Y-58675000D03*
X29262500Y-58025000D03*
X29262500Y-57375000D03*
X29262500Y-56725000D03*
X29262500Y-56075000D03*
%TD*%
D11*
%TO.C,R2*%
X41655000Y-38700000D03*
X42345000Y-38700000D03*
%TD*%
D12*
%TO.C,C6*%
X41425000Y-14200000D03*
X42975000Y-14200000D03*
%TD*%
D13*
%TO.C,C1*%
X38800000Y-29825000D03*
X38800000Y-31375000D03*
%TD*%
D14*
%TO.C,U7*%
X38850000Y-22200000D03*
X38850000Y-24500000D03*
D15*
X45150000Y-24500000D03*
D14*
X38850000Y-26800000D03*
%TD*%
D11*
%TO.C,R1*%
X41055000Y-36500000D03*
X41745000Y-36500000D03*
%TD*%
D16*
%TO.C,J2*%
X5895000Y-3550000D03*
X6995000Y-3550000D03*
X8095000Y-3550000D03*
X9195000Y-3550000D03*
X10295000Y-3550000D03*
X11395000Y-3550000D03*
X12495000Y-3550000D03*
D17*
X13545000Y-3550000D03*
D18*
X3260000Y-9700000D03*
X3260000Y-13400000D03*
D19*
X3435000Y-3675000D03*
D20*
X6760000Y-14375000D03*
X12730000Y-14375000D03*
D21*
X14755000Y-3900000D03*
%TD*%
D12*
%TO.C,C4*%
X24225000Y-70000000D03*
X25775000Y-70000000D03*
%TD*%
D10*
%TO.C,U5*%
X39137500Y-7725000D03*
X39137500Y-8375000D03*
X39137500Y-9025000D03*
X39137500Y-9675000D03*
X39137500Y-10325000D03*
X39137500Y-10975000D03*
X39137500Y-11625000D03*
X39137500Y-12275000D03*
X44862500Y-12275000D03*
X44862500Y-11625000D03*
X44862500Y-10975000D03*
X44862500Y-10325000D03*
X44862500Y-9675000D03*
X44862500Y-9025000D03*
X44862500Y-8375000D03*
X44862500Y-7725000D03*
%TD*%
D12*
%TO.C,C2*%
X45225000Y-19200000D03*
X46775000Y-19200000D03*
%TD*%
D10*
%TO.C,U4*%
X40137500Y-42075000D03*
X40137500Y-42725000D03*
X40137500Y-43375000D03*
X40137500Y-44025000D03*
X40137500Y-44675000D03*
X40137500Y-45325000D03*
X40137500Y-45975000D03*
X40137500Y-46625000D03*
X40137500Y-47275000D03*
X40137500Y-47925000D03*
X45862500Y-47925000D03*
X45862500Y-47275000D03*
X45862500Y-46625000D03*
X45862500Y-45975000D03*
X45862500Y-45325000D03*
X45862500Y-44675000D03*
X45862500Y-44025000D03*
X45862500Y-43375000D03*
X45862500Y-42725000D03*
X45862500Y-42075000D03*
%TD*%
D22*
%TO.C,R11*%
X42745000Y-59450000D03*
X42055000Y-59450000D03*
%TD*%
D13*
%TO.C,C5*%
X37000000Y-46225000D03*
X37000000Y-47775000D03*
%TD*%
D11*
%TO.C,R12*%
X42655000Y-61200000D03*
X43345000Y-61200000D03*
%TD*%
M02*
