%TF.GenerationSoftware,KiCad,Pcbnew,10.0.5*%
%TF.CreationDate,2026-09-21T14:48:14+02:00*%
%TF.ProjectId,PC1500-Pico2W-Dongle,50433135-3030-42d5-9069-636f32572d44,rev?*%
%TF.SameCoordinates,Original*%
%TF.FileFunction,Legend,Top*%
%TF.FilePolarity,Positive*%
%FSLAX46Y46*%
G04 Gerber Fmt 4.6, Leading zero omitted, Abs format (unit mm)*
G04 Created by KiCad (PCBNEW 10.0.5) date 2026-09-21 14:48:14*
%MOMM*%
%LPD*%
G01*
G04 APERTURE LIST*
%ADD10C,0.300000*%
%ADD11C,0.150000*%
%ADD12C,0.120000*%
G04 APERTURE END LIST*
D10*
X14354510Y-18599171D02*
X15497368Y-18170600D01*
X15497368Y-18170600D02*
X14354510Y-17742028D01*
D11*
X25638095Y-54254819D02*
X25638095Y-55064342D01*
X25638095Y-55064342D02*
X25685714Y-55159580D01*
X25685714Y-55159580D02*
X25733333Y-55207200D01*
X25733333Y-55207200D02*
X25828571Y-55254819D01*
X25828571Y-55254819D02*
X26019047Y-55254819D01*
X26019047Y-55254819D02*
X26114285Y-55207200D01*
X26114285Y-55207200D02*
X26161904Y-55159580D01*
X26161904Y-55159580D02*
X26209523Y-55064342D01*
X26209523Y-55064342D02*
X26209523Y-54254819D01*
X26590476Y-54254819D02*
X27209523Y-54254819D01*
X27209523Y-54254819D02*
X26876190Y-54635771D01*
X26876190Y-54635771D02*
X27019047Y-54635771D01*
X27019047Y-54635771D02*
X27114285Y-54683390D01*
X27114285Y-54683390D02*
X27161904Y-54731009D01*
X27161904Y-54731009D02*
X27209523Y-54826247D01*
X27209523Y-54826247D02*
X27209523Y-55064342D01*
X27209523Y-55064342D02*
X27161904Y-55159580D01*
X27161904Y-55159580D02*
X27114285Y-55207200D01*
X27114285Y-55207200D02*
X27019047Y-55254819D01*
X27019047Y-55254819D02*
X26733333Y-55254819D01*
X26733333Y-55254819D02*
X26638095Y-55207200D01*
X26638095Y-55207200D02*
X26590476Y-55159580D01*
X25238095Y-13954819D02*
X25238095Y-14764342D01*
X25238095Y-14764342D02*
X25285714Y-14859580D01*
X25285714Y-14859580D02*
X25333333Y-14907200D01*
X25333333Y-14907200D02*
X25428571Y-14954819D01*
X25428571Y-14954819D02*
X25619047Y-14954819D01*
X25619047Y-14954819D02*
X25714285Y-14907200D01*
X25714285Y-14907200D02*
X25761904Y-14859580D01*
X25761904Y-14859580D02*
X25809523Y-14764342D01*
X25809523Y-14764342D02*
X25809523Y-13954819D01*
X26809523Y-14954819D02*
X26238095Y-14954819D01*
X26523809Y-14954819D02*
X26523809Y-13954819D01*
X26523809Y-13954819D02*
X26428571Y-14097676D01*
X26428571Y-14097676D02*
X26333333Y-14192914D01*
X26333333Y-14192914D02*
X26238095Y-14240533D01*
X41833333Y-38104819D02*
X41500000Y-37628628D01*
X41261905Y-38104819D02*
X41261905Y-37104819D01*
X41261905Y-37104819D02*
X41642857Y-37104819D01*
X41642857Y-37104819D02*
X41738095Y-37152438D01*
X41738095Y-37152438D02*
X41785714Y-37200057D01*
X41785714Y-37200057D02*
X41833333Y-37295295D01*
X41833333Y-37295295D02*
X41833333Y-37438152D01*
X41833333Y-37438152D02*
X41785714Y-37533390D01*
X41785714Y-37533390D02*
X41738095Y-37581009D01*
X41738095Y-37581009D02*
X41642857Y-37628628D01*
X41642857Y-37628628D02*
X41261905Y-37628628D01*
X42214286Y-37200057D02*
X42261905Y-37152438D01*
X42261905Y-37152438D02*
X42357143Y-37104819D01*
X42357143Y-37104819D02*
X42595238Y-37104819D01*
X42595238Y-37104819D02*
X42690476Y-37152438D01*
X42690476Y-37152438D02*
X42738095Y-37200057D01*
X42738095Y-37200057D02*
X42785714Y-37295295D01*
X42785714Y-37295295D02*
X42785714Y-37390533D01*
X42785714Y-37390533D02*
X42738095Y-37533390D01*
X42738095Y-37533390D02*
X42166667Y-38104819D01*
X42166667Y-38104819D02*
X42785714Y-38104819D01*
X42439819Y-73428333D02*
X43154104Y-73428333D01*
X43154104Y-73428333D02*
X43296961Y-73475952D01*
X43296961Y-73475952D02*
X43392200Y-73571190D01*
X43392200Y-73571190D02*
X43439819Y-73714047D01*
X43439819Y-73714047D02*
X43439819Y-73809285D01*
X43439819Y-72952142D02*
X42439819Y-72952142D01*
X42439819Y-72952142D02*
X42439819Y-72571190D01*
X42439819Y-72571190D02*
X42487438Y-72475952D01*
X42487438Y-72475952D02*
X42535057Y-72428333D01*
X42535057Y-72428333D02*
X42630295Y-72380714D01*
X42630295Y-72380714D02*
X42773152Y-72380714D01*
X42773152Y-72380714D02*
X42868390Y-72428333D01*
X42868390Y-72428333D02*
X42916009Y-72475952D01*
X42916009Y-72475952D02*
X42963628Y-72571190D01*
X42963628Y-72571190D02*
X42963628Y-72952142D01*
X42439819Y-72047380D02*
X42439819Y-71428333D01*
X42439819Y-71428333D02*
X42820771Y-71761666D01*
X42820771Y-71761666D02*
X42820771Y-71618809D01*
X42820771Y-71618809D02*
X42868390Y-71523571D01*
X42868390Y-71523571D02*
X42916009Y-71475952D01*
X42916009Y-71475952D02*
X43011247Y-71428333D01*
X43011247Y-71428333D02*
X43249342Y-71428333D01*
X43249342Y-71428333D02*
X43344580Y-71475952D01*
X43344580Y-71475952D02*
X43392200Y-71523571D01*
X43392200Y-71523571D02*
X43439819Y-71618809D01*
X43439819Y-71618809D02*
X43439819Y-71904523D01*
X43439819Y-71904523D02*
X43392200Y-71999761D01*
X43392200Y-71999761D02*
X43344580Y-72047380D01*
X53166666Y-6534819D02*
X53166666Y-7249104D01*
X53166666Y-7249104D02*
X53119047Y-7391961D01*
X53119047Y-7391961D02*
X53023809Y-7487200D01*
X53023809Y-7487200D02*
X52880952Y-7534819D01*
X52880952Y-7534819D02*
X52785714Y-7534819D01*
X53547619Y-6534819D02*
X54166666Y-6534819D01*
X54166666Y-6534819D02*
X53833333Y-6915771D01*
X53833333Y-6915771D02*
X53976190Y-6915771D01*
X53976190Y-6915771D02*
X54071428Y-6963390D01*
X54071428Y-6963390D02*
X54119047Y-7011009D01*
X54119047Y-7011009D02*
X54166666Y-7106247D01*
X54166666Y-7106247D02*
X54166666Y-7344342D01*
X54166666Y-7344342D02*
X54119047Y-7439580D01*
X54119047Y-7439580D02*
X54071428Y-7487200D01*
X54071428Y-7487200D02*
X53976190Y-7534819D01*
X53976190Y-7534819D02*
X53690476Y-7534819D01*
X53690476Y-7534819D02*
X53595238Y-7487200D01*
X53595238Y-7487200D02*
X53547619Y-7439580D01*
D12*
X54969423Y-9823855D02*
X54969423Y-9023855D01*
X55350375Y-9823855D02*
X55350375Y-9023855D01*
X55350375Y-9023855D02*
X55807518Y-9823855D01*
X55807518Y-9823855D02*
X55807518Y-9023855D01*
X56074184Y-9023855D02*
X56531327Y-9023855D01*
X56302755Y-9823855D02*
X56302755Y-9023855D01*
X55388470Y-11601950D02*
X55312280Y-11563855D01*
X55312280Y-11563855D02*
X55197994Y-11563855D01*
X55197994Y-11563855D02*
X55083708Y-11601950D01*
X55083708Y-11601950D02*
X55007518Y-11678140D01*
X55007518Y-11678140D02*
X54969423Y-11754331D01*
X54969423Y-11754331D02*
X54931327Y-11906712D01*
X54931327Y-11906712D02*
X54931327Y-12020998D01*
X54931327Y-12020998D02*
X54969423Y-12173379D01*
X54969423Y-12173379D02*
X55007518Y-12249569D01*
X55007518Y-12249569D02*
X55083708Y-12325760D01*
X55083708Y-12325760D02*
X55197994Y-12363855D01*
X55197994Y-12363855D02*
X55274185Y-12363855D01*
X55274185Y-12363855D02*
X55388470Y-12325760D01*
X55388470Y-12325760D02*
X55426566Y-12287664D01*
X55426566Y-12287664D02*
X55426566Y-12020998D01*
X55426566Y-12020998D02*
X55274185Y-12020998D01*
X55769423Y-12363855D02*
X55769423Y-11563855D01*
X55769423Y-11563855D02*
X56074185Y-11563855D01*
X56074185Y-11563855D02*
X56150375Y-11601950D01*
X56150375Y-11601950D02*
X56188470Y-11640045D01*
X56188470Y-11640045D02*
X56226566Y-11716236D01*
X56226566Y-11716236D02*
X56226566Y-11830521D01*
X56226566Y-11830521D02*
X56188470Y-11906712D01*
X56188470Y-11906712D02*
X56150375Y-11944807D01*
X56150375Y-11944807D02*
X56074185Y-11982902D01*
X56074185Y-11982902D02*
X55769423Y-11982902D01*
X56531327Y-11640045D02*
X56569423Y-11601950D01*
X56569423Y-11601950D02*
X56645613Y-11563855D01*
X56645613Y-11563855D02*
X56836089Y-11563855D01*
X56836089Y-11563855D02*
X56912280Y-11601950D01*
X56912280Y-11601950D02*
X56950375Y-11640045D01*
X56950375Y-11640045D02*
X56988470Y-11716236D01*
X56988470Y-11716236D02*
X56988470Y-11792426D01*
X56988470Y-11792426D02*
X56950375Y-11906712D01*
X56950375Y-11906712D02*
X56493232Y-12363855D01*
X56493232Y-12363855D02*
X56988470Y-12363855D01*
X57445613Y-11906712D02*
X57369423Y-11868617D01*
X57369423Y-11868617D02*
X57331328Y-11830521D01*
X57331328Y-11830521D02*
X57293232Y-11754331D01*
X57293232Y-11754331D02*
X57293232Y-11716236D01*
X57293232Y-11716236D02*
X57331328Y-11640045D01*
X57331328Y-11640045D02*
X57369423Y-11601950D01*
X57369423Y-11601950D02*
X57445613Y-11563855D01*
X57445613Y-11563855D02*
X57597994Y-11563855D01*
X57597994Y-11563855D02*
X57674185Y-11601950D01*
X57674185Y-11601950D02*
X57712280Y-11640045D01*
X57712280Y-11640045D02*
X57750375Y-11716236D01*
X57750375Y-11716236D02*
X57750375Y-11754331D01*
X57750375Y-11754331D02*
X57712280Y-11830521D01*
X57712280Y-11830521D02*
X57674185Y-11868617D01*
X57674185Y-11868617D02*
X57597994Y-11906712D01*
X57597994Y-11906712D02*
X57445613Y-11906712D01*
X57445613Y-11906712D02*
X57369423Y-11944807D01*
X57369423Y-11944807D02*
X57331328Y-11982902D01*
X57331328Y-11982902D02*
X57293232Y-12059093D01*
X57293232Y-12059093D02*
X57293232Y-12211474D01*
X57293232Y-12211474D02*
X57331328Y-12287664D01*
X57331328Y-12287664D02*
X57369423Y-12325760D01*
X57369423Y-12325760D02*
X57445613Y-12363855D01*
X57445613Y-12363855D02*
X57597994Y-12363855D01*
X57597994Y-12363855D02*
X57674185Y-12325760D01*
X57674185Y-12325760D02*
X57712280Y-12287664D01*
X57712280Y-12287664D02*
X57750375Y-12211474D01*
X57750375Y-12211474D02*
X57750375Y-12059093D01*
X57750375Y-12059093D02*
X57712280Y-11982902D01*
X57712280Y-11982902D02*
X57674185Y-11944807D01*
X57674185Y-11944807D02*
X57597994Y-11906712D01*
X55388470Y-14141950D02*
X55312280Y-14103855D01*
X55312280Y-14103855D02*
X55197994Y-14103855D01*
X55197994Y-14103855D02*
X55083708Y-14141950D01*
X55083708Y-14141950D02*
X55007518Y-14218140D01*
X55007518Y-14218140D02*
X54969423Y-14294331D01*
X54969423Y-14294331D02*
X54931327Y-14446712D01*
X54931327Y-14446712D02*
X54931327Y-14560998D01*
X54931327Y-14560998D02*
X54969423Y-14713379D01*
X54969423Y-14713379D02*
X55007518Y-14789569D01*
X55007518Y-14789569D02*
X55083708Y-14865760D01*
X55083708Y-14865760D02*
X55197994Y-14903855D01*
X55197994Y-14903855D02*
X55274185Y-14903855D01*
X55274185Y-14903855D02*
X55388470Y-14865760D01*
X55388470Y-14865760D02*
X55426566Y-14827664D01*
X55426566Y-14827664D02*
X55426566Y-14560998D01*
X55426566Y-14560998D02*
X55274185Y-14560998D01*
X55769423Y-14903855D02*
X55769423Y-14103855D01*
X55769423Y-14103855D02*
X56226566Y-14903855D01*
X56226566Y-14903855D02*
X56226566Y-14103855D01*
X56607518Y-14903855D02*
X56607518Y-14103855D01*
X56607518Y-14103855D02*
X56797994Y-14103855D01*
X56797994Y-14103855D02*
X56912280Y-14141950D01*
X56912280Y-14141950D02*
X56988470Y-14218140D01*
X56988470Y-14218140D02*
X57026565Y-14294331D01*
X57026565Y-14294331D02*
X57064661Y-14446712D01*
X57064661Y-14446712D02*
X57064661Y-14560998D01*
X57064661Y-14560998D02*
X57026565Y-14713379D01*
X57026565Y-14713379D02*
X56988470Y-14789569D01*
X56988470Y-14789569D02*
X56912280Y-14865760D01*
X56912280Y-14865760D02*
X56797994Y-14903855D01*
X56797994Y-14903855D02*
X56607518Y-14903855D01*
D11*
X42033333Y-13129580D02*
X41985714Y-13177200D01*
X41985714Y-13177200D02*
X41842857Y-13224819D01*
X41842857Y-13224819D02*
X41747619Y-13224819D01*
X41747619Y-13224819D02*
X41604762Y-13177200D01*
X41604762Y-13177200D02*
X41509524Y-13081961D01*
X41509524Y-13081961D02*
X41461905Y-12986723D01*
X41461905Y-12986723D02*
X41414286Y-12796247D01*
X41414286Y-12796247D02*
X41414286Y-12653390D01*
X41414286Y-12653390D02*
X41461905Y-12462914D01*
X41461905Y-12462914D02*
X41509524Y-12367676D01*
X41509524Y-12367676D02*
X41604762Y-12272438D01*
X41604762Y-12272438D02*
X41747619Y-12224819D01*
X41747619Y-12224819D02*
X41842857Y-12224819D01*
X41842857Y-12224819D02*
X41985714Y-12272438D01*
X41985714Y-12272438D02*
X42033333Y-12320057D01*
X42890476Y-12224819D02*
X42700000Y-12224819D01*
X42700000Y-12224819D02*
X42604762Y-12272438D01*
X42604762Y-12272438D02*
X42557143Y-12320057D01*
X42557143Y-12320057D02*
X42461905Y-12462914D01*
X42461905Y-12462914D02*
X42414286Y-12653390D01*
X42414286Y-12653390D02*
X42414286Y-13034342D01*
X42414286Y-13034342D02*
X42461905Y-13129580D01*
X42461905Y-13129580D02*
X42509524Y-13177200D01*
X42509524Y-13177200D02*
X42604762Y-13224819D01*
X42604762Y-13224819D02*
X42795238Y-13224819D01*
X42795238Y-13224819D02*
X42890476Y-13177200D01*
X42890476Y-13177200D02*
X42938095Y-13129580D01*
X42938095Y-13129580D02*
X42985714Y-13034342D01*
X42985714Y-13034342D02*
X42985714Y-12796247D01*
X42985714Y-12796247D02*
X42938095Y-12701009D01*
X42938095Y-12701009D02*
X42890476Y-12653390D01*
X42890476Y-12653390D02*
X42795238Y-12605771D01*
X42795238Y-12605771D02*
X42604762Y-12605771D01*
X42604762Y-12605771D02*
X42509524Y-12653390D01*
X42509524Y-12653390D02*
X42461905Y-12701009D01*
X42461905Y-12701009D02*
X42414286Y-12796247D01*
X40589580Y-30766666D02*
X40637200Y-30814285D01*
X40637200Y-30814285D02*
X40684819Y-30957142D01*
X40684819Y-30957142D02*
X40684819Y-31052380D01*
X40684819Y-31052380D02*
X40637200Y-31195237D01*
X40637200Y-31195237D02*
X40541961Y-31290475D01*
X40541961Y-31290475D02*
X40446723Y-31338094D01*
X40446723Y-31338094D02*
X40256247Y-31385713D01*
X40256247Y-31385713D02*
X40113390Y-31385713D01*
X40113390Y-31385713D02*
X39922914Y-31338094D01*
X39922914Y-31338094D02*
X39827676Y-31290475D01*
X39827676Y-31290475D02*
X39732438Y-31195237D01*
X39732438Y-31195237D02*
X39684819Y-31052380D01*
X39684819Y-31052380D02*
X39684819Y-30957142D01*
X39684819Y-30957142D02*
X39732438Y-30814285D01*
X39732438Y-30814285D02*
X39780057Y-30766666D01*
X40684819Y-29814285D02*
X40684819Y-30385713D01*
X40684819Y-30099999D02*
X39684819Y-30099999D01*
X39684819Y-30099999D02*
X39827676Y-30195237D01*
X39827676Y-30195237D02*
X39922914Y-30290475D01*
X39922914Y-30290475D02*
X39970533Y-30385713D01*
X41238095Y-19454819D02*
X41238095Y-20264342D01*
X41238095Y-20264342D02*
X41285714Y-20359580D01*
X41285714Y-20359580D02*
X41333333Y-20407200D01*
X41333333Y-20407200D02*
X41428571Y-20454819D01*
X41428571Y-20454819D02*
X41619047Y-20454819D01*
X41619047Y-20454819D02*
X41714285Y-20407200D01*
X41714285Y-20407200D02*
X41761904Y-20359580D01*
X41761904Y-20359580D02*
X41809523Y-20264342D01*
X41809523Y-20264342D02*
X41809523Y-19454819D01*
X42190476Y-19454819D02*
X42857142Y-19454819D01*
X42857142Y-19454819D02*
X42428571Y-20454819D01*
X41233333Y-35904819D02*
X40900000Y-35428628D01*
X40661905Y-35904819D02*
X40661905Y-34904819D01*
X40661905Y-34904819D02*
X41042857Y-34904819D01*
X41042857Y-34904819D02*
X41138095Y-34952438D01*
X41138095Y-34952438D02*
X41185714Y-35000057D01*
X41185714Y-35000057D02*
X41233333Y-35095295D01*
X41233333Y-35095295D02*
X41233333Y-35238152D01*
X41233333Y-35238152D02*
X41185714Y-35333390D01*
X41185714Y-35333390D02*
X41138095Y-35381009D01*
X41138095Y-35381009D02*
X41042857Y-35428628D01*
X41042857Y-35428628D02*
X40661905Y-35428628D01*
X42185714Y-35904819D02*
X41614286Y-35904819D01*
X41900000Y-35904819D02*
X41900000Y-34904819D01*
X41900000Y-34904819D02*
X41804762Y-35047676D01*
X41804762Y-35047676D02*
X41709524Y-35142914D01*
X41709524Y-35142914D02*
X41614286Y-35190533D01*
X8666666Y-1274819D02*
X8666666Y-1989104D01*
X8666666Y-1989104D02*
X8619047Y-2131961D01*
X8619047Y-2131961D02*
X8523809Y-2227200D01*
X8523809Y-2227200D02*
X8380952Y-2274819D01*
X8380952Y-2274819D02*
X8285714Y-2274819D01*
X9095238Y-1370057D02*
X9142857Y-1322438D01*
X9142857Y-1322438D02*
X9238095Y-1274819D01*
X9238095Y-1274819D02*
X9476190Y-1274819D01*
X9476190Y-1274819D02*
X9571428Y-1322438D01*
X9571428Y-1322438D02*
X9619047Y-1370057D01*
X9619047Y-1370057D02*
X9666666Y-1465295D01*
X9666666Y-1465295D02*
X9666666Y-1560533D01*
X9666666Y-1560533D02*
X9619047Y-1703390D01*
X9619047Y-1703390D02*
X9047619Y-2274819D01*
X9047619Y-2274819D02*
X9666666Y-2274819D01*
X24833333Y-68929580D02*
X24785714Y-68977200D01*
X24785714Y-68977200D02*
X24642857Y-69024819D01*
X24642857Y-69024819D02*
X24547619Y-69024819D01*
X24547619Y-69024819D02*
X24404762Y-68977200D01*
X24404762Y-68977200D02*
X24309524Y-68881961D01*
X24309524Y-68881961D02*
X24261905Y-68786723D01*
X24261905Y-68786723D02*
X24214286Y-68596247D01*
X24214286Y-68596247D02*
X24214286Y-68453390D01*
X24214286Y-68453390D02*
X24261905Y-68262914D01*
X24261905Y-68262914D02*
X24309524Y-68167676D01*
X24309524Y-68167676D02*
X24404762Y-68072438D01*
X24404762Y-68072438D02*
X24547619Y-68024819D01*
X24547619Y-68024819D02*
X24642857Y-68024819D01*
X24642857Y-68024819D02*
X24785714Y-68072438D01*
X24785714Y-68072438D02*
X24833333Y-68120057D01*
X25690476Y-68358152D02*
X25690476Y-69024819D01*
X25452381Y-67977200D02*
X25214286Y-68691485D01*
X25214286Y-68691485D02*
X25833333Y-68691485D01*
X41238095Y-6004819D02*
X41238095Y-6814342D01*
X41238095Y-6814342D02*
X41285714Y-6909580D01*
X41285714Y-6909580D02*
X41333333Y-6957200D01*
X41333333Y-6957200D02*
X41428571Y-7004819D01*
X41428571Y-7004819D02*
X41619047Y-7004819D01*
X41619047Y-7004819D02*
X41714285Y-6957200D01*
X41714285Y-6957200D02*
X41761904Y-6909580D01*
X41761904Y-6909580D02*
X41809523Y-6814342D01*
X41809523Y-6814342D02*
X41809523Y-6004819D01*
X42761904Y-6004819D02*
X42285714Y-6004819D01*
X42285714Y-6004819D02*
X42238095Y-6481009D01*
X42238095Y-6481009D02*
X42285714Y-6433390D01*
X42285714Y-6433390D02*
X42380952Y-6385771D01*
X42380952Y-6385771D02*
X42619047Y-6385771D01*
X42619047Y-6385771D02*
X42714285Y-6433390D01*
X42714285Y-6433390D02*
X42761904Y-6481009D01*
X42761904Y-6481009D02*
X42809523Y-6576247D01*
X42809523Y-6576247D02*
X42809523Y-6814342D01*
X42809523Y-6814342D02*
X42761904Y-6909580D01*
X42761904Y-6909580D02*
X42714285Y-6957200D01*
X42714285Y-6957200D02*
X42619047Y-7004819D01*
X42619047Y-7004819D02*
X42380952Y-7004819D01*
X42380952Y-7004819D02*
X42285714Y-6957200D01*
X42285714Y-6957200D02*
X42238095Y-6909580D01*
X45833333Y-18129580D02*
X45785714Y-18177200D01*
X45785714Y-18177200D02*
X45642857Y-18224819D01*
X45642857Y-18224819D02*
X45547619Y-18224819D01*
X45547619Y-18224819D02*
X45404762Y-18177200D01*
X45404762Y-18177200D02*
X45309524Y-18081961D01*
X45309524Y-18081961D02*
X45261905Y-17986723D01*
X45261905Y-17986723D02*
X45214286Y-17796247D01*
X45214286Y-17796247D02*
X45214286Y-17653390D01*
X45214286Y-17653390D02*
X45261905Y-17462914D01*
X45261905Y-17462914D02*
X45309524Y-17367676D01*
X45309524Y-17367676D02*
X45404762Y-17272438D01*
X45404762Y-17272438D02*
X45547619Y-17224819D01*
X45547619Y-17224819D02*
X45642857Y-17224819D01*
X45642857Y-17224819D02*
X45785714Y-17272438D01*
X45785714Y-17272438D02*
X45833333Y-17320057D01*
X46214286Y-17320057D02*
X46261905Y-17272438D01*
X46261905Y-17272438D02*
X46357143Y-17224819D01*
X46357143Y-17224819D02*
X46595238Y-17224819D01*
X46595238Y-17224819D02*
X46690476Y-17272438D01*
X46690476Y-17272438D02*
X46738095Y-17320057D01*
X46738095Y-17320057D02*
X46785714Y-17415295D01*
X46785714Y-17415295D02*
X46785714Y-17510533D01*
X46785714Y-17510533D02*
X46738095Y-17653390D01*
X46738095Y-17653390D02*
X46166667Y-18224819D01*
X46166667Y-18224819D02*
X46785714Y-18224819D01*
X42238095Y-40254819D02*
X42238095Y-41064342D01*
X42238095Y-41064342D02*
X42285714Y-41159580D01*
X42285714Y-41159580D02*
X42333333Y-41207200D01*
X42333333Y-41207200D02*
X42428571Y-41254819D01*
X42428571Y-41254819D02*
X42619047Y-41254819D01*
X42619047Y-41254819D02*
X42714285Y-41207200D01*
X42714285Y-41207200D02*
X42761904Y-41159580D01*
X42761904Y-41159580D02*
X42809523Y-41064342D01*
X42809523Y-41064342D02*
X42809523Y-40254819D01*
X43714285Y-40588152D02*
X43714285Y-41254819D01*
X43476190Y-40207200D02*
X43238095Y-40921485D01*
X43238095Y-40921485D02*
X43857142Y-40921485D01*
X41757142Y-60954819D02*
X41423809Y-60478628D01*
X41185714Y-60954819D02*
X41185714Y-59954819D01*
X41185714Y-59954819D02*
X41566666Y-59954819D01*
X41566666Y-59954819D02*
X41661904Y-60002438D01*
X41661904Y-60002438D02*
X41709523Y-60050057D01*
X41709523Y-60050057D02*
X41757142Y-60145295D01*
X41757142Y-60145295D02*
X41757142Y-60288152D01*
X41757142Y-60288152D02*
X41709523Y-60383390D01*
X41709523Y-60383390D02*
X41661904Y-60431009D01*
X41661904Y-60431009D02*
X41566666Y-60478628D01*
X41566666Y-60478628D02*
X41185714Y-60478628D01*
X42709523Y-60954819D02*
X42138095Y-60954819D01*
X42423809Y-60954819D02*
X42423809Y-59954819D01*
X42423809Y-59954819D02*
X42328571Y-60097676D01*
X42328571Y-60097676D02*
X42233333Y-60192914D01*
X42233333Y-60192914D02*
X42138095Y-60240533D01*
X43661904Y-60954819D02*
X43090476Y-60954819D01*
X43376190Y-60954819D02*
X43376190Y-59954819D01*
X43376190Y-59954819D02*
X43280952Y-60097676D01*
X43280952Y-60097676D02*
X43185714Y-60192914D01*
X43185714Y-60192914D02*
X43090476Y-60240533D01*
X38789580Y-47166666D02*
X38837200Y-47214285D01*
X38837200Y-47214285D02*
X38884819Y-47357142D01*
X38884819Y-47357142D02*
X38884819Y-47452380D01*
X38884819Y-47452380D02*
X38837200Y-47595237D01*
X38837200Y-47595237D02*
X38741961Y-47690475D01*
X38741961Y-47690475D02*
X38646723Y-47738094D01*
X38646723Y-47738094D02*
X38456247Y-47785713D01*
X38456247Y-47785713D02*
X38313390Y-47785713D01*
X38313390Y-47785713D02*
X38122914Y-47738094D01*
X38122914Y-47738094D02*
X38027676Y-47690475D01*
X38027676Y-47690475D02*
X37932438Y-47595237D01*
X37932438Y-47595237D02*
X37884819Y-47452380D01*
X37884819Y-47452380D02*
X37884819Y-47357142D01*
X37884819Y-47357142D02*
X37932438Y-47214285D01*
X37932438Y-47214285D02*
X37980057Y-47166666D01*
X37884819Y-46261904D02*
X37884819Y-46738094D01*
X37884819Y-46738094D02*
X38361009Y-46785713D01*
X38361009Y-46785713D02*
X38313390Y-46738094D01*
X38313390Y-46738094D02*
X38265771Y-46642856D01*
X38265771Y-46642856D02*
X38265771Y-46404761D01*
X38265771Y-46404761D02*
X38313390Y-46309523D01*
X38313390Y-46309523D02*
X38361009Y-46261904D01*
X38361009Y-46261904D02*
X38456247Y-46214285D01*
X38456247Y-46214285D02*
X38694342Y-46214285D01*
X38694342Y-46214285D02*
X38789580Y-46261904D01*
X38789580Y-46261904D02*
X38837200Y-46309523D01*
X38837200Y-46309523D02*
X38884819Y-46404761D01*
X38884819Y-46404761D02*
X38884819Y-46642856D01*
X38884819Y-46642856D02*
X38837200Y-46738094D01*
X38837200Y-46738094D02*
X38789580Y-46785713D01*
X42357142Y-60604819D02*
X42023809Y-60128628D01*
X41785714Y-60604819D02*
X41785714Y-59604819D01*
X41785714Y-59604819D02*
X42166666Y-59604819D01*
X42166666Y-59604819D02*
X42261904Y-59652438D01*
X42261904Y-59652438D02*
X42309523Y-59700057D01*
X42309523Y-59700057D02*
X42357142Y-59795295D01*
X42357142Y-59795295D02*
X42357142Y-59938152D01*
X42357142Y-59938152D02*
X42309523Y-60033390D01*
X42309523Y-60033390D02*
X42261904Y-60081009D01*
X42261904Y-60081009D02*
X42166666Y-60128628D01*
X42166666Y-60128628D02*
X41785714Y-60128628D01*
X43309523Y-60604819D02*
X42738095Y-60604819D01*
X43023809Y-60604819D02*
X43023809Y-59604819D01*
X43023809Y-59604819D02*
X42928571Y-59747676D01*
X42928571Y-59747676D02*
X42833333Y-59842914D01*
X42833333Y-59842914D02*
X42738095Y-59890533D01*
X43690476Y-59700057D02*
X43738095Y-59652438D01*
X43738095Y-59652438D02*
X43833333Y-59604819D01*
X43833333Y-59604819D02*
X44071428Y-59604819D01*
X44071428Y-59604819D02*
X44166666Y-59652438D01*
X44166666Y-59652438D02*
X44214285Y-59700057D01*
X44214285Y-59700057D02*
X44261904Y-59795295D01*
X44261904Y-59795295D02*
X44261904Y-59890533D01*
X44261904Y-59890533D02*
X44214285Y-60033390D01*
X44214285Y-60033390D02*
X43642857Y-60604819D01*
X43642857Y-60604819D02*
X44261904Y-60604819D01*
X45466666Y-28934819D02*
X45466666Y-29649104D01*
X45466666Y-29649104D02*
X45419047Y-29791961D01*
X45419047Y-29791961D02*
X45323809Y-29887200D01*
X45323809Y-29887200D02*
X45180952Y-29934819D01*
X45180952Y-29934819D02*
X45085714Y-29934819D01*
X46419047Y-28934819D02*
X45942857Y-28934819D01*
X45942857Y-28934819D02*
X45895238Y-29411009D01*
X45895238Y-29411009D02*
X45942857Y-29363390D01*
X45942857Y-29363390D02*
X46038095Y-29315771D01*
X46038095Y-29315771D02*
X46276190Y-29315771D01*
X46276190Y-29315771D02*
X46371428Y-29363390D01*
X46371428Y-29363390D02*
X46419047Y-29411009D01*
X46419047Y-29411009D02*
X46466666Y-29506247D01*
X46466666Y-29506247D02*
X46466666Y-29744342D01*
X46466666Y-29744342D02*
X46419047Y-29839580D01*
X46419047Y-29839580D02*
X46371428Y-29887200D01*
X46371428Y-29887200D02*
X46276190Y-29934819D01*
X46276190Y-29934819D02*
X46038095Y-29934819D01*
X46038095Y-29934819D02*
X45942857Y-29887200D01*
X45942857Y-29887200D02*
X45895238Y-29839580D01*
%TO.C,U3*%
D12*
X24090000Y-55615000D02*
X28710000Y-55615000D01*
X28710000Y-62385000D02*
X24090000Y-62385000D01*
X22540000Y-56070000D02*
X22210000Y-56310000D01*
X22210000Y-55830000D01*
X22540000Y-56070000D01*
G36*
X22540000Y-56070000D02*
G01*
X22210000Y-56310000D01*
X22210000Y-55830000D01*
X22540000Y-56070000D01*
G37*
%TO.C,JP3*%
X36685000Y-71215000D02*
X36685000Y-73975000D01*
X39335000Y-71215000D02*
X36685000Y-71215000D01*
X39335000Y-71215000D02*
X39335000Y-73975000D01*
X39335000Y-73975000D02*
X36685000Y-73975000D01*
X40605000Y-71215000D02*
X41985000Y-71215000D01*
X41985000Y-71215000D02*
X41985000Y-72595000D01*
%TO.C,J3*%
X52120000Y-8080000D02*
X53500000Y-8080000D01*
X52120000Y-9460000D02*
X52120000Y-8080000D01*
X52120000Y-10730000D02*
X52120000Y-15920000D01*
X52120000Y-10730000D02*
X54880000Y-10730000D01*
X52120000Y-15920000D02*
X54880000Y-15920000D01*
X54880000Y-10730000D02*
X54880000Y-15920000D01*
%TO.C,C6*%
X42059420Y-13690000D02*
X42340580Y-13690000D01*
X42059420Y-14710000D02*
X42340580Y-14710000D01*
%TO.C,C1*%
X38290000Y-30459420D02*
X38290000Y-30740580D01*
X39310000Y-30459420D02*
X39310000Y-30740580D01*
%TO.C,U7*%
X40150000Y-21090000D02*
X43910000Y-21090000D01*
X40150000Y-27910000D02*
X43910000Y-27910000D01*
X43910000Y-21090000D02*
X43910000Y-22350000D01*
X43910000Y-27910000D02*
X43910000Y-26650000D01*
X38870000Y-21190000D02*
X38630000Y-20860000D01*
X39110000Y-20860000D01*
X38870000Y-21190000D01*
G36*
X38870000Y-21190000D02*
G01*
X38630000Y-20860000D01*
X39110000Y-20860000D01*
X38870000Y-21190000D01*
G37*
%TO.C,J2*%
X2930000Y-4550000D02*
X2930000Y-9000000D01*
X2930000Y-10400000D02*
X2930000Y-12700000D01*
X2930000Y-14100000D02*
X2930000Y-14820000D01*
X2930000Y-14820000D02*
X5610000Y-14820000D01*
X4410000Y-3180000D02*
X5270000Y-3180000D01*
X7910000Y-14820000D02*
X11580000Y-14820000D01*
X13880000Y-14820000D02*
X15110000Y-14820000D01*
X15110000Y-14820000D02*
X15110000Y-5000000D01*
%TO.C,C4*%
X24859420Y-69490000D02*
X25140580Y-69490000D01*
X24859420Y-70510000D02*
X25140580Y-70510000D01*
%TO.C,U5*%
X39690000Y-7265000D02*
X44310000Y-7265000D01*
X44310000Y-12735000D02*
X39690000Y-12735000D01*
X38140000Y-7720000D02*
X37810000Y-7960000D01*
X37810000Y-7480000D01*
X38140000Y-7720000D01*
G36*
X38140000Y-7720000D02*
G01*
X37810000Y-7960000D01*
X37810000Y-7480000D01*
X38140000Y-7720000D01*
G37*
%TO.C,C2*%
X45859420Y-18690000D02*
X46140580Y-18690000D01*
X45859420Y-19710000D02*
X46140580Y-19710000D01*
%TO.C,U4*%
X40690000Y-41615000D02*
X45310000Y-41615000D01*
X45310000Y-48385000D02*
X40690000Y-48385000D01*
X39140000Y-42070000D02*
X38810000Y-42310000D01*
X38810000Y-41830000D01*
X39140000Y-42070000D01*
G36*
X39140000Y-42070000D02*
G01*
X38810000Y-42310000D01*
X38810000Y-41830000D01*
X39140000Y-42070000D01*
G37*
%TO.C,C5*%
X36490000Y-46859420D02*
X36490000Y-47140580D01*
X37510000Y-46859420D02*
X37510000Y-47140580D01*
%TO.C,J5*%
X44420000Y-30480000D02*
X45800000Y-30480000D01*
X44420000Y-31860000D02*
X44420000Y-30480000D01*
X44420000Y-33130000D02*
X44420000Y-38320000D01*
X44420000Y-33130000D02*
X47180000Y-33130000D01*
X44420000Y-38320000D02*
X47180000Y-38320000D01*
X47180000Y-33130000D02*
X47180000Y-38320000D01*
%TD*%
M02*
