%TF.GenerationSoftware,KiCad,Pcbnew,10.0.5*%
%TF.CreationDate,2026-09-21T14:48:14+02:00*%
%TF.ProjectId,PC1500-Pico2W-Dongle,50433135-3030-42d5-9069-636f32572d44,rev?*%
%TF.SameCoordinates,Original*%
%TF.FileFunction,Copper,L1,Top*%
%TF.FilePolarity,Positive*%
%FSLAX46Y46*%
G04 Gerber Fmt 4.6, Leading zero omitted, Abs format (unit mm)*
G04 Created by KiCad (PCBNEW 10.0.5) date 2026-09-21 14:48:14*
%MOMM*%
%LPD*%
G01*
G04 APERTURE LIST*
G04 Aperture macros list*
%AMRoundRect*
0 Rectangle with rounded corners*
0 $1 Rounding radius*
0 $2 $3 $4 $5 $6 $7 $8 $9 X,Y pos of 4 corners*
0 Add a 4 corners polygon primitive as box body*
4,1,4,$2,$3,$4,$5,$6,$7,$8,$9,$2,$3,0*
0 Add four circle primitives for the rounded corners*
1,1,$1+$1,$2,$3*
1,1,$1+$1,$4,$5*
1,1,$1+$1,$6,$7*
1,1,$1+$1,$8,$9*
0 Add four rect primitives between the rounded corners*
20,1,$1+$1,$2,$3,$4,$5,0*
20,1,$1+$1,$4,$5,$6,$7,0*
20,1,$1+$1,$6,$7,$8,$9,0*
20,1,$1+$1,$8,$9,$2,$3,0*%
G04 Aperture macros list end*
%TA.AperFunction,SMDPad,CuDef*%
%ADD10RoundRect,0.100000X-0.637500X-0.100000X0.637500X-0.100000X0.637500X0.100000X-0.637500X0.100000X0*%
%TD*%
%TA.AperFunction,ComponentPad*%
%ADD11C,1.700000*%
%TD*%
%TA.AperFunction,SMDPad,CuDef*%
%ADD12RoundRect,0.100000X-0.130000X-0.100000X0.130000X-0.100000X0.130000X0.100000X-0.130000X0.100000X0*%
%TD*%
%TA.AperFunction,ComponentPad*%
%ADD13R,1.700000X1.700000*%
%TD*%
%TA.AperFunction,SMDPad,CuDef*%
%ADD14RoundRect,0.225000X-0.225000X-0.250000X0.225000X-0.250000X0.225000X0.250000X-0.225000X0.250000X0*%
%TD*%
%TA.AperFunction,SMDPad,CuDef*%
%ADD15RoundRect,0.225000X-0.250000X0.225000X-0.250000X-0.225000X0.250000X-0.225000X0.250000X0.225000X0*%
%TD*%
%TA.AperFunction,SMDPad,CuDef*%
%ADD16RoundRect,0.375000X-0.625000X-0.375000X0.625000X-0.375000X0.625000X0.375000X-0.625000X0.375000X0*%
%TD*%
%TA.AperFunction,SMDPad,CuDef*%
%ADD17RoundRect,0.500000X-0.500000X-1.400000X0.500000X-1.400000X0.500000X1.400000X-0.500000X1.400000X0*%
%TD*%
%TA.AperFunction,SMDPad,CuDef*%
%ADD18R,0.850000X1.100000*%
%TD*%
%TA.AperFunction,SMDPad,CuDef*%
%ADD19R,0.750000X1.100000*%
%TD*%
%TA.AperFunction,SMDPad,CuDef*%
%ADD20R,1.200000X1.000000*%
%TD*%
%TA.AperFunction,SMDPad,CuDef*%
%ADD21R,1.550000X1.350000*%
%TD*%
%TA.AperFunction,SMDPad,CuDef*%
%ADD22R,1.900000X1.350000*%
%TD*%
%TA.AperFunction,SMDPad,CuDef*%
%ADD23R,1.170000X1.800000*%
%TD*%
%TA.AperFunction,SMDPad,CuDef*%
%ADD24RoundRect,0.100000X0.130000X0.100000X-0.130000X0.100000X-0.130000X-0.100000X0.130000X-0.100000X0*%
%TD*%
%TA.AperFunction,ComponentPad*%
%ADD25C,1.524000*%
%TD*%
%TA.AperFunction,ViaPad*%
%ADD26C,0.600000*%
%TD*%
%TA.AperFunction,Conductor*%
%ADD27C,0.200000*%
%TD*%
%TA.AperFunction,Conductor*%
%ADD28C,0.150000*%
%TD*%
%TA.AperFunction,Conductor*%
%ADD29C,0.500000*%
%TD*%
G04 APERTURE END LIST*
D10*
%TO.P,U3,1,IO14_1*%
%TO.N,DME0*%
X23537500Y-56075000D03*
%TO.P,U3,2,IO13_2*%
%TO.N,PC1500_SENSE*%
X23537500Y-56725000D03*
%TO.P,U3,3,IO12_3*%
%TO.N,SRAM_CS*%
X23537500Y-57375000D03*
%TO.P,U3,4,IO11_4*%
%TO.N,PV*%
X23537500Y-58025000D03*
%TO.P,U3,5,IO10_5*%
%TO.N,SRAM_WE*%
X23537500Y-58675000D03*
%TO.P,U3,6,IO9_6*%
%TO.N,SRAM_A14*%
X23537500Y-59325000D03*
%TO.P,U3,7,V_{DD2}_7*%
%TO.N,VGG*%
X23537500Y-59975000D03*
%TO.P,U3,8,IO8_8*%
%TO.N,SRAM_A13*%
X23537500Y-60625000D03*
%TO.P,U3,9,IO7_9*%
%TO.N,SRAM_A12*%
X23537500Y-61275000D03*
%TO.P,U3,10,GND_10*%
%TO.N,GND*%
X23537500Y-61925000D03*
%TO.P,U3,11,IO6_11*%
%TO.N,SRAM_A11*%
X29262500Y-61925000D03*
%TO.P,U3,12,SDA_12*%
%TO.N,SDA_GP*%
X29262500Y-61275000D03*
%TO.P,U3,13,SCL_13*%
%TO.N,SCL_GP*%
X29262500Y-60625000D03*
%TO.P,U3,14,IO5_14*%
%TO.N,RW*%
X29262500Y-59975000D03*
%TO.P,U3,15,IO4_15*%
%TO.N,AD15*%
X29262500Y-59325000D03*
%TO.P,U3,16,IO3_16*%
%TO.N,AD14*%
X29262500Y-58675000D03*
%TO.P,U3,17,IO2_17*%
%TO.N,AD13*%
X29262500Y-58025000D03*
%TO.P,U3,18,IO1_18*%
%TO.N,AD12*%
X29262500Y-57375000D03*
%TO.P,U3,19,IO0_19*%
%TO.N,AD11*%
X29262500Y-56725000D03*
%TO.P,U3,20,V_{DD}_20*%
%TO.N,VGG*%
X29262500Y-56075000D03*
%TD*%
D11*
%TO.P,U1,1,GP0_1*%
%TO.N,AD0*%
X17110000Y-18250000D03*
%TO.P,U1,2,GP1_2*%
%TO.N,AD1*%
X17110000Y-20790000D03*
%TO.P,U1,3,GND_3*%
%TO.N,GND*%
X17110000Y-23330000D03*
%TO.P,U1,4,GP2_4*%
%TO.N,AD2*%
X17110000Y-25870000D03*
%TO.P,U1,5,GP3_5*%
%TO.N,AD3*%
X17110000Y-28410000D03*
%TO.P,U1,6,GP4_6*%
%TO.N,AD4*%
X17110000Y-30950000D03*
%TO.P,U1,7,GP5_7*%
%TO.N,AD5*%
X17110000Y-33490000D03*
%TO.P,U1,8,GND_8*%
%TO.N,GND*%
X17110000Y-36030000D03*
%TO.P,U1,9,GP6_9*%
%TO.N,AD6*%
X17110000Y-38570000D03*
%TO.P,U1,10,GP7_10*%
%TO.N,AD7*%
X17110000Y-41110000D03*
%TO.P,U1,11,GP8_11*%
%TO.N,AD8*%
X17110000Y-43650000D03*
%TO.P,U1,12,GP9_12*%
%TO.N,AD9*%
X17110000Y-46190000D03*
%TO.P,U1,13,GND_13*%
%TO.N,GND*%
X17110000Y-48730000D03*
%TO.P,U1,14,GP10_14*%
%TO.N,AD10*%
X17110000Y-51270000D03*
%TO.P,U1,15,GP11_15*%
%TO.N,AD11*%
X17110000Y-53810000D03*
%TO.P,U1,16,GP12_16*%
%TO.N,AD12*%
X17110000Y-56350000D03*
%TO.P,U1,17,GP13_17*%
%TO.N,D0*%
X17110000Y-58890000D03*
%TO.P,U1,18,GND_18*%
%TO.N,GND*%
X17110000Y-61430000D03*
%TO.P,U1,19,GP14_19*%
%TO.N,D1*%
X17110000Y-63970000D03*
%TO.P,U1,20,GP15_20*%
%TO.N,D2*%
X17110000Y-66510000D03*
%TO.P,U1,21,GP16_21*%
%TO.N,D3*%
X34890000Y-66510000D03*
%TO.P,U1,22,GP17_22*%
%TO.N,D4*%
X34890000Y-63970000D03*
%TO.P,U1,23,GND_23*%
%TO.N,GND*%
X34890000Y-61430000D03*
%TO.P,U1,24,GP18_24*%
%TO.N,D5*%
X34890000Y-58890000D03*
%TO.P,U1,25,GP19_25*%
%TO.N,D6*%
X34890000Y-56350000D03*
%TO.P,U1,26,GP20_26*%
%TO.N,D7*%
X34890000Y-53810000D03*
%TO.P,U1,27,GP21_27*%
%TO.N,TRIG_RD*%
X34890000Y-51270000D03*
%TO.P,U1,28,GND_28*%
%TO.N,GND*%
X34890000Y-48730000D03*
%TO.P,U1,29,GP22_29*%
%TO.N,TRIG_WR*%
X34890000Y-46190000D03*
%TO.P,U1,30,RUN_30*%
%TO.N,unconnected-(U1-RUN-Pad30)*%
X34890000Y-43650000D03*
%TO.P,U1,31,GP26_31*%
%TO.N,SDA*%
X34890000Y-41110000D03*
%TO.P,U1,32,GP27_32*%
%TO.N,SCL*%
X34890000Y-38570000D03*
%TO.P,U1,33,GND_33*%
%TO.N,GND*%
X34890000Y-36030000D03*
%TO.P,U1,34,GP28_34*%
%TO.N,GP28*%
X34890000Y-33490000D03*
%TO.P,U1,35,ADC_VREF_35*%
%TO.N,3V3*%
X34890000Y-30950000D03*
%TO.P,U1,36,3V3_36*%
X34890000Y-28410000D03*
%TO.P,U1,37,3V3_EN_37*%
%TO.N,unconnected-(U1-3V3_EN-Pad37)*%
X34890000Y-25870000D03*
%TO.P,U1,38,GND_38*%
%TO.N,GND*%
X34890000Y-23330000D03*
%TO.P,U1,39,VSYS_39*%
%TO.N,VSYS_SW*%
X34890000Y-20790000D03*
%TO.P,U1,40,VBUS_40*%
%TO.N,VBUS*%
X34890000Y-18250000D03*
%TD*%
D12*
%TO.P,R2,1*%
%TO.N,VGG_FB*%
X41680000Y-38700000D03*
%TO.P,R2,2*%
%TO.N,GND*%
X42320000Y-38700000D03*
%TD*%
D13*
%TO.P,JP3,1,Pin_1_1*%
%TO.N,PC1500_SENSE*%
X40605000Y-72595000D03*
D11*
%TO.P,JP3,2,Pin_2_2*%
%TO.N,GND*%
X38065000Y-72595000D03*
%TD*%
D13*
%TO.P,J3,1,Pin_1_1*%
%TO.N,~INT*%
X53500000Y-9460000D03*
D11*
%TO.P,J3,2,Pin_2_2*%
%TO.N,GP28*%
X53500000Y-12000000D03*
%TO.P,J3,3,Pin_3_3*%
%TO.N,GND*%
X53500000Y-14540000D03*
%TD*%
D14*
%TO.P,C6,1*%
%TO.N,3V3*%
X41425000Y-14200000D03*
%TO.P,C6,2*%
%TO.N,GND*%
X42975000Y-14200000D03*
%TD*%
D15*
%TO.P,C1,1*%
%TO.N,+BATT*%
X38800000Y-29825000D03*
%TO.P,C1,2*%
%TO.N,GND*%
X38800000Y-31375000D03*
%TD*%
D16*
%TO.P,U7,1,ADJ_1*%
%TO.N,VGG_FB*%
X38850000Y-22200000D03*
%TO.P,U7,2,VO_2*%
%TO.N,VGG*%
X38850000Y-24500000D03*
D17*
X45150000Y-24500000D03*
D16*
%TO.P,U7,3,VI_3*%
%TO.N,+BATT*%
X38850000Y-26800000D03*
%TD*%
D12*
%TO.P,R1,1*%
%TO.N,VGG*%
X41080000Y-36500000D03*
%TO.P,R1,2*%
%TO.N,VGG_FB*%
X41720000Y-36500000D03*
%TD*%
D18*
%TO.P,J2,1,CD/DAT3_1*%
%TO.N,Net-(J2-CD{slash}DAT3)*%
X5895000Y-3550000D03*
%TO.P,J2,2,CMD_2*%
%TO.N,SD_CS*%
X6995000Y-3550000D03*
%TO.P,J2,3,VSS_3*%
%TO.N,SD_MOSI*%
X8095000Y-3550000D03*
%TO.P,J2,4,VDD_4*%
%TO.N,3V3*%
X9195000Y-3550000D03*
%TO.P,J2,5,CLK_5*%
%TO.N,SD_SCK*%
X10295000Y-3550000D03*
%TO.P,J2,6,VSS_6*%
%TO.N,GND*%
X11395000Y-3550000D03*
%TO.P,J2,7,DAT0_7*%
%TO.N,SD_MISO*%
X12495000Y-3550000D03*
D19*
%TO.P,J2,8,DAT1_8*%
%TO.N,SD_DAT1*%
X13545000Y-3550000D03*
D20*
%TO.P,J2,9,DAT2_9*%
%TO.N,SD_DAT2*%
X3260000Y-9700000D03*
%TO.P,J2,10*%
%TO.N,N/C*%
X3260000Y-13400000D03*
D21*
%TO.P,J2,SH*%
%TO.N,GND*%
X3435000Y-3675000D03*
D22*
X6760000Y-14375000D03*
X12730000Y-14375000D03*
D23*
X14755000Y-3900000D03*
%TD*%
D14*
%TO.P,C4,1*%
%TO.N,VGG*%
X24225000Y-70000000D03*
%TO.P,C4,2*%
%TO.N,GND*%
X25775000Y-70000000D03*
%TD*%
D10*
%TO.P,U5,1,~SS0~/GPIO0_1*%
%TO.N,SD_CS*%
X39137500Y-7725000D03*
%TO.P,U5,2,~SS1~/GPIO1_2*%
%TO.N,unconnected-(U5-~SS1~{slash}GPIO1-Pad2)*%
X39137500Y-8375000D03*
%TO.P,U5,3,~RESET_3*%
%TO.N,SC_RESET*%
X39137500Y-9025000D03*
%TO.P,U5,4,VSS_4*%
%TO.N,GND*%
X39137500Y-9675000D03*
%TO.P,U5,5,MISO_5*%
%TO.N,SD_MISO*%
X39137500Y-10325000D03*
%TO.P,U5,6,MOSI_6*%
%TO.N,SD_MOSI*%
X39137500Y-10975000D03*
%TO.P,U5,7,SDA_7*%
%TO.N,SDA*%
X39137500Y-11625000D03*
%TO.P,U5,8,SCL_8*%
%TO.N,SCL*%
X39137500Y-12275000D03*
%TO.P,U5,9,~INT_9*%
%TO.N,~INT*%
X44862500Y-12275000D03*
%TO.P,U5,10,~SS2~/GPIO2_10*%
%TO.N,unconnected-(U5-~SS2~{slash}GPIO2-Pad10)*%
X44862500Y-11625000D03*
%TO.P,U5,11,SPICLK_11*%
%TO.N,SD_SCK*%
X44862500Y-10975000D03*
%TO.P,U5,12,VDD_12*%
%TO.N,3V3*%
X44862500Y-10325000D03*
%TO.P,U5,13,~SS3~/GPIO3_13*%
%TO.N,unconnected-(U5-~SS3~{slash}GPIO3-Pad13)*%
X44862500Y-9675000D03*
%TO.P,U5,14,A0_14*%
%TO.N,GND*%
X44862500Y-9025000D03*
%TO.P,U5,15,A1_15*%
X44862500Y-8375000D03*
%TO.P,U5,16,A2_16*%
X44862500Y-7725000D03*
%TD*%
D14*
%TO.P,C2,1*%
%TO.N,VGG*%
X45225000Y-19200000D03*
%TO.P,C2,2*%
%TO.N,GND*%
X46775000Y-19200000D03*
%TD*%
D10*
%TO.P,U4,1,IO14_1*%
%TO.N,GREENPAK2_IO14*%
X40137500Y-42075000D03*
%TO.P,U4,2,IO13_2*%
%TO.N,unconnected-(U4-IO13-Pad2)*%
X40137500Y-42725000D03*
%TO.P,U4,3,IO12_3*%
%TO.N,GREENPAK2_IO12*%
X40137500Y-43375000D03*
%TO.P,U4,4,IO11_4*%
%TO.N,PV*%
X40137500Y-44025000D03*
%TO.P,U4,5,IO10_5*%
%TO.N,GREENPAK2_IO10*%
X40137500Y-44675000D03*
%TO.P,U4,6,IO9_6*%
%TO.N,OD*%
X40137500Y-45325000D03*
%TO.P,U4,7,V_{DD2}_7*%
%TO.N,VGG*%
X40137500Y-45975000D03*
%TO.P,U4,8,IO8_8*%
%TO.N,DME0*%
X40137500Y-46625000D03*
%TO.P,U4,9,IO7_9*%
%TO.N,TRIG_WR*%
X40137500Y-47275000D03*
%TO.P,U4,10,GND_10*%
%TO.N,GND*%
X40137500Y-47925000D03*
%TO.P,U4,11,IO6_11*%
%TO.N,TRIG_RD*%
X45862500Y-47925000D03*
%TO.P,U4,12,SDA_12*%
%TO.N,SDA_GP_U4*%
X45862500Y-47275000D03*
%TO.P,U4,13,SCL_13*%
%TO.N,SCL_GP_U4*%
X45862500Y-46625000D03*
%TO.P,U4,14,IO5_14*%
%TO.N,RW*%
X45862500Y-45975000D03*
%TO.P,U4,15,IO4_15*%
%TO.N,AD15*%
X45862500Y-45325000D03*
%TO.P,U4,16,IO3_16*%
%TO.N,AD14*%
X45862500Y-44675000D03*
%TO.P,U4,17,IO2_17*%
%TO.N,AD13*%
X45862500Y-44025000D03*
%TO.P,U4,18,IO1_18*%
%TO.N,AD12*%
X45862500Y-43375000D03*
%TO.P,U4,19,IO0_19*%
%TO.N,AD11*%
X45862500Y-42725000D03*
%TO.P,U4,20,V_{DD}_20*%
%TO.N,VGG*%
X45862500Y-42075000D03*
%TD*%
D24*
%TO.P,R11,1*%
%TO.N,VGG*%
X42720000Y-59450000D03*
%TO.P,R11,2*%
%TO.N,SDA_GP*%
X42080000Y-59450000D03*
%TD*%
D15*
%TO.P,C5,1*%
%TO.N,VGG*%
X37000000Y-46225000D03*
%TO.P,C5,2*%
%TO.N,GND*%
X37000000Y-47775000D03*
%TD*%
D25*
%TO.P,J1,1,AD7_1*%
%TO.N,AD7*%
X50325000Y-61050000D03*
%TO.P,J1,2,AD6_2*%
%TO.N,AD6*%
X52230000Y-59780000D03*
%TO.P,J1,3,AD5_3*%
%TO.N,AD5*%
X50325000Y-58510000D03*
%TO.P,J1,4,AD4_4*%
%TO.N,AD4*%
X52230000Y-57240000D03*
%TO.P,J1,5,AD3_5*%
%TO.N,AD3*%
X50325000Y-55970000D03*
%TO.P,J1,6,AD2_6*%
%TO.N,AD2*%
X52230000Y-54700000D03*
%TO.P,J1,7,AD1_7*%
%TO.N,AD1*%
X50325000Y-53430000D03*
%TO.P,J1,8,AD0_8*%
%TO.N,AD0*%
X52230000Y-52160000D03*
%TO.P,J1,9,PB0_9*%
%TO.N,PB0*%
X50325000Y-50890000D03*
%TO.P,J1,10,PC7_10*%
%TO.N,PC7*%
X52230000Y-49620000D03*
%TO.P,J1,11,+4V7_11*%
%TO.N,+4V7*%
X50325000Y-48350000D03*
%TO.P,J1,12,+4V7_12*%
X52230000Y-47080000D03*
%TO.P,J1,13,NC1_13*%
%TO.N,NC1*%
X50325000Y-45810000D03*
%TO.P,J1,14,NC2_14*%
%TO.N,NC2*%
X52230000Y-44540000D03*
%TO.P,J1,15,PV_15*%
%TO.N,PV*%
X50325000Y-43270000D03*
%TO.P,J1,16,PU_16*%
%TO.N,PU*%
X52230000Y-42000000D03*
%TO.P,J1,17,D7_17*%
%TO.N,D7*%
X50325000Y-40730000D03*
%TO.P,J1,18,D6_18*%
%TO.N,D6*%
X52230000Y-39460000D03*
%TO.P,J1,19,D5_19*%
%TO.N,D5*%
X50325000Y-38190000D03*
%TO.P,J1,20,D4_20*%
%TO.N,D4*%
X52230000Y-36920000D03*
%TO.P,J1,21,D3_21*%
%TO.N,D3*%
X50325000Y-35650000D03*
%TO.P,J1,22,D2_22*%
%TO.N,D2*%
X52230000Y-34380000D03*
%TO.P,J1,23,D1_23*%
%TO.N,D1*%
X50325000Y-33110000D03*
%TO.P,J1,24,D0_24*%
%TO.N,D0*%
X52230000Y-31840000D03*
%TO.P,J1,25,~INHIBIT_25*%
%TO.N,~INHIBIT*%
X50325000Y-30570000D03*
%TO.P,J1,26,~WEX_26*%
%TO.N,~WEX*%
X52230000Y-29300000D03*
%TO.P,J1,27,~CMTIN_27*%
%TO.N,~CMTIN*%
X50325000Y-28030000D03*
%TO.P,J1,28,W1_28*%
%TO.N,W1*%
X52230000Y-26760000D03*
%TO.P,J1,29,CMTOUT_29*%
%TO.N,CMTOUT*%
X50325000Y-25490000D03*
%TO.P,J1,30,INT_30*%
%TO.N,INT*%
X52230000Y-24220000D03*
%TO.P,J1,31,AD8_31*%
%TO.N,AD8*%
X54135000Y-61050000D03*
%TO.P,J1,32,AD9_32*%
%TO.N,AD9*%
X56040000Y-59780000D03*
%TO.P,J1,33,AD10_33*%
%TO.N,AD10*%
X54135000Y-58510000D03*
%TO.P,J1,34,AD11_34*%
%TO.N,AD11*%
X56040000Y-57240000D03*
%TO.P,J1,35,AD12_35*%
%TO.N,AD12*%
X54135000Y-55970000D03*
%TO.P,J1,36,AD13_36*%
%TO.N,AD13*%
X56040000Y-54700000D03*
%TO.P,J1,37,AD14_37*%
%TO.N,AD14*%
X54135000Y-53430000D03*
%TO.P,J1,38,AD15_38*%
%TO.N,AD15*%
X56040000Y-52160000D03*
%TO.P,J1,39,PB1_39*%
%TO.N,PB1*%
X54135000Y-50890000D03*
%TO.P,J1,40,NC3_40*%
%TO.N,NC3*%
X56040000Y-49620000D03*
%TO.P,J1,41,+4V7_41*%
%TO.N,+4V7*%
X54135000Y-48350000D03*
%TO.P,J1,42,+4V7_42*%
X56040000Y-47080000D03*
%TO.P,J1,43,FGND_43*%
%TO.N,FGND*%
X54135000Y-45810000D03*
%TO.P,J1,44,FGND_44*%
X56040000Y-44540000D03*
%TO.P,J1,45,+BATT_45*%
%TO.N,+BATT*%
X54135000Y-43270000D03*
%TO.P,J1,46,+BATT_46*%
X56040000Y-42000000D03*
%TO.P,J1,47,+BATT_47*%
X54135000Y-40730000D03*
%TO.P,J1,48,+BATT_48*%
X56040000Y-39460000D03*
%TO.P,J1,49,NC4_49*%
%TO.N,NC4*%
X54135000Y-38190000D03*
%TO.P,J1,50,BFO_50*%
%TO.N,BFO*%
X56040000Y-36920000D03*
%TO.P,J1,51,PHI_OS_51*%
%TO.N,PHI_OS*%
X54135000Y-35650000D03*
%TO.P,J1,52,GND_52*%
%TO.N,GND*%
X56040000Y-34380000D03*
%TO.P,J1,53,GND_53*%
X54135000Y-33110000D03*
%TO.P,J1,54,GND_54*%
X56040000Y-31840000D03*
%TO.P,J1,55,GND_55*%
X54135000Y-30570000D03*
%TO.P,J1,56,DME0_56*%
%TO.N,DME0*%
X56040000Y-29300000D03*
%TO.P,J1,57,RW_57*%
%TO.N,RW*%
X54135000Y-28030000D03*
%TO.P,J1,58,DME1_58*%
%TO.N,DME1*%
X56040000Y-26760000D03*
%TO.P,J1,59,ME1_59*%
%TO.N,ME1*%
X54135000Y-25490000D03*
%TO.P,J1,60,OD_60*%
%TO.N,OD*%
X56040000Y-24220000D03*
%TD*%
D12*
%TO.P,R12,1*%
%TO.N,VGG*%
X42680000Y-61200000D03*
%TO.P,R12,2*%
%TO.N,SCL_GP*%
X43320000Y-61200000D03*
%TD*%
D13*
%TO.P,J5,1,Pin_1_1*%
%TO.N,GREENPAK2_IO14*%
X45800000Y-31860000D03*
D11*
%TO.P,J5,2,Pin_2_2*%
%TO.N,GREENPAK2_IO12*%
X45800000Y-34400000D03*
%TO.P,J5,3,Pin_3_3*%
%TO.N,GREENPAK2_IO10*%
X45800000Y-36940000D03*
%TD*%
D13*
%TO.P,SDA1,1,Pin_1_1*%
%TO.N,SDA_GP*%
X40000000Y-64000000D03*
D11*
%TO.P,SDA1,2,Pin_2_2*%
%TO.N,SDA_GP_U4*%
X40000000Y-66540000D03*
%TD*%
D13*
%TO.P,SCL1,1,Pin_1_1*%
%TO.N,SCL_GP*%
X46000000Y-64000000D03*
D11*
%TO.P,SCL1,2,Pin_2_2*%
%TO.N,SCL_GP_U4*%
X46000000Y-66540000D03*
%TD*%
D26*
%TO.N,DME0*%
X42925400Y-44595200D03*
X24892500Y-41936400D03*
%TO.N,PC1500_SENSE*%
X22286000Y-58224700D03*
%TO.N,SRAM_CS*%
X30320000Y-40434600D03*
%TO.N,PV*%
X41395000Y-43662300D03*
X33468300Y-41168600D03*
X28636100Y-40754300D03*
X27697500Y-44219800D03*
%TO.N,SRAM_WE*%
X27853500Y-49665900D03*
%TO.N,SRAM_A14*%
X20640400Y-57439200D03*
%TO.N,VGG*%
X24884500Y-25411400D03*
X31928700Y-50268200D03*
X45862500Y-41371700D03*
X27512300Y-55711400D03*
X37426700Y-45661700D03*
X24226600Y-69019500D03*
X40034100Y-25684100D03*
X41300000Y-39933200D03*
X43886000Y-54875200D03*
X33935600Y-50255700D03*
%TO.N,SRAM_A13*%
X27526400Y-50560500D03*
%TO.N,SRAM_A12*%
X25266600Y-60587100D03*
X22484900Y-49917700D03*
%TO.N,GND*%
X11395000Y-3367700D03*
X31625000Y-20000000D03*
X27600000Y-28000000D03*
X35800000Y-36000000D03*
X32000000Y-26225000D03*
X38800000Y-31375000D03*
X36000000Y-22600000D03*
X5900000Y-14375000D03*
X3435000Y-3675000D03*
X18000000Y-61600000D03*
X46775000Y-19200000D03*
X42800000Y-37000000D03*
X23200000Y-64600000D03*
X42975000Y-14200000D03*
X12730000Y-14375000D03*
X43200000Y-8400000D03*
X26200000Y-68200000D03*
%TO.N,SRAM_A11*%
X30311100Y-42802300D03*
%TO.N,SDA_GP*%
X30712900Y-61990800D03*
X30402700Y-26751000D03*
%TO.N,SCL_GP*%
X30507900Y-60774400D03*
X42400000Y-62842300D03*
%TO.N,RW*%
X51992500Y-30570000D03*
%TO.N,AD15*%
X30504100Y-59325000D03*
X47503400Y-45700100D03*
X30023500Y-54248200D03*
X46094300Y-54615900D03*
%TO.N,AD14*%
X46540400Y-40825600D03*
X47305200Y-55440300D03*
X47529300Y-51640900D03*
X37829800Y-59157900D03*
%TO.N,AD13*%
X48139000Y-58702900D03*
X30503400Y-58025000D03*
X51606100Y-61329600D03*
X38900900Y-59441200D03*
%TO.N,AD12*%
X27652600Y-57375000D03*
%TO.N,AD11*%
X53704000Y-62476800D03*
X27675800Y-56567100D03*
%TO.N,AD0*%
X22482700Y-38310200D03*
%TO.N,AD1*%
X22488600Y-39112000D03*
%TO.N,AD2*%
X22280000Y-39913800D03*
%TO.N,AD3*%
X19161700Y-37940900D03*
%TO.N,AD4*%
X49045600Y-55970000D03*
X22279800Y-43737300D03*
%TO.N,AD5*%
X49223200Y-63732300D03*
X18831000Y-45042900D03*
%TO.N,AD6*%
X22476300Y-44801100D03*
%TO.N,AD7*%
X19141600Y-47420000D03*
%TO.N,AD8*%
X28175200Y-47461300D03*
X37226900Y-60870500D03*
%TO.N,AD9*%
X28933200Y-47838900D03*
X52549200Y-64838200D03*
%TO.N,AD10*%
X23412000Y-51231600D03*
X50905600Y-64406000D03*
X29769100Y-41138000D03*
%TO.N,D0*%
X40446700Y-23266700D03*
X23007100Y-33207300D03*
%TO.N,D1*%
X37151900Y-31610200D03*
X33444200Y-29171400D03*
X22326900Y-36056000D03*
%TO.N,D2*%
X22299000Y-34884200D03*
X47930300Y-40286600D03*
%TO.N,D3*%
X32778400Y-32129100D03*
%TO.N,D4*%
X36249900Y-37300000D03*
X33711900Y-36768700D03*
%TO.N,D5*%
X30521100Y-36132600D03*
%TO.N,D6*%
X33723500Y-39317600D03*
%TO.N,D7*%
X30356000Y-50019800D03*
X30528000Y-38654400D03*
X38632000Y-43019000D03*
%TO.N,TRIG_RD*%
X45862500Y-48646400D03*
X38023500Y-46526400D03*
%TO.N,SDA*%
X29680900Y-30103200D03*
%TO.N,SCL*%
X25198900Y-31735300D03*
X39137500Y-15644400D03*
%TO.N,3V3*%
X8970100Y-21690100D03*
X42071700Y-10474400D03*
X33175000Y-18060800D03*
X9195000Y-4632500D03*
%TO.N,+BATT*%
X40421400Y-28371400D03*
%TO.N,Net-(J2-CD{slash}DAT3)*%
X6171500Y-7294100D03*
%TO.N,SD_CS*%
X37574700Y-4602000D03*
X6773700Y-4944300D03*
%TO.N,SD_MOSI*%
X8095000Y-4604500D03*
X37890700Y-10825600D03*
%TO.N,SD_SCK*%
X43548800Y-11067200D03*
X10295000Y-4602000D03*
%TO.N,SD_MISO*%
X12495000Y-5203800D03*
X37893100Y-9950300D03*
%TO.N,SD_DAT1*%
X8576600Y-19735400D03*
%TO.N,SD_DAT2*%
X1271500Y-10036900D03*
%TO.N,SC_RESET*%
X37888200Y-9025000D03*
X9800000Y-19717500D03*
%TO.N,OD*%
X33697700Y-44369900D03*
%TO.N,+4V7*%
X22320000Y-74295000D03*
%TD*%
%TO.N,DME0*%
D27*
X52112500Y-28230000D02*
X50820500Y-26938000D01*
X23537500Y-56075000D02*
X21879900Y-54417400D01*
X48504900Y-28294900D02*
X48504900Y-36496500D01*
X43958900Y-41042500D02*
X43958900Y-43561700D01*
X21879900Y-46254600D02*
X24892500Y-43242000D01*
X50820500Y-26938000D02*
X49861800Y-26938000D01*
X43958900Y-43561700D02*
X42925400Y-44595200D01*
X52747600Y-28230000D02*
X52112500Y-28230000D01*
X53817600Y-29300000D02*
X52747600Y-28230000D01*
X40895600Y-46625000D02*
X42925400Y-44595200D01*
X49861800Y-26938000D02*
X48504900Y-28294900D01*
X40137500Y-46625000D02*
X40895600Y-46625000D01*
X56040000Y-29300000D02*
X53817600Y-29300000D01*
X48504900Y-36496500D02*
X43958900Y-41042500D01*
X24892500Y-43242000D02*
X24892500Y-41936400D01*
X21879900Y-54417400D02*
X21879900Y-46254600D01*
%TO.N,PC1500_SENSE*%
D28*
X22286000Y-57297900D02*
X22286000Y-58224700D01*
X23537500Y-56725000D02*
X22858900Y-56725000D01*
X22858900Y-56725000D02*
X22286000Y-57297900D01*
%TO.N,SRAM_CS*%
D27*
X24260500Y-57375000D02*
X24739100Y-56896400D01*
X30381000Y-41458300D02*
X30381000Y-40495600D01*
X28221200Y-43618100D02*
X30381000Y-41458300D01*
X23537500Y-57375000D02*
X24260500Y-57375000D01*
X24739100Y-56896400D02*
X24739100Y-46327400D01*
X24739100Y-46327400D02*
X27448400Y-43618100D01*
X30381000Y-40495600D02*
X30320000Y-40434600D01*
X27448400Y-43618100D02*
X28221200Y-43618100D01*
%TO.N,PV*%
X25140800Y-46776500D02*
X27697500Y-44219800D01*
X35367100Y-42498300D02*
X34533000Y-42498300D01*
X40137500Y-44025000D02*
X36893800Y-44025000D01*
X33468300Y-41433600D02*
X33468300Y-41168600D01*
X24234400Y-58025000D02*
X25140800Y-57118600D01*
X34533000Y-42498300D02*
X33468300Y-41433600D01*
X36893800Y-44025000D02*
X35367100Y-42498300D01*
X25140800Y-57118600D02*
X25140800Y-46776500D01*
X40137500Y-44025000D02*
X41032300Y-44025000D01*
X41032300Y-44025000D02*
X41395000Y-43662300D01*
X23537500Y-58025000D02*
X24234400Y-58025000D01*
%TO.N,SRAM_WE*%
X27853500Y-49665900D02*
X27515000Y-49665900D01*
X25583200Y-57688500D02*
X24596700Y-58675000D01*
D28*
X23537500Y-58675000D02*
X24596700Y-58675000D01*
D27*
X27515000Y-49665900D02*
X25583200Y-51597700D01*
X25583200Y-51597700D02*
X25583200Y-57688500D01*
%TO.N,SRAM_A14*%
X22526200Y-59325000D02*
X20640400Y-57439200D01*
X23537500Y-59325000D02*
X22526200Y-59325000D01*
%TO.N,VGG*%
X29262500Y-52934400D02*
X31928700Y-50268200D01*
X42680000Y-59450000D02*
X42680000Y-61200000D01*
X45225000Y-24425000D02*
X45150000Y-24500000D01*
X24225000Y-69019500D02*
X24225000Y-70000000D01*
X41680000Y-35900000D02*
X41580000Y-36000000D01*
X28898900Y-55711400D02*
X27512300Y-55711400D01*
D29*
X42000000Y-27650000D02*
X42000000Y-34309800D01*
D27*
X43886000Y-54875200D02*
X43886000Y-58044001D01*
X41134800Y-39768000D02*
X41300000Y-39933200D01*
X24225000Y-69019500D02*
X24226600Y-69019500D01*
D29*
X42000000Y-34309800D02*
X41680000Y-34629800D01*
D27*
X45862500Y-42075000D02*
X45862500Y-41371700D01*
D29*
X41680000Y-34629800D02*
X41680000Y-35900000D01*
X45225000Y-19200000D02*
X45225000Y-24425000D01*
D27*
X37426700Y-45661700D02*
X38459800Y-45661700D01*
X41190000Y-36390000D02*
X41080000Y-36500000D01*
X43886000Y-58044001D02*
X42680000Y-59250001D01*
X41580000Y-36000000D02*
X41421544Y-36000000D01*
D29*
X41421544Y-36000000D02*
X41190000Y-36231544D01*
X45150000Y-24500000D02*
X42000000Y-27650000D01*
D27*
X22857700Y-59975000D02*
X23537500Y-59975000D01*
X29262500Y-56075000D02*
X29262500Y-52934400D01*
X38459800Y-45661700D02*
X38773100Y-45975000D01*
X22477400Y-60355300D02*
X22857700Y-59975000D01*
X24225000Y-69019500D02*
X22477400Y-67271900D01*
D29*
X40034100Y-25684100D02*
X38850000Y-24500000D01*
X41134800Y-36554800D02*
X41134800Y-39768000D01*
D27*
X42680000Y-59250001D02*
X42680000Y-59450000D01*
X29262500Y-56075000D02*
X28898900Y-55711400D01*
X38773100Y-45975000D02*
X40137500Y-45975000D01*
X41080000Y-36500000D02*
X41134800Y-36554800D01*
X41190000Y-36231544D02*
X41190000Y-36390000D01*
D29*
X42000000Y-27650000D02*
X40034100Y-25684100D01*
D27*
X22477400Y-67271900D02*
X22477400Y-60355300D01*
%TO.N,SRAM_A13*%
X26025900Y-52061000D02*
X27526400Y-50560500D01*
D28*
X25560700Y-60010400D02*
X25027800Y-60010400D01*
D27*
X26025900Y-59545200D02*
X26025900Y-52061000D01*
D28*
X25027800Y-60010400D02*
X24413200Y-60625000D01*
X24413200Y-60625000D02*
X23537500Y-60625000D01*
D27*
X25560700Y-60010400D02*
X26025900Y-59545200D01*
%TO.N,SRAM_A12*%
X23537500Y-61275000D02*
X24578700Y-61275000D01*
X24578700Y-61275000D02*
X25266600Y-60587100D01*
%TO.N,GND*%
X23537500Y-61925000D02*
X23200000Y-62262500D01*
D28*
X41962200Y-9525600D02*
X39286900Y-9525600D01*
D27*
X44862500Y-8375000D02*
X44862500Y-7725000D01*
X23200000Y-62262500D02*
X23200000Y-64600000D01*
D28*
X39286900Y-9525600D02*
X39137500Y-9675000D01*
D29*
X39332500Y-48730000D02*
X40137500Y-47925000D01*
D27*
X25775000Y-70000000D02*
X25775000Y-68625000D01*
X25775000Y-68625000D02*
X26200000Y-68200000D01*
X43225000Y-8375000D02*
X43200000Y-8400000D01*
X42462800Y-9025000D02*
X41962200Y-9525600D01*
X42575000Y-9025000D02*
X43200000Y-8400000D01*
X42320000Y-37480000D02*
X42800000Y-37000000D01*
X42320000Y-38700000D02*
X42320000Y-37480000D01*
X44862500Y-9025000D02*
X44862500Y-8375000D01*
D29*
X37000000Y-48730000D02*
X39332500Y-48730000D01*
X37000000Y-47775000D02*
X37000000Y-48730000D01*
D27*
X44862500Y-8375000D02*
X43225000Y-8375000D01*
X11395000Y-3074600D02*
X11395000Y-3550000D01*
X46800000Y-19200000D02*
X46775000Y-19200000D01*
D29*
X34890000Y-48730000D02*
X37000000Y-48730000D01*
D27*
X42462800Y-9025000D02*
X42575000Y-9025000D01*
%TO.N,SRAM_A11*%
X28563700Y-61925000D02*
X26508900Y-59870200D01*
X26508900Y-59870200D02*
X26508900Y-54044800D01*
X27573400Y-47712000D02*
X27573400Y-45540000D01*
X26508900Y-54044800D02*
X28455200Y-52098500D01*
X29262500Y-61925000D02*
X28563700Y-61925000D01*
X28455200Y-48593800D02*
X27573400Y-47712000D01*
X27573400Y-45540000D02*
X30311100Y-42802300D01*
X28455200Y-52098500D02*
X28455200Y-48593800D01*
%TO.N,SDA_GP*%
X30712900Y-61424400D02*
X30712900Y-61990800D01*
X42080000Y-61920000D02*
X40000000Y-64000000D01*
X26910600Y-59606900D02*
X28578700Y-61275000D01*
X31345400Y-27693700D02*
X31345400Y-49893200D01*
X31345400Y-49893200D02*
X26910600Y-54328000D01*
D28*
X29411900Y-61424400D02*
X29262500Y-61275000D01*
D27*
X28578700Y-61275000D02*
X29262500Y-61275000D01*
D28*
X30712900Y-61424400D02*
X29411900Y-61424400D01*
D27*
X30402700Y-26751000D02*
X31345400Y-27693700D01*
X26910600Y-54328000D02*
X26910600Y-59606900D01*
X42080000Y-59450000D02*
X42080000Y-61920000D01*
%TO.N,SCL_GP*%
D28*
X30507900Y-60774400D02*
X29411900Y-60774400D01*
X29411900Y-60774400D02*
X29262500Y-60625000D01*
D27*
X43320000Y-61200000D02*
X43320000Y-61880000D01*
X43320000Y-61880000D02*
X42400000Y-62800000D01*
%TO.N,RW*%
X35550100Y-68071000D02*
X38231500Y-65389600D01*
X29262500Y-59975000D02*
X30636300Y-59975000D01*
X43110900Y-56191600D02*
X43110900Y-47626400D01*
X50058100Y-31813300D02*
X48906600Y-32964800D01*
X44410800Y-41188000D02*
X44410800Y-45623500D01*
X43110900Y-47626400D02*
X44762300Y-45975000D01*
X31314700Y-60653400D02*
X31314700Y-65177500D01*
X50749200Y-31813300D02*
X50058100Y-31813300D01*
X31314700Y-65177500D02*
X34208200Y-68071000D01*
X38231500Y-65389600D02*
X38231500Y-61071000D01*
X44410800Y-45623500D02*
X44762300Y-45975000D01*
X30636300Y-59975000D02*
X31314700Y-60653400D01*
X48906600Y-32964800D02*
X48906600Y-36692200D01*
X38231500Y-61071000D02*
X43110900Y-56191600D01*
X51992500Y-30570000D02*
X50749200Y-31813300D01*
X34208200Y-68071000D02*
X35550100Y-68071000D01*
X44762300Y-45975000D02*
X45862500Y-45975000D01*
X48906600Y-36692200D02*
X44410800Y-41188000D01*
%TO.N,AD15*%
D28*
X29262500Y-59325000D02*
X30504100Y-59325000D01*
X47128300Y-45325000D02*
X47503400Y-45700100D01*
X45862500Y-45325000D02*
X47128300Y-45325000D01*
%TO.N,AD14*%
D27*
X44817800Y-41456000D02*
X44817800Y-44286500D01*
X46441400Y-40726600D02*
X45547200Y-40726600D01*
X31781000Y-59750600D02*
X31781000Y-64744400D01*
X37829800Y-61120100D02*
X37829800Y-59157900D01*
X36697300Y-66355800D02*
X36697300Y-62252600D01*
X44817800Y-44286500D02*
X45206300Y-44675000D01*
X46540400Y-40825600D02*
X46441400Y-40726600D01*
X30705400Y-58675000D02*
X31781000Y-59750600D01*
X34374500Y-67669300D02*
X35383800Y-67669300D01*
X35383800Y-67669300D02*
X36697300Y-66355800D01*
X36697300Y-62252600D02*
X37829800Y-61120100D01*
X29262500Y-58675000D02*
X30705400Y-58675000D01*
X45206300Y-44675000D02*
X45862500Y-44675000D01*
X45547200Y-40726600D02*
X44817800Y-41456000D01*
X31781000Y-64744400D02*
X33342400Y-66305800D01*
X33342400Y-66305800D02*
X33342400Y-66637200D01*
X33342400Y-66637200D02*
X34374500Y-67669300D01*
%TO.N,AD13*%
X46703400Y-44025000D02*
X48139000Y-45460600D01*
X49913400Y-62159300D02*
X50776400Y-62159300D01*
X48139000Y-45460600D02*
X48139000Y-58702900D01*
X50776400Y-62159300D02*
X51606100Y-61329600D01*
X48139000Y-58702900D02*
X48139000Y-60384900D01*
X48139000Y-60384900D02*
X49913400Y-62159300D01*
X29262500Y-58025000D02*
X30503400Y-58025000D01*
X45862500Y-44025000D02*
X46703400Y-44025000D01*
%TO.N,AD12*%
X48540700Y-53187500D02*
X48540700Y-45285300D01*
X48540700Y-45285300D02*
X46630400Y-43375000D01*
X49852300Y-54499100D02*
X48540700Y-53187500D01*
X54135000Y-55970000D02*
X51912700Y-55970000D01*
X51912700Y-55970000D02*
X50441800Y-54499100D01*
X46630400Y-43375000D02*
X45862500Y-43375000D01*
D28*
X29262500Y-57375000D02*
X27652600Y-57375000D01*
D27*
X50441800Y-54499100D02*
X49852300Y-54499100D01*
%TO.N,AD11*%
D28*
X29262500Y-56725000D02*
X27833700Y-56725000D01*
D27*
X48942400Y-48528800D02*
X48942400Y-45112600D01*
X51424300Y-51319800D02*
X51424300Y-50460200D01*
X51789400Y-53223700D02*
X51166300Y-52600600D01*
X51166300Y-51577800D02*
X51424300Y-51319800D01*
X56040000Y-56287400D02*
X54923200Y-55170600D01*
X46554800Y-42725000D02*
X45862500Y-42725000D01*
X54923200Y-55170600D02*
X54923200Y-54229400D01*
X54548900Y-52301600D02*
X53592800Y-52301600D01*
X51424300Y-50460200D02*
X50760000Y-49795900D01*
X55233200Y-53919400D02*
X55233200Y-52985900D01*
X50760000Y-49795900D02*
X50209500Y-49795900D01*
X48942400Y-45112600D02*
X46554800Y-42725000D01*
X55233200Y-52985900D02*
X54548900Y-52301600D01*
X51166300Y-52600600D02*
X51166300Y-51577800D01*
X52670700Y-53223700D02*
X51789400Y-53223700D01*
X53592800Y-52301600D02*
X52670700Y-53223700D01*
D28*
X27833700Y-56725000D02*
X27675800Y-56567100D01*
D27*
X50209500Y-49795900D02*
X48942400Y-48528800D01*
X54923200Y-54229400D02*
X55233200Y-53919400D01*
X56040000Y-57240000D02*
X56040000Y-56287400D01*
%TO.N,AD0*%
X23657500Y-37135400D02*
X23657500Y-24797500D01*
X22482700Y-38310200D02*
X23657500Y-37135400D01*
X23657500Y-24797500D02*
X17110000Y-18250000D01*
%TO.N,AD4*%
X19225400Y-30950000D02*
X22953400Y-34678000D01*
X52230000Y-57239900D02*
X52230000Y-57240000D01*
X49045600Y-56194900D02*
X50090600Y-57239900D01*
X17110000Y-30950000D02*
X19225400Y-30950000D01*
X21649900Y-37633500D02*
X21649900Y-43107400D01*
X49045600Y-55970000D02*
X49045600Y-56194900D01*
X22953400Y-34678000D02*
X22953400Y-36330000D01*
X22953400Y-36330000D02*
X21649900Y-37633500D01*
X50090600Y-57239900D02*
X52230000Y-57239900D01*
X21649900Y-43107400D02*
X22279800Y-43737300D01*
%TO.N,AD5*%
X18560000Y-34940000D02*
X18560000Y-44771900D01*
X17110000Y-33490000D02*
X18560000Y-34940000D01*
X18560000Y-44771900D02*
X18831000Y-45042900D01*
%TO.N,AD9*%
X56040000Y-59780000D02*
X56040000Y-61347400D01*
X56040000Y-61347400D02*
X52549200Y-64838200D01*
%TO.N,AD10*%
X52326700Y-61270900D02*
X54135000Y-59462600D01*
X54135000Y-59462600D02*
X54135000Y-58510000D01*
X23412000Y-47079400D02*
X29353400Y-41138000D01*
X29353400Y-41138000D02*
X29769100Y-41138000D01*
X50905600Y-64406000D02*
X52326700Y-62984900D01*
X52326700Y-62984900D02*
X52326700Y-61270900D01*
X23412000Y-51231600D02*
X23412000Y-47079400D01*
%TO.N,D2*%
X17110000Y-66510000D02*
X19763400Y-63856600D01*
X19763400Y-63856600D02*
X19763400Y-37419800D01*
X19763400Y-37419800D02*
X22299000Y-34884200D01*
%TO.N,D3*%
X32530400Y-64150400D02*
X34890000Y-66510000D01*
X32778400Y-32129100D02*
X32063200Y-32844300D01*
X32264000Y-49752600D02*
X32530400Y-50019000D01*
X32530400Y-50019000D02*
X32530400Y-64150400D01*
X32264000Y-41951100D02*
X32264000Y-49752600D01*
X32063200Y-32844300D02*
X32063200Y-41750300D01*
X32063200Y-41750300D02*
X32264000Y-41951100D01*
%TO.N,D4*%
X32932100Y-56074800D02*
X34359000Y-57501700D01*
X36062600Y-62797400D02*
X34890000Y-63970000D01*
X33711900Y-37300000D02*
X36249900Y-37300000D01*
X33711900Y-37300000D02*
X33711900Y-36768700D01*
X33711900Y-37300000D02*
X32464900Y-38547000D01*
X36062600Y-58404300D02*
X36062600Y-62797400D01*
X32932100Y-49852700D02*
X32932100Y-56074800D01*
X32464900Y-41584000D02*
X32665700Y-41784800D01*
X34359000Y-57501700D02*
X35160000Y-57501700D01*
X32665700Y-41784800D02*
X32665700Y-49586300D01*
X32665700Y-49586300D02*
X32932100Y-49852700D01*
X35160000Y-57501700D02*
X36062600Y-58404300D01*
X32464900Y-38547000D02*
X32464900Y-41584000D01*
%TO.N,D6*%
X32866600Y-41417700D02*
X33094400Y-41645500D01*
X33094400Y-41645500D02*
X33094400Y-49447000D01*
X33333800Y-54793800D02*
X34890000Y-56350000D01*
X33094400Y-49447000D02*
X33333800Y-49686400D01*
X33723500Y-39317600D02*
X32866600Y-40174500D01*
X32866600Y-40174500D02*
X32866600Y-41417700D01*
X33333800Y-49686400D02*
X33333800Y-54793800D01*
%TO.N,D7*%
X30528000Y-38654400D02*
X30929100Y-39055500D01*
X30929100Y-39055500D02*
X30929100Y-49446700D01*
X30929100Y-49446700D02*
X30356000Y-50019800D01*
%TO.N,TRIG_RD*%
X45862500Y-47925000D02*
X45862500Y-48646400D01*
%TO.N,TRIG_WR*%
D28*
X39988100Y-47125600D02*
X40137500Y-47275000D01*
X34890000Y-47125600D02*
X39988100Y-47125600D01*
D27*
X34890000Y-46190000D02*
X34890000Y-47125600D01*
%TO.N,SDA*%
D28*
X38989700Y-11772800D02*
X39137500Y-11625000D01*
X37894600Y-11772800D02*
X38989700Y-11772800D01*
D27*
X29680900Y-19986500D02*
X29680900Y-30103200D01*
X37894600Y-11772800D02*
X29680900Y-19986500D01*
%TO.N,SCL*%
X39137500Y-12275000D02*
X39137500Y-15644400D01*
%TO.N,3V3*%
D28*
X44713100Y-10474400D02*
X44862500Y-10325000D01*
X42071700Y-10474400D02*
X44713100Y-10474400D01*
D27*
X9195000Y-4632500D02*
X9195000Y-3550000D01*
D29*
X42071700Y-10728300D02*
X41425000Y-11375000D01*
D27*
X42071700Y-10474400D02*
X42071700Y-10728300D01*
X34890000Y-28410000D02*
X34890000Y-30950000D01*
D29*
X41425000Y-11375000D02*
X41425000Y-14200000D01*
%TO.N,VGG_FB*%
D27*
X41501400Y-40583000D02*
X41099000Y-40583000D01*
X37500800Y-23549200D02*
X38850000Y-22200000D01*
X37753600Y-37237600D02*
X37753600Y-31361000D01*
X41680000Y-38700000D02*
X41680000Y-38860600D01*
X41099000Y-40583000D02*
X37753600Y-37237600D01*
X37500800Y-31108200D02*
X37500800Y-23549200D01*
X41680000Y-38860600D02*
X42283000Y-39463600D01*
X42283000Y-39463600D02*
X42283000Y-39801400D01*
X41680000Y-38700000D02*
X41680000Y-37140000D01*
X41720000Y-37100000D02*
X41720000Y-36500000D01*
X37753600Y-31361000D02*
X37500800Y-31108200D01*
X42283000Y-39801400D02*
X41501400Y-40583000D01*
X41680000Y-37140000D02*
X41720000Y-37100000D01*
%TO.N,~INT*%
X50685000Y-12275000D02*
X44862500Y-12275000D01*
X53500000Y-9460000D02*
X50685000Y-12275000D01*
%TO.N,+BATT*%
D29*
X38967800Y-29825000D02*
X40421400Y-28371400D01*
D27*
X38800000Y-29825000D02*
X38967800Y-29825000D01*
D29*
X38850000Y-26800000D02*
X40421400Y-28371400D01*
%TO.N,Net-(J2-CD{slash}DAT3)*%
D27*
X6171500Y-7294100D02*
X5895000Y-7017600D01*
X5895000Y-7017600D02*
X5895000Y-3550000D01*
%TO.N,SD_CS*%
X37574700Y-6162200D02*
X37574700Y-4602000D01*
X6773700Y-4944300D02*
X6995000Y-4723000D01*
X39137500Y-7725000D02*
X37574700Y-6162200D01*
X6995000Y-4723000D02*
X6995000Y-3550000D01*
%TO.N,SD_MOSI*%
D28*
X37890700Y-10825600D02*
X38988100Y-10825600D01*
D27*
X8095000Y-4604500D02*
X8095000Y-3550000D01*
D28*
X38988100Y-10825600D02*
X39137500Y-10975000D01*
%TO.N,SD_SCK*%
D27*
X44862500Y-10975000D02*
X43641000Y-10975000D01*
X43641000Y-10975000D02*
X43548800Y-11067200D01*
X10295000Y-3550000D02*
X10295000Y-4602000D01*
%TO.N,SD_MISO*%
X12495000Y-3550000D02*
X12495000Y-5203800D01*
X39137500Y-10325000D02*
X38267800Y-10325000D01*
X38267800Y-10325000D02*
X37893100Y-9950300D01*
%TO.N,SD_DAT1*%
X13545000Y-5875300D02*
X13545000Y-3550000D01*
X8576600Y-10843700D02*
X13545000Y-5875300D01*
X8576600Y-19735400D02*
X8576600Y-10843700D01*
%TO.N,SD_DAT2*%
X1271500Y-10036900D02*
X2021400Y-10036900D01*
X2021400Y-10036900D02*
X2358300Y-9700000D01*
X3260000Y-9700000D02*
X2358300Y-9700000D01*
%TO.N,SC_RESET*%
X39137500Y-9025000D02*
X37888200Y-9025000D01*
%TO.N,GREENPAK2_IO14*%
X44000000Y-35634315D02*
X43800000Y-35834315D01*
X45800000Y-33011700D02*
X45512100Y-33011700D01*
X43800000Y-35834315D02*
X43800000Y-37234315D01*
X43800000Y-37234315D02*
X42892900Y-38141415D01*
X41944600Y-40707800D02*
X41944600Y-40778800D01*
X40648400Y-42075000D02*
X40137500Y-42075000D01*
X45512100Y-33011700D02*
X44000000Y-34523800D01*
X42892900Y-39759500D02*
X41944600Y-40707800D01*
X45800000Y-31860000D02*
X45800000Y-33011700D01*
X44000000Y-34523800D02*
X44000000Y-35634315D01*
X42892900Y-38141415D02*
X42892900Y-39759500D01*
X41944600Y-40778800D02*
X40648400Y-42075000D01*
%TO.N,GREENPAK2_IO12*%
X43292900Y-38307100D02*
X43292900Y-39927500D01*
X42346300Y-40874100D02*
X42346300Y-41822400D01*
X45800000Y-34400000D02*
X44200000Y-36000000D01*
X40793700Y-43375000D02*
X40137500Y-43375000D01*
X44200000Y-36000000D02*
X44200000Y-37400000D01*
X44200000Y-37400000D02*
X43292900Y-38307100D01*
X42346300Y-41822400D02*
X40793700Y-43375000D01*
X43292900Y-39927500D02*
X42346300Y-40874100D01*
%TO.N,GREENPAK2_IO10*%
X42748000Y-41040400D02*
X42748000Y-43173700D01*
X41246700Y-44675000D02*
X40137500Y-44675000D01*
X45800000Y-36940000D02*
X45800000Y-37988400D01*
X45800000Y-37988400D02*
X42748000Y-41040400D01*
X42748000Y-43173700D02*
X41246700Y-44675000D01*
%TO.N,OD*%
X41265500Y-45325000D02*
X40137500Y-45325000D01*
X47669100Y-36763400D02*
X43149700Y-41282800D01*
X43149700Y-41282800D02*
X43149700Y-43440800D01*
X34301300Y-44973500D02*
X39026400Y-44973500D01*
X39377900Y-45325000D02*
X40137500Y-45325000D01*
X39026400Y-44973500D02*
X39377900Y-45325000D01*
X43149700Y-43440800D02*
X41265500Y-45325000D01*
X56040000Y-24220000D02*
X54938000Y-23118000D01*
X33697700Y-44369900D02*
X34301300Y-44973500D01*
X54938000Y-23118000D02*
X51171800Y-23118000D01*
X51171800Y-23118000D02*
X47669100Y-26620700D01*
X47669100Y-26620700D02*
X47669100Y-36763400D01*
%TO.N,SDA_GP_U4*%
X40000000Y-66540000D02*
X44773100Y-61766900D01*
X44773100Y-47624400D02*
X45122500Y-47275000D01*
X44773100Y-61766900D02*
X44773100Y-47624400D01*
X45122500Y-47275000D02*
X45862500Y-47275000D01*
%TO.N,SCL_GP_U4*%
X46696000Y-55786400D02*
X46696000Y-49083600D01*
X46529800Y-46625000D02*
X45862500Y-46625000D01*
X46914100Y-48865500D02*
X46914100Y-47009300D01*
X46696000Y-49083600D02*
X46914100Y-48865500D01*
X46000000Y-66540000D02*
X47174800Y-65365200D01*
X47174800Y-65365200D02*
X47174800Y-56265200D01*
X46914100Y-47009300D02*
X46529800Y-46625000D01*
X47174800Y-56265200D02*
X46696000Y-55786400D01*
%TD*%
M02*
