M48
; DRILL file KiCad 10.0.5 date 2026-09-21T14:48:15
; FORMAT={-:-/ absolute / metric / decimal}
; #@! TF.CreationDate,2026-09-21T14:48:15+02:00
; #@! TF.GenerationSoftware,Kicad,Pcbnew,10.0.5
; #@! TF.FileFunction,MixedPlating,1,4
FMAT,2
METRIC
; #@! TA.AperFunction,Plated,PTH,ViaDrill
T1C0.300
; #@! TA.AperFunction,Plated,PTH,ComponentDrill
T2C0.762
; #@! TA.AperFunction,Plated,PTH,ComponentDrill
T3C1.000
%
G90
G05
T1
X1.271Y-10.037
X3.435Y-3.675
X5.9Y-14.375
X6.171Y-7.294
X6.774Y-4.944
X8.095Y-4.604
X8.577Y-19.735
X8.97Y-21.69
X9.195Y-4.632
X9.8Y-19.717
X10.295Y-4.602
X11.395Y-3.368
X12.495Y-5.204
X12.73Y-14.375
X18.0Y-61.6
X18.831Y-45.043
X19.142Y-47.42
X19.162Y-37.941
X20.64Y-57.439
X22.28Y-43.737
X22.28Y-39.914
X22.286Y-58.225
X22.299Y-34.884
X22.32Y-74.295
X22.327Y-36.056
X22.476Y-44.801
X22.483Y-38.31
X22.485Y-49.918
X22.489Y-39.112
X23.007Y-33.207
X23.2Y-64.6
X23.412Y-51.232
X24.227Y-69.019
X24.884Y-25.411
X24.892Y-41.936
X25.199Y-31.735
X25.267Y-60.587
X26.2Y-68.2
X27.512Y-55.711
X27.526Y-50.56
X27.6Y-28.0
X27.653Y-57.375
X27.676Y-56.567
X27.697Y-44.22
X27.854Y-49.666
X28.175Y-47.461
X28.636Y-40.754
X28.933Y-47.839
X29.681Y-30.103
X29.769Y-41.138
X30.023Y-54.248
X30.311Y-42.802
X30.32Y-40.435
X30.356Y-50.02
X30.403Y-26.751
X30.503Y-58.025
X30.504Y-59.325
X30.508Y-60.774
X30.521Y-36.133
X30.528Y-38.654
X30.713Y-61.991
X31.625Y-20.0
X31.929Y-50.268
X32.0Y-26.225
X32.778Y-32.129
X33.175Y-18.061
X33.444Y-29.171
X33.468Y-41.169
X33.698Y-44.37
X33.712Y-36.769
X33.724Y-39.318
X33.936Y-50.256
X35.8Y-36.0
X36.0Y-22.6
X36.25Y-37.3
X37.152Y-31.61
X37.227Y-60.87
X37.427Y-45.662
X37.575Y-4.602
X37.83Y-59.158
X37.888Y-9.025
X37.891Y-10.826
X37.893Y-9.95
X38.023Y-46.526
X38.632Y-43.019
X38.8Y-31.375
X38.901Y-59.441
X39.137Y-15.644
X40.034Y-25.684
X40.421Y-28.371
X40.447Y-23.267
X41.3Y-39.933
X41.395Y-43.662
X42.072Y-10.474
X42.4Y-62.842
X42.8Y-37.0
X42.925Y-44.595
X42.975Y-14.2
X43.2Y-8.4
X43.549Y-11.067
X43.886Y-54.875
X45.862Y-41.372
X45.862Y-48.646
X46.094Y-54.616
X46.54Y-40.826
X46.775Y-19.2
X47.305Y-55.44
X47.503Y-45.7
X47.529Y-51.641
X47.93Y-40.287
X48.139Y-58.703
X49.046Y-55.97
X49.223Y-63.732
X50.906Y-64.406
X51.606Y-61.33
X51.992Y-30.57
X52.549Y-64.838
X53.704Y-62.477
T2
X50.325Y-25.49
X50.325Y-28.03
X50.325Y-30.57
X50.325Y-33.11
X50.325Y-35.65
X50.325Y-38.19
X50.325Y-40.73
X50.325Y-43.27
X50.325Y-45.81
X50.325Y-48.35
X50.325Y-50.89
X50.325Y-53.43
X50.325Y-55.97
X50.325Y-58.51
X50.325Y-61.05
X52.23Y-24.22
X52.23Y-26.76
X52.23Y-29.3
X52.23Y-31.84
X52.23Y-34.38
X52.23Y-36.92
X52.23Y-39.46
X52.23Y-42.0
X52.23Y-44.54
X52.23Y-47.08
X52.23Y-49.62
X52.23Y-52.16
X52.23Y-54.7
X52.23Y-57.24
X52.23Y-59.78
X54.135Y-25.49
X54.135Y-28.03
X54.135Y-30.57
X54.135Y-33.11
X54.135Y-35.65
X54.135Y-38.19
X54.135Y-40.73
X54.135Y-43.27
X54.135Y-45.81
X54.135Y-48.35
X54.135Y-50.89
X54.135Y-53.43
X54.135Y-55.97
X54.135Y-58.51
X54.135Y-61.05
X56.04Y-24.22
X56.04Y-26.76
X56.04Y-29.3
X56.04Y-31.84
X56.04Y-34.38
X56.04Y-36.92
X56.04Y-39.46
X56.04Y-42.0
X56.04Y-44.54
X56.04Y-47.08
X56.04Y-49.62
X56.04Y-52.16
X56.04Y-54.7
X56.04Y-57.24
X56.04Y-59.78
T3
X17.11Y-18.25
X17.11Y-20.79
X17.11Y-23.33
X17.11Y-25.87
X17.11Y-28.41
X17.11Y-30.95
X17.11Y-33.49
X17.11Y-36.03
X17.11Y-38.57
X17.11Y-41.11
X17.11Y-43.65
X17.11Y-46.19
X17.11Y-48.73
X17.11Y-51.27
X17.11Y-53.81
X17.11Y-56.35
X17.11Y-58.89
X17.11Y-61.43
X17.11Y-63.97
X17.11Y-66.51
X34.89Y-18.25
X34.89Y-20.79
X34.89Y-23.33
X34.89Y-25.87
X34.89Y-28.41
X34.89Y-30.95
X34.89Y-33.49
X34.89Y-36.03
X34.89Y-38.57
X34.89Y-41.11
X34.89Y-43.65
X34.89Y-46.19
X34.89Y-48.73
X34.89Y-51.27
X34.89Y-53.81
X34.89Y-56.35
X34.89Y-58.89
X34.89Y-61.43
X34.89Y-63.97
X34.89Y-66.51
X38.065Y-72.595
X40.0Y-64.0
X40.0Y-66.54
X40.605Y-72.595
X45.8Y-31.86
X45.8Y-34.4
X45.8Y-36.94
X46.0Y-64.0
X46.0Y-66.54
X53.5Y-9.46
X53.5Y-12.0
X53.5Y-14.54
M30
